<?xml version="1.0" encoding="utf-8"?>
<svg width="45" height="52" viewBox="0 0 45 52" fill="none" xmlns="http://www.w3.org/2000/svg">
  <g clip-path="url(#clip0_62_726)">
    <path d="M 29.071 47.172 C 24.69 49.712 20.31 49.712 15.929 47.172 L 7.527 42.301 C 3.146 39.761 0.956 35.951 0.956 30.871 L 0.956 21.129 C 0.956 16.049 3.146 12.238 7.527 9.699 L 15.929 4.827 C 20.309 2.288 24.69 2.288 29.071 4.827 L 37.473 9.699 C 41.853 12.238 44.044 16.049 44.044 21.129 L 44.044 30.871 C 44.044 35.951 41.854 39.761 37.473 42.301 L 29.071 47.172 Z" fill="#40A7B5" stroke="black" stroke-width="0.0456248" style=""/>
    <path d="M 28.828 46.581 C 24.572 49.053 20.316 49.053 16.06 46.581 L 7.897 41.84 C 3.642 39.368 1.514 35.661 1.514 30.718 L 1.514 21.236 C 1.514 16.293 3.641 12.586 7.897 10.114 L 16.06 5.373 C 20.316 2.901 24.571 2.901 28.827 5.373 L 36.99 10.114 C 41.246 12.585 43.374 16.292 43.374 21.236 L 43.374 30.717 C 43.374 35.661 41.246 39.368 36.99 41.84 L 28.828 46.581 Z" stroke="#B7B7B7" stroke-width="1.69641" stroke-linecap="round" stroke-linejoin="round" style=""/>
    <path d="M29.9393 29.6927L22.7659 32.5956L17.7883 26.6704L21.8855 20.1054L29.3952 21.9733L29.9393 29.6927ZM15.3895 41.7166L14.5013 39.1202L20.9565 38.775L25.2931 41.672L22.9808 43.2691L15.3895 41.7166ZM6.78806 31.7031L9.79486 33.8712L11.2032 27.6842L8.73704 21.7746L6.10691 24.4208L6.78806 31.7031ZM13.1181 13.4169L12.5999 15.9864L18.8386 14.699L23.2334 11.7348L22.8179 10.5973L13.1181 13.4169ZM32.1072 13.6637L29.9998 13.506L32.9549 18.3697L37.3435 21.854L37.3862 19.6271L32.1072 13.6637ZM38.2141 31.4848L37.9096 29.0168L34.3172 32.9343L32.2147 38.639L34.2071 38.6772" fill="#2A4F57" style=""/>
    <path d="M21.1973 38.8456L21.1267 39.0869L20.6448 38.9448L20.7154 38.7042L22.7659 31.7386L22.8365 31.4973L23.3184 31.6394L23.2477 31.8807L21.1973 38.8456ZM15.6087 39.9819L15.7745 40.171L15.3962 40.5019L15.2304 40.3128L8.5899 32.7276L8.4241 32.5385L8.80233 32.2076L8.96814 32.3967L15.6087 39.9819ZM17.7503 26.4224L17.9987 26.3841L18.0754 26.8802L17.8269 26.9185L11.2413 27.9323L10.9936 27.9707L10.9169 27.4738L11.1654 27.4355L17.7503 26.4224ZM34.4684 32.8525L34.6672 33.0049L34.3616 33.404L34.1621 33.2508L29.7868 29.8917L29.5872 29.7393L29.8935 29.3402L30.0924 29.4934L34.4684 32.8525ZM33.1323 38.024L33.3645 37.9287L33.5545 38.3939L33.3222 38.4886L24.997 41.8971L24.764 41.9925L24.5741 41.5272L24.8064 41.4318L33.1323 38.024ZM31.2291 13.7148L31.4712 13.7805L31.3391 14.2654L31.097 14.1998L21.9851 11.7176L21.743 11.652L21.8751 11.167L22.1172 11.2334L31.2291 13.7148ZM22.1046 19.982L22.2281 20.2011L21.7905 20.4476L21.6669 20.2284L18.6202 14.8221L18.4966 14.6037L18.9343 14.3565L19.0579 14.5756L22.1046 19.982ZM32.7765 18.1928L32.953 18.0146L33.3102 18.3674L33.1337 18.5464L29.5741 22.1497L29.3976 22.3287L29.0404 21.9758L29.2168 21.7968L32.7765 18.1928ZM8.58618 22.7346L8.45003 22.9459L8.02733 22.675L8.16349 22.463L13.0721 14.8184L13.2083 14.6064L13.631 14.878L13.4948 15.0893L8.58618 22.7346Z" fill="#2A4F57" style=""/>
    <path fill-rule="evenodd" clip-rule="evenodd" d="M5.53118 26.6003C5.55317 25.4527 5.69066 24.3102 5.94187 23.19C6.18673 22.102 6.53875 21.0412 6.99262 20.0232C7.88527 18.0244 9.1555 16.2166 10.7332 14.6989C12.3102 13.1806 14.1653 11.9806 16.1969 11.1652C17.2315 10.7506 18.3051 10.4395 19.4009 10.2365C20.5299 10.0285 21.6775 9.93486 22.8251 9.95686C23.9727 9.97886 25.1159 10.1164 26.236 10.3676C27.3233 10.6124 28.3842 10.9644 29.4021 11.4183C31.401 12.311 33.2088 13.5812 34.7264 15.1589C36.2448 16.7358 37.4448 18.591 38.2602 20.6226C38.6747 21.6572 38.9858 22.7307 39.1888 23.8266C39.3969 24.9556 39.4905 26.1032 39.4685 27.2508C39.4465 28.3983 39.309 29.5415 39.0578 30.6617C38.8129 31.749 38.4609 32.8098 38.0071 33.8278C37.1144 35.8266 35.8442 37.6345 34.2665 39.1521C32.6895 40.6705 30.8343 41.8705 28.8027 42.6859C27.7682 43.1004 26.6946 43.4115 25.5987 43.6145C24.4698 43.8226 23.3221 43.9162 22.1746 43.8942C21.027 43.8722 19.8838 43.7347 18.7636 43.4835C17.6763 43.2386 16.6155 42.8866 15.5976 42.4327C13.5987 41.5401 11.7909 40.2699 10.2733 38.6922C8.7549 37.1152 7.55489 35.26 6.73949 33.2284C6.32497 32.1938 6.01386 31.1203 5.81087 30.0244C5.60277 28.8954 5.50918 27.7478 5.53118 26.6003ZM6.96652 26.6278C6.98668 25.5764 7.11228 24.5299 7.34229 23.504C7.56597 22.5097 7.88825 21.5395 8.30384 20.6084C9.12075 18.7782 10.284 17.1227 11.7292 15.7339C13.1724 14.3429 14.8712 13.244 16.7314 12.4979C17.6777 12.1183 18.6596 11.8334 19.6618 11.648C20.6957 11.4574 21.7462 11.3721 22.7976 11.3922C23.849 11.4124 24.8955 11.538 25.9213 11.768C26.9157 11.9916 27.8859 12.3139 28.817 12.7295C30.6471 13.5464 32.3027 14.7096 33.6914 16.1549C35.0824 17.598 36.1813 19.2969 36.9275 21.1571C37.3071 22.1034 37.592 23.0852 37.7774 24.0874C37.9679 25.1213 38.0533 26.1719 38.0331 27.2233C38.013 28.2747 37.8874 29.3212 37.6574 30.347C37.4337 31.3414 37.1114 32.3116 36.6958 33.2427C35.8789 35.0728 34.7157 36.7283 33.2704 38.1171C31.8273 39.5081 30.1284 40.607 28.2683 41.3532C27.322 41.7328 26.3401 42.0177 25.3379 42.203C24.304 42.3936 23.2535 42.479 22.2021 42.4588C21.1507 42.4387 20.1042 42.3131 19.0784 42.0831C18.084 41.8594 17.1138 41.5371 16.1827 41.1215C14.3525 40.3046 12.697 39.1414 11.3082 37.6961C9.91725 36.253 8.81835 34.5541 8.07217 32.694C7.69257 31.7476 7.40771 30.7658 7.22231 29.7636C7.03177 28.7297 6.94637 27.6792 6.96652 26.6278Z" fill="#2A4F57" style=""/>
    <g style="mix-blend-mode:color-burn">
      <path d="M13.0635 12.3604L14.206 16.2979L18.1834 17.5659L14.1603 18.6806L12.8677 22.5714L11.7252 18.6339L7.74784 17.3659L11.7709 16.2512L13.0635 12.3604Z" fill="#C6C6C6" style="stroke-width: 0px;"/>
      <path d="M13.0635 12.3604L14.206 16.2979L18.1834 17.5659L14.1603 18.6806L12.8677 22.5714L11.7252 18.6339L7.74784 17.3659L11.7709 16.2512L13.0635 12.3604Z" stroke="black" style="stroke-width: 0px;"/>
    </g>
    <g style="mix-blend-mode:color-burn">
      <path d="M22.5439 21.4099L23.6864 25.3474L27.6638 26.6154L23.6408 27.7301L22.3482 31.621L21.2057 27.6834L17.2283 26.4154L21.2514 25.3007L22.5439 21.4099Z" fill="#C6C6C6" style="stroke-width: 0px;"/>
      <path d="M22.5439 21.4099L23.6864 25.3474L27.6638 26.6154L23.6408 27.7301L22.3482 31.621L21.2057 27.6834L17.2283 26.4154L21.2514 25.3007L22.5439 21.4099Z" stroke="black" style="stroke-width: 0px;"/>
    </g>
    <g style="mix-blend-mode:color-burn">
      <path d="M32.8027 30.8112L33.9452 34.7487L37.9226 36.0168L33.8996 37.1314L32.607 41.0223L31.4645 37.0847L27.4871 35.8167L31.5101 34.702L32.8027 30.8112Z" fill="#C6C6C6" style="stroke-width: 0px;"/>
      <path d="M32.8027 30.8112L33.9452 34.7487L37.9226 36.0168L33.8996 37.1314L32.607 41.0223L31.4645 37.0847L27.4871 35.8167L31.5101 34.702L32.8027 30.8112Z" stroke="black" style="stroke-width: 0px;"/>
    </g>
  </g>
  <defs>
    <clipPath id="clip0_62_726">
      <rect width="45" height="51.5394" fill="white"/>
    </clipPath>
  </defs>
</svg>