<svg width="89" height="89" viewBox="0 0 89 89" fill="none" xmlns="http://www.w3.org/2000/svg">
<path d="M58.6236 32.0641L37.6848 53.0031L28.5226 43.8445C28.5138 43.8357 28.505 43.8269 28.4959 43.8181C27.7646 43.1015 26.5908 43.1132 25.8742 43.8445C25.1574 44.5761 25.1694 45.7499 25.9007 46.4664L36.3739 56.936C36.7211 57.2843 37.193 57.4799 37.6848 57.4792C38.1766 57.4796 38.6483 57.2843 38.9955 56.936L61.2455 34.686C61.2544 34.6771 61.2632 34.6685 61.272 34.6595C61.9886 33.9282 61.9768 32.7544 61.2455 32.0378C60.5142 31.321 59.3404 31.333 58.6236 32.0641ZM44.5003 7.41669C24.0198 7.41669 7.41699 24.0195 7.41699 44.5C7.41699 64.9805 24.0198 81.5833 44.5003 81.5833C64.9708 81.5593 81.5597 64.9705 81.5836 44.5C81.5836 24.0195 64.9808 7.41669 44.5003 7.41669ZM44.5003 77.875C26.0678 77.875 11.1253 62.9326 11.1253 44.5C11.1253 26.0674 26.0678 11.125 44.5003 11.125C62.9245 11.1452 77.8552 26.0758 77.8753 44.5C77.8753 62.9326 62.9329 77.875 44.5003 77.875Z" fill="#13D203"/>
</svg>
