<?xml version="1.0" encoding="utf-8"?>
<svg viewBox="0 0 32 32" xmlns="http://www.w3.org/2000/svg">
  <path d="M 23.074 11.963 L 9.074 11.963 C 8.522 11.963 8.074 12.398 8.074 12.934 L 6.445 27.288 C 6.668 29.242 8.731 29.49 9.39 29.219 L 16.074 26.618 L 22.462 28.849 C 23.77 29.345 25.826 28.992 25.704 25.954 L 24.074 12.934 C 24.074 12.398 23.626 11.963 23.074 11.963 Z" style="fill: rgb(255, 201, 0);"/>
  <circle cx="16" cy="12" r="11" style="fill: rgb(255, 201, 0);"/>
  <path d="M24.05,4.53A11,11,0,0,1,6.81,18,11,11,0,1,0,24.05,4.53Z" style="fill: rgb(255, 201, 0);"/>
  <circle cx="16" cy="12" r="7.33" style="fill-rule: evenodd; fill: rgb(249, 234, 101);" transform="matrix(1.421193, 0, 0, 1.377513, -6.747884, -4.784747)"/>
  <path d="M 22.696 3.949 C 27.157 10.468 22.653 19.219 14.583 19.699 C 11.917 19.858 9.289 19.029 7.235 17.38 C 11.699 23.899 21.785 23.3 25.393 16.301 C 27.567 12.077 26.449 6.961 22.696 3.949 Z" style="fill: rgb(255, 215, 3);"/>
  <path d="M 14.294001426696777 10.448000686645507 L 14.294001426696777 8.576000686645507 L 17.34500142669678 8.576000686645507 L 17.34500142669678 15.155000686645508 L 15.248001426696778 15.155000686645508 L 15.248001426696778 10.448000686645507 Z" transform="matrix(1, 0, 0, 1, 0, 0)" style="fill: rgb(247, 150, 0); white-space: pre;"/>
  <text style="white-space: pre; fill: rgb(51, 51, 51); font-family: Arial, sans-serif; font-size: 1.4px;" x="22.947" y="10.376"> </text>
</svg>