<svg width="50" height="50" viewBox="0 0 50 50" fill="none" xmlns="http://www.w3.org/2000/svg">
<path d="M36.0531 18.6922H14.1781C13.3156 18.6922 12.6156 19.3719 12.6156 20.2094L10.0703 42.6375C10.4188 45.6906 13.6422 46.0781 14.6719 45.6547L25.1156 41.5906L35.0969 45.0766C37.1406 45.8516 40.3531 45.3 40.1625 40.5531L37.6156 20.2094C37.6156 19.3719 36.9156 18.6922 36.0531 18.6922Z" fill="#AAC1D3"/>
<path d="M25 35.9375C34.4924 35.9375 42.1875 28.2424 42.1875 18.75C42.1875 9.25761 34.4924 1.5625 25 1.5625C15.5076 1.5625 7.8125 9.25761 7.8125 18.75C7.8125 28.2424 15.5076 35.9375 25 35.9375Z" fill="#AAC1D3"/>
<path d="M37.5781 7.07812C39.8262 10.6799 40.6616 14.9863 39.9234 19.1674C39.1851 23.3485 36.9254 27.1084 33.5797 29.7224C30.234 32.3365 26.0392 33.6197 21.8037 33.3247C17.5681 33.0298 13.5917 31.1775 10.6406 28.125C11.9164 30.1689 13.6076 31.9218 15.6046 33.2699C17.6016 34.6179 19.8597 35.5311 22.2324 35.95C24.6051 36.369 27.0394 36.2844 29.3773 35.7018C31.7152 35.1191 33.9044 34.0515 35.803 32.5681C37.7016 31.0846 39.2671 29.2186 40.398 27.0911C41.5288 24.9635 42.1996 22.622 42.367 20.2184C42.5344 17.8148 42.1946 15.4029 41.3696 13.1391C40.5445 10.8754 39.2528 8.81038 37.5781 7.07812V7.07812Z" fill="#AAC1D3"/>
<path d="M24.9861 34.129C33.9757 34.129 41.2632 27.0655 41.2632 18.3522C41.2632 9.6389 33.9757 2.57538 24.9861 2.57538C15.9965 2.57538 8.70898 9.6389 8.70898 18.3522C8.70898 27.0655 15.9965 34.129 24.9861 34.129Z" fill="#D7E3EF"/>
<path d="M35.4625 6.17032C42.4328 16.3563 35.3953 30.0297 22.7859 30.7797C18.6203 31.0281 14.5141 29.7328 11.3047 27.1563C18.2797 37.3422 34.0391 36.4063 39.6766 25.4703C43.0734 18.8703 41.3266 10.8766 35.4625 6.17032Z" fill="#C1D1E0"/>
<path d="M21.4143 21.1906C22.6705 20.2531 23.6643 19.4023 24.3955 18.6383C25.1268 17.8742 25.4924 17.1594 25.4924 16.4937C25.4924 16.2687 25.4432 16.0953 25.3447 15.9734C25.2463 15.8515 25.1174 15.7906 24.958 15.7906C24.7705 15.7906 24.6229 15.8867 24.515 16.0789C24.4072 16.2711 24.3674 16.564 24.3955 16.9578H21.3721C21.4002 16.0859 21.59 15.3687 21.9416 14.8062C22.2932 14.2437 22.7502 13.8312 23.3127 13.5687C23.8752 13.3062 24.4939 13.175 25.1689 13.175C26.3689 13.175 27.2478 13.4633 27.8057 14.0398C28.3635 14.6164 28.6424 15.3547 28.6424 16.2547C28.6424 17.2015 28.34 18.0898 27.7353 18.9195C27.1307 19.7492 26.3736 20.45 25.4643 21.0219H28.6846V23.539H21.4143V21.1906Z" fill="#92A6B6"/>
</svg>
