<?xml version="1.0" encoding="utf-8"?>
<svg viewBox="0 0 32 32" xmlns="http://www.w3.org/2000/svg">
  <path d="M 23.074 11.963 L 9.074 11.963 C 8.522 11.963 8.074 12.398 8.074 12.934 L 6.445 27.288 C 6.668 29.242 8.731 29.49 9.39 29.219 L 16.074 26.618 L 22.462 28.849 C 23.77 29.345 25.826 28.992 25.704 25.954 L 24.074 12.934 C 24.074 12.398 23.626 11.963 23.074 11.963 Z" style="fill: rgb(217, 151, 91);"/>
  <circle cx="16" cy="12" r="11" style="fill: rgb(217, 151, 91);"/>
  <path d="M24.05,4.53A11,11,0,0,1,6.81,18,11,11,0,1,0,24.05,4.53Z" style="fill: rgb(217, 151, 91);"/>
  <circle cx="16" cy="12" r="7.33" style="fill-rule: evenodd; fill: rgb(245, 186, 142);" transform="matrix(1.421193, 0, 0, 1.377513, -6.747884, -4.784747)"/>
  <path d="M 22.8 3.983 C 27.261 10.502 22.757 19.253 14.687 19.733 C 12.021 19.892 9.393 19.063 7.339 17.414 C 11.803 23.933 21.889 23.334 25.497 16.335 C 27.671 12.111 26.553 6.995 22.8 3.983 Z" style="fill: rgb(230, 174, 125);"/>
  <path d="M 13.637001304626464 10.637000686645507 Q 13.664001304626465 9.566000686645507 14.262501304626465 8.999000686645507 Q 14.861001304626464 8.432000686645507 15.959001304626465 8.432000686645507 Q 16.670001304626467 8.432000686645507 17.174001304626465 8.675000686645507 Q 17.678001304626466 8.918000686645506 17.934501304626465 9.332000686645507 Q 18.191001304626464 9.746000686645507 18.191001304626464 10.268000686645507 Q 18.191001304626464 10.898000686645506 17.894001304626464 11.253500686645507 Q 17.597001304626467 11.609000686645508 17.228001304626467 11.735000686645508 L 17.228001304626467 11.771000686645507 Q 18.308001304626465 12.176000686645507 18.308001304626465 13.274000686645508 Q 18.308001304626465 13.850000686645508 18.038001304626466 14.291000686645507 Q 17.768001304626466 14.732000686645508 17.268501304626465 14.975000686645508 Q 16.769001304626464 15.218000686645508 16.085001304626466 15.218000686645508 Q 14.915001304626465 15.218000686645508 14.249001304626464 14.660000686645509 Q 13.583001304626466 14.102000686645507 13.565001304626465 12.914000686645508 L 15.509001304626466 12.914000686645508 Q 15.491001304626465 13.238000686645508 15.603501304626466 13.404500686645507 Q 15.716001304626465 13.571000686645508 15.995001304626465 13.571000686645508 Q 16.157001304626466 13.571000686645508 16.265001304626466 13.449500686645507 Q 16.373001304626467 13.328000686645508 16.373001304626467 13.130000686645507 Q 16.373001304626467 12.878000686645507 16.206501304626464 12.747500686645507 Q 16.040001304626465 12.617000686645508 15.644001304626466 12.617000686645508 L 15.311001304626465 12.617000686645508 L 15.311001304626465 11.006000686645507 L 15.635001304626465 11.006000686645507 Q 16.247001304626465 11.042000686645508 16.247001304626465 10.520000686645506 Q 16.247001304626465 10.295000686645508 16.152501304626465 10.187000686645508 Q 16.058001304626465 10.079000686645507 15.914001304626465 10.079000686645507 Q 15.581001304626465 10.079000686645507 15.581001304626465 10.637000686645507 L 13.637001304626464 10.637000686645507 Z" transform="matrix(1, 0, 0, 1, 0, 0)" style="fill: rgb(205, 127, 31); white-space: pre;"/>
  <text style="white-space: pre; fill: rgb(51, 51, 51); font-family: Arial, sans-serif; font-size: 1.4px;" x="22.947" y="10.376"> </text>
</svg>