<?xml version="1.0" encoding="utf-8"?>
<svg viewBox="381 383.146 1030 1025.709" width="1030px" height="1025.709px" xmlns="http://www.w3.org/2000/svg">
  <g transform="matrix(0.860639, 0, 0, 0.860639, 124.874887, 120.915522)">
    <title>Woo</title>
    <path style="fill: rgb(207, 156, 109); stroke-miterlimit: 10; stroke-linejoin: round; stroke-linecap: round; paint-order: fill markers; stroke: rgb(229, 174, 124); stroke-width: 0px;" d="M 308.283 326.495 H 1483.717 V 907.001 A 580.506 580.506 0 0 1 903.211 1487.507 H 888.789 A 580.506 580.506 0 0 1 308.283 907.001 V 326.495 Z" transform="matrix(0.999828, -0.018549, 0.018549, 0.999828, -16.687088, 14.958542)">
      <title>Background</title>
    </path>
    <path style="stroke-miterlimit: 10; stroke-linejoin: round; stroke-linecap: round; fill-rule: evenodd; paint-order: stroke; stroke-width: 50px; stroke: rgb(229, 175, 124); fill: none;" d="M 308.283 326.495 H 1483.717 V 907.001 A 580.506 580.506 0 0 1 903.211 1487.507 H 888.789 A 580.506 580.506 0 0 1 308.283 907.001 V 326.495 Z" transform="matrix(0.999828, -0.018549, 0.018549, 0.999828, -16.669916, 5.774896)">
      <title>Outline</title>
    </path>
  </g>
  <g transform="matrix(1.537388, 0, 0, 1.537388, -869.318006, -427.706366)">
    <title>Ball</title>
    <path d="M 1252.623 897.567 L 1153.481 939.917 L 1082.567 858.714 L 1137.883 766.178 L 1242.983 790.191 L 1252.623 897.567 Z M 1053.172 1068.931 L 1040.107 1033.003 L 1129.927 1026.471 L 1191.105 1065.665 L 1159.323 1088.528 M 930.69 931.751 L 973.15 961.147 L 991.114 874.593 L 955.186 792.938 L 919.258 830.499 M 1013.977 675.356 L 1007.445 711.284 L 1093.999 691.687 L 1154.423 649.226 L 1148.331 633.492 M 1278.539 673.723 L 1249.143 672.089 L 1291.603 739.046 L 1353.661 786.406 L 1353.661 755.377 M 1368.359 920.32 L 1363.459 886.025 L 1314.467 941.55 L 1286.704 1021.571 L 1314.467 1021.571" style="fill: rgb(158, 94, 33);"/>
    <path d="M 1133.298 1027.39 L 1132.378 1030.77 L 1125.628 1028.92 L 1126.548 1025.55 L 1153.248 927.98 L 1154.168 924.6 L 1160.918 926.45 L 1159.998 929.83 L 1133.298 1027.39 Z M 1055.758 1044.71 L 1058.118 1047.3 L 1052.938 1052.01 L 1050.578 1049.42 L 956.058 945.54 L 953.698 942.95 L 958.878 938.24 L 961.238 940.83 L 1055.758 1044.71 Z M 1081.968 855.27 L 1085.418 854.67 L 1086.618 861.56 L 1083.168 862.16 L 991.708 878.04 L 988.268 878.64 L 987.068 871.74 L 990.518 871.14 L 1081.968 855.27 Z M 1316.548 940.37 L 1319.358 942.44 L 1315.208 948.08 L 1312.388 946 L 1250.548 900.38 L 1247.728 898.31 L 1251.888 892.67 L 1254.698 894.75 L 1316.548 940.37 Z M 1299.318 1012.76 L 1302.528 1011.37 L 1305.298 1017.8 L 1302.088 1019.18 L 1187.038 1068.88 L 1183.818 1070.27 L 1181.048 1063.84 L 1184.258 1062.45 L 1299.318 1012.76 Z M 1266.318 674.67 L 1269.708 675.52 L 1267.998 682.31 L 1264.608 681.46 L 1137.028 649.32 L 1133.638 648.47 L 1135.348 641.68 L 1138.738 642.54 L 1266.318 674.67 Z M 1140.898 764.4 L 1142.678 767.42 L 1136.648 770.97 L 1134.868 767.95 L 1090.988 693.46 L 1089.208 690.45 L 1095.238 686.89 L 1097.018 689.91 L 1140.898 764.4 Z M 1289.068 736.63 L 1291.478 734.1 L 1296.548 738.92 L 1294.138 741.46 L 1245.518 792.6 L 1243.108 795.14 L 1238.038 790.32 L 1240.448 787.78 L 1289.068 736.63 Z M 953.338 806.35 L 951.498 809.33 L 945.538 805.67 L 947.378 802.68 L 1013.708 694.89 L 1015.548 691.9 L 1021.508 695.57 L 1019.668 698.55 L 953.338 806.35 Z" style="fill: rgb(158, 94, 33);"/>
    <path fill-rule="evenodd" d="M 911.818 861.01 C 911.818 845.02 913.428 829.07 916.628 813.4 C 919.748 798.18 924.368 783.31 930.418 769.01 C 942.318 740.93 959.528 715.41 981.098 693.85 C 1002.658 672.28 1028.178 655.07 1056.258 643.17 C 1070.558 637.12 1085.428 632.5 1100.638 629.38 C 1116.308 626.18 1132.268 624.57 1148.258 624.57 C 1164.248 624.57 1180.208 626.18 1195.878 629.38 C 1211.088 632.5 1225.958 637.12 1240.258 643.17 C 1268.338 655.07 1293.858 672.28 1315.418 693.85 C 1336.988 715.41 1354.198 740.93 1366.098 769.01 C 1372.148 783.31 1376.768 798.18 1379.888 813.39 C 1383.088 829.06 1384.698 845.02 1384.698 861.01 C 1384.698 877 1383.088 892.96 1379.888 908.63 C 1376.768 923.84 1372.148 938.71 1366.098 953.01 C 1354.198 981.09 1336.988 1006.61 1315.418 1028.17 C 1293.858 1049.74 1268.338 1066.95 1240.258 1078.85 C 1225.958 1084.9 1211.088 1089.52 1195.878 1092.64 C 1180.208 1095.84 1164.248 1097.45 1148.258 1097.45 C 1132.268 1097.45 1116.308 1095.84 1100.638 1092.64 C 1085.428 1089.52 1070.558 1084.9 1056.258 1078.85 C 1028.178 1066.95 1002.658 1049.74 981.098 1028.17 C 959.528 1006.61 942.318 981.09 930.418 953.01 C 924.368 938.71 919.748 923.84 916.628 908.63 C 913.428 892.96 911.818 877 911.818 861.01 Z M 931.818 861.01 C 931.818 846.36 933.288 831.75 936.218 817.4 C 939.068 803.49 943.298 789.89 948.838 776.81 C 959.728 751.1 975.488 727.73 995.248 708 C 1014.978 688.24 1038.348 672.48 1064.058 661.59 C 1077.138 656.05 1090.738 651.82 1104.648 648.97 C 1118.998 646.04 1133.608 644.57 1148.258 644.57 C 1162.908 644.57 1177.518 646.04 1191.868 648.97 C 1205.778 651.82 1219.378 656.05 1232.458 661.59 C 1258.168 672.48 1281.538 688.24 1301.268 708 C 1321.028 727.73 1336.788 751.1 1347.678 776.81 C 1353.218 789.89 1357.448 803.49 1360.298 817.4 C 1363.228 831.75 1364.698 846.36 1364.698 861.01 C 1364.698 875.66 1363.228 890.27 1360.298 904.62 C 1357.448 918.53 1353.218 932.13 1347.678 945.21 C 1336.788 970.92 1321.028 994.29 1301.268 1014.02 C 1281.538 1033.78 1258.168 1049.54 1232.458 1060.43 C 1219.378 1065.97 1205.778 1070.2 1191.868 1073.05 C 1177.518 1075.98 1162.908 1077.45 1148.258 1077.45 C 1133.608 1077.45 1118.998 1075.98 1104.648 1073.05 C 1090.738 1070.2 1077.138 1065.97 1064.058 1060.43 C 1038.348 1049.54 1014.978 1033.78 995.248 1014.02 C 975.488 994.29 959.728 970.92 948.838 945.21 C 943.298 932.13 939.068 918.53 936.218 904.62 C 933.288 890.27 931.818 875.66 931.818 861.01 Z" style="fill: rgb(158, 94, 33);"/>
  </g>
  <path d="M 536.501 436.347 L 562.583 520.196 L 648.275 545.717 L 562.583 571.238 L 536.501 655.087 L 510.419 571.238 L 424.727 545.717 L 510.419 520.196 Z" style="stroke: rgb(0, 0, 0); stroke-width: 0px; fill: rgb(198, 198, 198); mix-blend-mode: color-burn;"/>
  <path d="M 761.253 649.079 L 787.335 732.928 L 873.027 758.449 L 787.335 783.97 L 761.253 867.819 L 735.171 783.97 L 649.479 758.449 L 735.171 732.928 Z" style="stroke: rgb(0, 0, 0); stroke-width: 0px; fill: rgb(198, 198, 198); mix-blend-mode: color-burn;"/>
  <path d="M 967.974 838.974 L 994.056 922.823 L 1079.748 948.344 L 994.056 973.865 L 967.974 1057.714 L 941.892 973.865 L 856.2 948.344 L 941.892 922.823 Z" style="stroke: rgb(0, 0, 0); stroke-width: 0px; fill: rgb(198, 198, 198); mix-blend-mode: color-burn;"/>
  <path d="M 1191.523 1036.082 L 1217.605 1119.931 L 1303.297 1145.452 L 1217.605 1170.973 L 1191.523 1254.822 L 1165.441 1170.973 L 1079.749 1145.452 L 1165.441 1119.931 Z" style="stroke: rgb(0, 0, 0); stroke-width: 0px; fill: rgb(198, 198, 198); mix-blend-mode: color-burn;"/>
</svg>