<svg width="64" height="44" viewBox="0 0 64 44" fill="none" xmlns="http://www.w3.org/2000/svg">
<path d="M20.44 26.12C21.29 26.12 22.15 26.11 22.98 26.08L23.24 26.07L23.17 25.82C22.7 24.05 22.46 22.2 22.46 20.32C22.46 19.06 22.57 17.83 22.77 16.66L22.81 16.43L22.57 16.42C21.9 16.4 21.19 16.39 20.43 16.39C8.74 16.39 0 18.96 0 21.26C0 23.55 8.74 26.12 20.44 26.12Z" fill="white"/>
<path d="M7.09 33.59C10.87 34.42 15.61 34.88 20.44 34.88C22.81 34.88 25.15 34.77 27.4 34.55L27.79 34.51L27.54 34.21C25.92 32.3 24.67 30.16 23.81 27.83L23.76 27.69L23.61 27.7C22.58 27.74 21.51 27.76 20.44 27.76C11.62 27.76 3.72 26.31 0.32 24.07L0 23.86V30.03C0 30.77 1.49 32.36 7.09 33.59Z" fill="white"/>
<path d="M29.3 36.07L29.23 36L29.13 36.01C26.43 36.34 23.51 36.51 20.44 36.51C15.46 36.51 10.6 36.04 6.74 35.18C4.8 34.76 2.12 34.01 0.32 32.85L0 32.65V38.78C0 40.81 7.78 43.63 20.44 43.63C27.36 43.63 33.58 42.77 37.51 41.27L38.06 41.06L37.5 40.88C34.46 39.93 31.63 38.27 29.3 36.07Z" fill="white"/>
<path d="M44.05 0.359985C33.05 0.359985 24.1 9.30998 24.1 20.32C24.1 31.32 33.05 40.27 44.05 40.27C55.05 40.27 64 31.32 64 20.32C64 9.31998 55.05 0.359985 44.05 0.359985ZM44.05 35.5C35.68 35.5 28.87 28.69 28.87 20.32C28.87 11.95 35.68 5.13999 44.05 5.13999C52.42 5.13999 59.23 11.95 59.23 20.32C59.23 28.69 52.42 35.5 44.05 35.5Z" fill="white"/>
<path d="M47.99 20.14C47.69 19.84 47.32 19.58 46.9 19.35C46.52 19.15 46.12 18.97 45.63 18.77C45.28 18.64 44.92 18.5 44.57 18.38C44.25 18.26 43.94 18.12 43.62 17.95C43.38 17.83 43.19 17.67 43.05 17.48C42.93 17.32 42.87 17.13 42.87 16.9C42.87 16.74 42.9 16.6 42.97 16.46C43.01 16.36 43.08 16.27 43.19 16.18C43.32 16.08 43.49 16 43.69 15.95C43.91 15.89 44.19 15.86 44.53 15.86C44.92 15.86 45.25 15.9 45.53 15.98C45.85 16.07 46.13 16.16 46.37 16.26C46.62 16.37 46.83 16.46 47 16.54C47.25 16.67 47.44 16.73 47.6 16.73C47.73 16.73 47.86 16.69 47.95 16.62C48.07 16.54 48.17 16.4 48.2 16.28C48.25 16.16 48.27 16.01 48.29 15.84C48.3 15.69 48.31 15.5 48.31 15.27C48.31 15.09 48.3 14.94 48.29 14.84C48.29 14.69 48.28 14.55 48.25 14.44C48.22 14.3 48.19 14.2 48.13 14.1C48.06 13.99 47.97 13.89 47.92 13.85C47.82 13.75 47.67 13.65 47.48 13.56C47.31 13.49 47.13 13.41 46.92 13.33C46.72 13.27 46.5 13.2 46.27 13.15C46.18 13.13 46.09 13.11 45.99 13.09L46.16 11.42C46.16 11.31 46.14 11.2 46.11 11.08C46.06 10.92 45.94 10.79 45.72 10.68C45.59 10.63 45.45 10.6 45.3 10.58C45.14 10.56 44.94 10.54 44.7 10.54C44.49 10.54 44.31 10.54 44.21 10.56C44.04 10.58 43.9 10.61 43.82 10.65C43.65 10.72 43.56 10.83 43.49 10.91C43.45 10.97 43.38 11.1 43.38 11.23L43.2 13.05C42.66 13.13 42.18 13.27 41.77 13.44C41.25 13.65 40.79 13.95 40.4 14.32C40.03 14.69 39.74 15.12 39.55 15.59C39.35 16.07 39.25 16.6 39.25 17.2C39.25 17.85 39.35 18.41 39.54 18.85C39.73 19.31 39.99 19.71 40.32 20.04C40.63 20.35 40.99 20.62 41.4 20.85C41.78 21.06 42.17 21.24 42.56 21.38C42.95 21.54 43.33 21.68 43.69 21.81C44.02 21.93 44.33 22.07 44.62 22.24C44.86 22.37 45.04 22.52 45.19 22.71C45.31 22.86 45.36 23.05 45.36 23.3C45.36 23.69 45.22 23.98 44.91 24.21C44.58 24.46 44.05 24.59 43.31 24.59C42.8 24.59 42.38 24.54 42.03 24.44C41.69 24.35 41.38 24.24 41.09 24.11C40.83 23.99 40.62 23.88 40.45 23.78C40.12 23.58 39.94 23.56 39.84 23.56C39.71 23.56 39.58 23.59 39.44 23.67C39.29 23.76 39.21 23.9 39.14 24.05C39.1 24.17 39.07 24.31 39.04 24.52C39.03 24.68 39.02 24.9 39.02 25.14C39.02 25.47 39.04 25.74 39.08 25.95C39.14 26.19 39.23 26.37 39.36 26.5C39.46 26.6 39.6 26.7 39.83 26.83C39.99 26.92 40.21 27.01 40.44 27.1C40.67 27.19 40.93 27.26 41.22 27.34C41.39 27.38 41.56 27.41 41.73 27.45L41.56 29.16C41.52 29.31 41.53 29.46 41.6 29.66C41.67 29.79 41.78 29.9 41.93 30C42.06 30.06 42.2 30.1 42.38 30.13C42.53 30.15 42.73 30.17 42.99 30.17C43.19 30.17 43.37 30.16 43.5 30.13C43.67 30.1 43.77 30.07 43.81 30.05C43.98 30 44.13 29.89 44.16 29.8C44.24 29.69 44.27 29.57 44.29 29.45L44.48 27.5C45.07 27.42 45.62 27.29 46.11 27.11C46.7 26.88 47.22 26.58 47.67 26.18C48.11 25.78 48.46 25.31 48.69 24.77C48.93 24.25 49.04 23.64 49.04 22.96C49.04 22.31 48.94 21.77 48.74 21.32C48.58 20.86 48.31 20.47 47.99 20.14Z" fill="white"/>
</svg>
