<svg width="45" height="29" viewBox="0 0 45 29" fill="none" xmlns="http://www.w3.org/2000/svg">
<path d="M13.747 14.5L0 23.4506V5.54937L13.747 14.5ZM31.253 14.5L45 23.4506V5.54937L31.253 14.5ZM29.2445 15.8116L23.0982 19.8122C22.9171 19.9274 22.7085 19.9878 22.5 19.9878C22.2915 19.9878 22.0829 19.9274 21.9018 19.8122L15.7555 15.8116L0.910976 25.4756L0.0493903 26.0353C0.318293 27.5829 1.66829 28.7683 3.29268 28.7683H41.7073C43.3317 28.7683 44.6817 27.5884 44.9506 26.0353L44.0835 25.4756L29.2445 15.8116ZM22.5 17.5786L44.0835 3.52437L44.9506 2.96462C44.6817 1.41157 43.3317 0.231689 41.7073 0.231689H3.29268C1.66829 0.231689 0.318293 1.41706 0.0493903 2.96462L0.910976 3.52437L22.5 17.5786Z" fill="#FFA400"/>
</svg>
