<?xml version="1.0" encoding="utf-8"?>
<svg width="45" height="48" viewBox="0 0 45 48" fill="none" xmlns="http://www.w3.org/2000/svg">
  <g clip-path="url(#clip0_62_656)">
    <path d="M 20.113 3.109 C 21.704 2.333 23.296 2.333 24.887 3.109 L 37.797 9.403 C 39.388 10.179 40.381 11.438 40.774 13.181 L 43.962 27.323 C 44.355 29.067 44.001 30.638 42.9 32.036 L 33.966 43.377 C 32.864 44.775 31.43 45.474 29.664 45.474 L 15.336 45.474 C 13.569 45.474 12.135 44.775 11.034 43.377 L 2.1 32.035 C 0.999 30.638 0.645 29.066 1.038 27.322 L 4.226 13.181 C 4.619 11.438 5.612 10.179 7.203 9.403 L 20.113 3.109 Z" fill="#BD6AD2" stroke="black" stroke-width="0.0414155" style=""/>
    <path d="M 20.232 3.713 C 21.778 2.957 23.324 2.957 24.871 3.713 L 37.412 9.838 C 38.958 10.593 39.922 11.819 40.304 13.515 L 43.402 27.278 C 43.784 28.975 43.439 30.504 42.369 31.863 L 33.69 42.901 C 32.62 44.261 31.227 44.941 29.511 44.941 L 15.591 44.941 C 13.874 44.941 12.481 44.261 11.411 42.901 L 2.732 31.863 C 1.662 30.503 1.318 28.975 1.7 27.277 L 4.798 13.515 C 5.18 11.819 6.144 10.593 7.69 9.838 L 20.232 3.713 Z" fill="#BD6AD2" stroke="#E5CAF2" stroke-width="1.5399" stroke-linecap="round" stroke-linejoin="round" style=""/>
    <path d="M29.2644 27.3022L22.7421 29.9416L18.2163 24.554L21.9417 18.585L28.7698 20.2835L29.2644 27.3022ZM16.035 38.2346L15.2275 35.8738L21.0967 35.56L25.0397 38.1941L22.9372 39.6462L16.035 38.2346ZM8.21441 29.1298L10.9483 31.1011L12.2288 25.4757L9.98662 20.1024L7.59518 22.5085L8.21441 29.1298ZM13.9701 12.5034L13.4989 14.8397L19.1714 13.6692L23.1674 10.9742L22.7896 9.93983L13.9701 12.5034ZM31.2357 12.728L29.3196 12.5846L32.0064 17.0069L35.9966 20.175L36.0355 18.1503L31.2357 12.728ZM36.7881 28.9318L36.5113 26.6878L33.2449 30.2496L31.3331 35.4365L33.1447 35.4713" fill="#644A8E"/>
    <path d="M21.315 35.6242L21.2508 35.8436L20.8126 35.7144L20.8769 35.4957L22.7413 29.1623L22.8055 28.9429L23.2437 29.0721L23.1794 29.2915L21.315 35.6242ZM16.2336 36.6573L16.3844 36.8293L16.0405 37.1302L15.8897 36.9582L9.85198 30.0613L9.70123 29.8894L10.0451 29.5885L10.1959 29.7605L16.2336 36.6573ZM18.181 24.3285L18.4069 24.2937L18.4766 24.7448L18.2507 24.7796L12.2628 25.7014L12.0375 25.7362L11.9679 25.2845L12.1938 25.2496L18.181 24.3285ZM33.3817 30.1753L33.5624 30.3138L33.2846 30.6767L33.1031 30.5374L29.125 27.4832L28.9436 27.3445L29.2221 26.9817L29.4028 27.121L33.3817 30.1753ZM32.1667 34.8774L32.3779 34.7907L32.5506 35.2137L32.3394 35.2998L24.7698 38.3988L24.558 38.4855L24.3853 38.0625L24.5965 37.9758L32.1667 34.8774ZM30.4366 12.7745L30.6567 12.8343L30.5367 13.2752L30.3165 13.2155L22.0317 10.9585L21.8116 10.8988L21.9316 10.4579L22.1518 10.5182L30.4366 12.7745ZM22.1402 18.4727L22.2525 18.672L21.8546 18.8961L21.7423 18.6968L18.9722 13.7812L18.8598 13.5825L19.2577 13.3578L19.3701 13.5571L22.1402 18.4727ZM31.8435 16.8461L32.004 16.684L32.3288 17.0049L32.1683 17.1676L28.9317 20.4438L28.7712 20.6066L28.4464 20.2857L28.6069 20.123L31.8435 16.8461ZM9.84874 20.9753L9.72494 21.1675L9.34061 20.9212L9.46442 20.7284L13.9276 13.7777L14.0514 13.5849L14.4357 13.8319L14.3119 14.024L9.84874 20.9753Z" fill="#644A8E"/>
    <path fill-rule="evenodd" clip-rule="evenodd" d="M7.07121 24.4901C7.09122 23.4467 7.21625 22.4079 7.44467 21.3894C7.66732 20.4002 7.98741 19.4356 8.40009 18.5101C9.21176 16.6926 10.3667 15.0489 11.8012 13.6691C13.2351 12.2885 14.9219 11.1975 16.7691 10.4561C17.7098 10.0792 18.6859 9.79637 19.6823 9.61182C20.7088 9.42263 21.7523 9.33755 22.7957 9.35757C23.8391 9.37758 24.8785 9.50262 25.897 9.73105C26.8856 9.95368 27.8502 10.2738 28.7757 10.6864C30.5932 11.4981 32.2369 12.6531 33.6167 14.0876C34.9973 15.5214 36.0883 17.2082 36.8297 19.0555C37.2066 19.9962 37.4894 20.9723 37.674 21.9687C37.8632 22.9952 37.9482 24.0387 37.9282 25.0821C37.9082 26.1255 37.7832 27.1649 37.5547 28.1834C37.3321 29.172 37.012 30.1365 36.5994 31.0621C35.7877 32.8795 34.6327 34.5232 33.1982 35.9031C31.7644 37.2836 30.0776 38.3747 28.2303 39.116C27.2896 39.4929 26.3135 39.7758 25.3171 39.9603C24.2906 40.1495 23.2471 40.2346 22.2037 40.2146C21.1603 40.1946 20.1209 40.0695 19.1024 39.8411C18.1138 39.6185 17.1493 39.2984 16.2237 38.8857C14.4063 38.074 12.7626 36.9191 11.3827 35.4846C10.0022 34.0507 8.91112 32.3639 8.16975 30.5167C7.79287 29.576 7.51001 28.5999 7.32546 27.6035C7.13627 26.577 7.05119 25.5335 7.07121 24.4901ZM8.37627 24.5151C8.39461 23.5592 8.50883 22.6077 8.71798 21.6749C8.92137 20.7708 9.21441 19.8887 9.59229 19.0421C10.3351 17.3781 11.3927 15.8728 12.7068 14.6101C14.019 13.3454 15.5637 12.3463 17.255 11.6678C18.1155 11.3227 19.0082 11.0637 19.9195 10.8952C20.8595 10.7219 21.8147 10.6443 22.7707 10.6626C23.7266 10.681 24.6781 10.7952 25.6109 11.0043C26.515 11.2077 27.3971 11.5008 28.2437 11.8787C29.9077 12.6214 31.413 13.6791 32.6757 14.9932C33.9404 16.3054 34.9395 17.8501 35.618 19.5414C35.9631 20.4018 36.2221 21.2946 36.3906 22.2058C36.5639 23.1459 36.6415 24.1011 36.6232 25.057C36.6048 26.013 36.4906 26.9645 36.2815 27.8972C36.0781 28.8013 35.785 29.6835 35.4071 30.5301C34.6644 32.1941 33.6067 33.6993 32.2926 34.962C30.9804 36.2267 29.4357 37.2259 27.7444 37.9043C26.884 38.2494 25.9912 38.5084 25.08 38.677C24.1399 38.8502 23.1847 38.9279 22.2288 38.9095C21.2728 38.8912 20.3213 38.777 19.3886 38.5678C18.4845 38.3644 17.6023 38.0714 16.7557 37.6935C15.0917 36.9507 13.5865 35.8931 12.3238 34.579C11.059 33.2668 10.0599 31.7221 9.38149 30.0308C9.03636 29.1703 8.77736 28.2776 8.6088 27.3663C8.43557 26.4263 8.35794 25.4711 8.37627 24.5151Z" fill="#644A8E"/>
    <g style="mix-blend-mode:color-burn">
      <path d="M12.378 11.039L13.4167 14.6192L17.0331 15.7722L13.3752 16.7856L12.1999 20.3233L11.1611 16.7431L7.54473 15.5901L11.2027 14.5767L12.378 11.039Z" fill="#C6C6C6" style="stroke-width: 0px;"/>
      <path d="M12.378 11.039L13.4167 14.6192L17.0331 15.7722L13.3752 16.7856L12.1999 20.3233L11.1611 16.7431L7.54473 15.5901L11.2027 14.5767L12.378 11.039Z" stroke="black" style="stroke-width: 0px;"/>
    </g>
    <g style="mix-blend-mode:color-burn">
      <path d="M32.2764 31.2438L33.3152 34.824L36.9315 35.977L33.2736 36.9904L32.0983 40.5281L31.0595 36.9479L27.4432 35.7949L31.1011 34.7815L32.2764 31.2438Z" fill="#C6C6C6" style="stroke-width: 0px;"/>
      <path d="M32.2764 31.2438L33.3152 34.824L36.9315 35.977L33.2736 36.9904L32.0983 40.5281L31.0595 36.9479L27.4432 35.7949L31.1011 34.7815L32.2764 31.2438Z" stroke="black" style="stroke-width: 0px;"/>
    </g>
    <g style="mix-blend-mode:color-burn">
      <path d="M22.2764 21.3455L23.3152 24.9257L26.9315 26.0786L23.2736 27.0921L22.0983 30.6298L21.0595 27.0496L17.4432 25.8966L21.1011 24.8832L22.2764 21.3455Z" fill="#C6C6C6" style="stroke-width: 0px;"/>
      <path d="M22.2764 21.3455L23.3152 24.9257L26.9315 26.0786L23.2736 27.0921L22.0983 30.6298L21.0595 27.0496L17.4432 25.8966L21.1011 24.8832L22.2764 21.3455Z" stroke="black" style="stroke-width: 0px;"/>
    </g>
  </g>
  <defs>
    <clipPath id="clip0_62_656">
      <rect width="45" height="47.7065" fill="white"/>
    </clipPath>
  </defs>
</svg>