<svg width="154" height="80" viewBox="0 0 154 80" fill="none" xmlns="http://www.w3.org/2000/svg">
<path d="M95.4165 13.3701L117.301 2.55337C120.629 0.923327 124.284 0.072892 127.989 0.0666213L134.169 0.0604939C134.97 0.0586619 135.74 0.370496 136.313 0.929194C136.887 1.48789 137.219 2.24901 137.238 3.04949L137.373 8.54362C137.383 8.94908 137.313 9.35258 137.166 9.73063C137.019 10.1087 136.799 10.4537 136.517 10.7456C136.235 11.0374 135.898 11.2704 135.526 11.4307C135.153 11.5911 134.753 11.6757 134.347 11.6796L131.395 11.7164C128.516 11.7531 125.686 12.4636 123.132 13.7927L102.577 24.4564L95.4165 13.3701Z" fill="#B0C4DA"/>
<path d="M134.347 7.07976L131.309 7.11651C128.458 7.15326 125.656 7.8648 123.132 9.19288L112.781 14.6441C111.427 15.3574 109.855 15.538 108.374 15.1503C106.894 14.7626 105.612 13.8348 104.782 12.5494L102.913 9.65226L95.4165 13.3701L102.577 24.4502L123.157 13.7744C125.704 12.4525 128.525 11.7456 131.395 11.7103L134.347 11.6735C134.752 11.6688 135.153 11.5836 135.525 11.4229C135.897 11.2623 136.234 11.0294 136.515 10.7376C136.797 10.4459 137.017 10.1012 137.164 9.72357C137.312 9.34589 137.382 8.94275 137.373 8.53751L137.275 4.50726C137.168 5.21229 136.816 5.85701 136.28 6.32767C135.745 6.79833 135.06 7.06468 134.347 7.07976Z" fill="#99B5CE"/>
<path d="M0.828125 66.333L23.705 51.5472L30.3567 61.8372L7.47375 76.623" fill="#617E95"/>
<path d="M13.3231 58.2602L23.705 51.5472L30.3567 61.8372L19.9749 68.5441" fill="#4C6D86"/>
<path d="M25.2363 65.206L18.5845 54.916C18.1457 54.2369 17.8457 53.4777 17.7018 52.6821C17.5579 51.8865 17.5729 51.0702 17.746 50.2805C17.9191 49.4907 18.2468 48.743 18.7103 48.0805C19.1738 47.4181 19.7639 46.8539 20.4465 46.4206L30.3506 40.1364L43.648 60.7103L33.6581 67.0496C32.2952 67.9159 30.645 68.2083 29.0674 67.8629C27.4898 67.5176 26.1126 66.5625 25.2363 65.206Z" fill="#4C6D86"/>
<path d="M30.3568 40.1364L30.3078 40.167L39.777 54.818L29.7871 61.1574C28.4707 61.9868 26.8868 62.2808 25.3604 61.9789C23.8341 61.6771 22.4812 60.8023 21.5796 59.5342L25.2424 65.206C26.1189 66.564 27.4967 67.5204 29.0754 67.8669C30.6541 68.2134 32.3057 67.9218 33.6704 67.0558L43.6603 60.7164L30.3568 40.1364Z" fill="#41667D"/>
<path d="M140.797 26.741C146.67 37.5394 153.047 42.6415 153.047 49.4096C153.047 52.6585 151.756 55.7744 149.459 58.0717C147.161 60.369 144.046 61.6596 140.797 61.6596C137.548 61.6596 134.432 60.369 132.135 58.0717C129.837 55.7744 128.547 52.6585 128.547 49.4096C128.547 42.6415 134.923 37.5394 140.797 26.741Z" fill="#90CFF1"/>
<path d="M140.797 26.741C139.774 28.6153 138.751 30.2751 137.734 31.8431C142.561 39.3156 146.922 43.8175 146.922 49.4096C146.922 55.112 143.008 59.8589 137.734 61.2247C138.72 61.482 139.731 61.6596 140.797 61.6596C147.565 61.6596 153.047 56.1777 153.047 49.4096C153.047 42.6415 146.67 37.5394 140.797 26.741Z" fill="#72B7E5"/>
<path d="M107.734 23.5866L97.5051 7.75348C96.9575 6.9064 96.2092 6.20768 95.3266 5.71937C94.444 5.23106 93.4545 4.96827 92.4459 4.95436L81.0595 4.79511C76.2237 4.72799 71.476 6.09179 67.413 8.71511L27.3494 34.6116C26.6736 35.0482 26.0905 35.6137 25.6333 36.2758C25.1761 36.9379 24.8538 37.6835 24.6849 38.4702C24.516 39.2568 24.5037 40.069 24.6487 40.8604C24.7938 41.6518 25.0933 42.4069 25.5303 43.0825L45.4794 73.9464C47.243 76.6743 50.0179 78.5901 53.1938 79.2724C56.3698 79.9547 59.6866 79.3476 62.415 77.5846L93.2789 57.6355C96.0068 55.8719 97.9226 53.097 98.6049 49.9211C99.2872 46.7451 98.6801 43.4282 96.9171 40.6999L93.5913 35.5549L104.12 32.8415C105.06 32.599 105.928 32.1369 106.654 31.4931C107.38 30.8494 107.942 30.0424 108.295 29.1387C108.648 28.2349 108.781 27.2603 108.683 26.295C108.586 25.3298 108.26 24.4015 107.734 23.5866ZM57.4231 69.8671L52.4374 62.1496C52.0004 61.474 51.7009 60.719 51.5558 59.9276C51.4108 59.1362 51.4231 58.324 51.592 57.5373C51.761 56.7507 52.0832 56.005 52.5404 55.3429C52.9976 54.6809 53.5807 54.1154 54.2565 53.6787L69.6854 43.7011C70.361 43.2642 71.116 42.9646 71.9074 42.8196C72.6988 42.6745 73.511 42.6868 74.2977 42.8557C75.0843 43.0247 75.83 43.3469 76.4921 43.8041C77.1541 44.2613 77.7196 44.8445 78.1563 45.5202L83.142 53.2377C83.5825 53.9193 83.7345 54.7479 83.5645 55.5415C83.3946 56.3351 82.9166 57.0287 82.2355 57.4701L61.6616 70.7736C61.3239 70.9927 60.9463 71.1431 60.5504 71.2161C60.1545 71.2891 59.7481 71.2833 59.3544 71.1991C58.9608 71.1149 58.5876 70.954 58.2562 70.7254C57.9248 70.4968 57.6417 70.2052 57.4231 69.8671Z" fill="#D22E2E"/>
<path d="M52.419 62.1128C51.5502 60.7501 51.2558 59.099 51.6001 57.52C51.9444 55.941 52.8993 54.5623 54.2565 53.6848L69.6854 43.7072C70.361 43.2703 71.116 42.9707 71.9074 42.8257C72.6988 42.6806 73.511 42.6929 74.2977 42.8619C75.0843 43.0308 75.83 43.3531 76.492 43.8102C77.1541 44.2674 77.7196 44.8506 78.1562 45.5264L79.9202 48.252C79.9141 48.2397 79.9141 48.2214 79.9018 48.2091L74.9161 40.4916C74.4795 39.8158 73.914 39.2327 73.2519 38.7755C72.5898 38.3183 71.8442 37.996 71.0575 37.8271C70.2709 37.6582 69.4587 37.6459 68.6673 37.791C67.8759 37.936 67.1208 38.2356 66.4453 38.6725L51.0164 48.6501C50.3406 49.0867 49.7575 49.6522 49.3003 50.3143C48.8431 50.9764 48.5209 51.722 48.3519 52.5087C48.183 53.2953 48.1707 54.1075 48.3158 54.8989C48.4608 55.6903 48.7604 56.4454 49.1973 57.121L52.419 62.1128Z" fill="#9C0707"/>
<path d="M93.7077 35.7387C95.444 38.4655 96.032 41.7682 95.3436 44.9267C94.6552 48.0853 92.7462 50.8437 90.0327 52.6008L59.1688 72.5499C53.4848 76.2249 45.902 74.5956 42.2331 68.9116L25.5119 43.0397L25.5303 43.0764L45.4794 73.9403C47.243 76.6682 50.0179 78.584 53.1938 79.2663C56.3698 79.9486 59.6866 79.3415 62.415 77.5785L93.2789 57.6294C96.0069 55.8658 97.9227 53.0909 98.6049 49.915C99.2872 46.739 98.6801 43.4222 96.9172 40.6938L93.7077 35.7387Z" fill="#8E1818"/>
<path d="M107.734 23.5866L97.5051 7.75348C96.9575 6.9064 96.2092 6.20768 95.3266 5.71937C94.444 5.23106 93.4545 4.96827 92.4459 4.95436L81.0595 4.79511C80.2694 4.78286 79.4854 4.86863 78.7014 4.93601L80.1959 4.95438C82.2417 4.985 84.1404 6.03238 85.2552 7.7535L95.4839 23.5866C96.0105 24.4015 96.3359 25.3298 96.4334 26.295C96.531 27.2603 96.3978 28.2349 96.045 29.1387C95.6921 30.0424 95.1296 30.8494 94.4038 31.4931C93.6779 32.1369 92.8096 32.599 91.8702 32.8415L84.3364 34.9975L87.6623 40.1425C89.0969 42.3741 89.7659 45.0121 89.5681 47.6576C89.3702 50.3031 88.3164 52.8123 86.5659 54.8057C82.2355 57.4823 83.0073 56.9862 82.2355 57.4823L61.6616 70.7858C61.1692 71.0891 60.5982 71.2404 60.0201 71.2207L50.165 77.5907C49.9996 77.701 49.8159 77.7561 49.6444 77.8541C51.5902 78.9925 53.813 79.5704 56.0669 79.5239C58.3207 79.4774 60.5178 78.8084 62.415 77.5907L93.2789 57.6416C96.0069 55.878 97.9226 53.1031 98.6049 49.9272C99.2872 46.7512 98.6801 43.4344 96.9172 40.706L93.5913 35.561L104.12 32.8476C108.163 31.8002 110 27.0962 107.734 23.5866Z" fill="#9C0707"/>
</svg>
