<svg width="57" height="38" viewBox="0 0 57 38" fill="none" xmlns="http://www.w3.org/2000/svg">
<path d="M26.7159 25.955C29.2491 24.2723 31.1732 21.8188 32.2036 18.9576C33.2339 16.0963 33.3158 12.9794 32.4369 10.068C31.5581 7.15666 29.7653 4.60558 27.3239 2.79233C24.8825 0.979075 21.9222 0 18.8811 0C15.8399 0 12.8796 0.979075 10.4382 2.79233C7.99679 4.60558 6.20401 7.15666 5.32518 10.068C4.44635 12.9794 4.52817 16.0963 5.55853 18.9576C6.5889 21.8188 8.51305 24.2723 11.0462 25.955C6.7279 27.548 2.99565 30.4157 0.34419 34.1781C0.145127 34.4609 0.0275475 34.7929 0.00427945 35.1379C-0.0189886 35.4829 0.0529486 35.8277 0.212243 36.1347C0.371537 36.4416 0.61207 36.6989 0.907597 36.8785C1.20313 37.058 1.5423 37.153 1.88811 37.153L35.8732 37.1517C36.219 37.1517 36.5582 37.0567 36.8537 36.8771C37.1492 36.6975 37.3897 36.4402 37.549 36.1332C37.7083 35.8263 37.7802 35.4815 37.7568 35.1365C37.7335 34.7914 37.6159 34.4594 37.4168 34.1767C34.7654 30.415 31.0336 27.5478 26.7159 25.955V25.955Z" fill="white"/>
<path d="M56.6559 34.1767C54.0045 30.415 50.2726 27.5478 45.9549 25.955C48.7622 24.0863 50.8104 21.277 51.7308 18.0326C52.6513 14.7882 52.3837 11.3219 50.9761 8.25727C49.5685 5.19267 47.1134 2.73105 44.0525 1.31538C40.9916 -0.100296 37.526 -0.377061 34.2792 0.534882C33.9844 0.617781 33.7143 0.771122 33.492 0.981686C33.2697 1.19225 33.1019 1.45372 33.0032 1.74355C32.9045 2.03338 32.8777 2.34288 32.9252 2.64536C32.9727 2.94784 33.0931 3.23422 33.2759 3.47982C35.4102 6.34675 36.6371 9.78706 36.7987 13.3575C36.9602 16.928 36.049 20.4651 34.1824 23.513C33.9359 23.915 33.8487 24.3946 33.938 24.8576C34.0273 25.3206 34.2867 25.7334 34.665 26.0149C35.3808 26.5476 36.0695 27.1159 36.7285 27.7175C36.7625 27.7545 36.7969 27.7913 36.8344 27.8261C39.3544 30.1558 41.3967 32.9537 42.8474 36.0638C42.9994 36.3893 43.2412 36.6647 43.5442 36.8577C43.8473 37.0506 44.1991 37.153 44.5583 37.153L55.1124 37.1517C55.4582 37.1517 55.7974 37.0567 56.0929 36.877C56.3883 36.6974 56.6288 36.4401 56.7881 36.1332C56.9473 35.8262 57.0192 35.4814 56.9959 35.1364C56.9726 34.7914 56.855 34.4594 56.6559 34.1767L56.6559 34.1767Z" fill="white"/>
</svg>
