<svg width="45" height="45" viewBox="0 0 45 45" fill="none" xmlns="http://www.w3.org/2000/svg">
<path d="M22.5 4.21875C18.8843 4.21875 15.3498 5.29093 12.3435 7.2997C9.33715 9.30847 6.994 12.1636 5.61034 15.5041C4.22667 18.8445 3.86464 22.5203 4.57003 26.0665C5.27541 29.6127 7.01653 32.8701 9.57321 35.4268C12.1299 37.9835 15.3873 39.7246 18.9335 40.43C22.4797 41.1354 26.1555 40.7733 29.4959 39.3897C32.8364 38.006 35.6915 35.6629 37.7003 32.6565C39.7091 29.6502 40.7813 26.1157 40.7813 22.5C40.7757 17.6532 38.8478 13.0066 35.4206 9.57939C31.9934 6.15221 27.3468 4.22435 22.5 4.21875V4.21875ZM22.4998 12.6562C22.917 12.6562 23.3249 12.78 23.6717 13.0117C24.0186 13.2435 24.289 13.573 24.4486 13.9584C24.6083 14.3438 24.6501 14.768 24.5687 15.1771C24.4873 15.5863 24.2864 15.9622 23.9914 16.2572C23.6964 16.5522 23.3205 16.7531 22.9113 16.8345C22.5022 16.9159 22.078 16.8741 21.6926 16.7144C21.3072 16.5548 20.9777 16.2844 20.746 15.9375C20.5142 15.5906 20.3905 15.1828 20.3905 14.7656C20.3905 14.4886 20.445 14.2143 20.551 13.9584C20.657 13.7025 20.8124 13.4699 21.0083 13.2741C21.2042 13.0782 21.4367 12.9228 21.6926 12.8168C21.9485 12.7108 22.2228 12.6562 22.4998 12.6562H22.4998ZM23.9063 32.3438H22.5C22.3153 32.3439 22.1324 32.3076 21.9617 32.2369C21.7911 32.1663 21.636 32.0627 21.5054 31.9321C21.3748 31.8015 21.2712 31.6464 21.2006 31.4758C21.13 31.3051 21.0937 31.1222 21.0938 30.9375V22.5C20.7208 22.5 20.3631 22.3518 20.0994 22.0881C19.8357 21.8244 19.6875 21.4667 19.6875 21.0938C19.6875 20.7208 19.8357 20.3631 20.0994 20.0994C20.3631 19.8357 20.7208 19.6875 21.0938 19.6875H22.5C22.6847 19.6874 22.8676 19.7237 23.0383 19.7943C23.2089 19.865 23.364 19.9685 23.4946 20.0991C23.6252 20.2297 23.7288 20.3848 23.7994 20.5555C23.8701 20.7261 23.9064 20.909 23.9063 21.0938V29.5312C24.2792 29.5312 24.6369 29.6794 24.9006 29.9431C25.1643 30.2069 25.3125 30.5645 25.3125 30.9375C25.3125 31.3105 25.1643 31.6681 24.9006 31.9319C24.6369 32.1956 24.2792 32.3438 23.9063 32.3438Z" fill="#0E83BC"/>
</svg>
