<svg version="1.2" xmlns="http://www.w3.org/2000/svg" viewBox="0 0 636 331" width="636" height="331">
	<title>Animesports</title>
	<style>
		.s0 { fill: #262626 } 
		.s1 { fill: #0e83bc } 
	</style>
	<g id="Pasta 3">
		<g id="Pasta 2">
			<path id="Forma 1" class="s0" d="m65.9 174.4l497-31.5l9.2 144.7l-497 31.5z" />
			<path id="Sports" fill="#ffffff" aria-label="Sports"  d="m203.43 246.8c-1.77-27.91-42.57-18.76-43.49-33.25c-0.33-5.23 3.19-7.96 8.07-8.15c5.47-0.22 9.48 2.74 10.17 8.06l21.97-1.39c-1.84-15.86-14.65-24.11-32.82-22.96c-17.45 1.11-29.84 10.72-28.84 26.52c1.64 29.58 42.8 18.62 43.78 34.06c0.31 4.87-3.3 8.08-9.24 8.46c-5.7 0.36-9.93-2.47-10.94-8.85l-21.61 1.37c1.66 16.83 16.24 24.85 34.18 23.71c19.47-1.24 29.66-13.57 28.77-27.58zm30.74-34.15l-0.59-9.38l-20.31 1.29l6.21 97.86l20.31-1.29l-2.59-40.86c4.03 5.35 11.33 9.54 21.07 8.92c16.27-1.03 28.37-15.16 27.05-36.06c-1.33-20.9-15.11-33.14-31.38-32.11c-9.74 0.62-16.46 5.58-19.77 11.63zm30.48 21.79c0.67 10.57-5.84 16.95-13.56 17.44c-7.6 0.48-14.86-4.9-15.53-15.47c-0.67-10.57 5.85-16.83 13.45-17.31c7.72-0.49 14.97 4.77 15.64 15.34zm96.2-5.99c-1.33-21.02-17.12-33.13-36.6-31.89c-19.36 1.23-33.61 15.25-32.28 36.27c1.34 21.02 16.89 33.15 36.37 31.91c19.48-1.24 33.85-15.27 32.51-36.29zm-48.21 3.07c-0.72-11.29 5.36-16.92 12.73-17.39c7.12-0.45 14.1 4.35 14.82 15.64c0.71 11.16-5.72 16.93-12.97 17.39c-7.36 0.47-13.87-4.48-14.58-15.64zm79.48-2.67c-0.72-11.4 4.65-15.08 14.27-15.69l5.58-0.35l-1.37-21.5c-8.9 0.57-15.85 5.78-20.03 13.08l-0.7-11.05l-20.31 1.29l4.21 66.27l20.3-1.29zm34.22 5.58c1.1 17.22 11.08 22.43 24.86 21.55l10.33-0.65l-1.09-17.22l-7.24 0.46c-4.52 0.28-6.29-1.27-6.53-5.19l-1.69-26.6l13.3-0.85l-1.07-16.86l-13.3 0.84l-1.03-16.15l-20.31 1.29l1.03 16.15l-8.08 0.51l1.07 16.87l8.08-0.52zm99.05-2.47c-1.93-24.68-37.32-14.92-37.99-25.49c-0.2-3.21 2.29-5.27 7.04-5.57c5.7-0.37 9.33 2.38 10.21 6.86l18.77-1.19c-2.14-12.98-12.24-21.88-29.34-20.79c-17.34 1.1-26.37 10.97-25.66 22.25c1.55 24.35 37.16 14.34 37.84 25.03c0.19 2.97-2.39 5.51-7.62 5.85c-5.58 0.35-9.93-2.47-10.7-7.08l-20.07 1.28c1.76 12.76 14.26 21.87 31.96 20.74c16.63-1.05 26.29-10.37 25.56-21.89z" />
		</g>
		<g id="Pasta 1">
			<path id="Forma 1 copy" class="s1" d="m46.2 124.7l515.3-100.8l26.3 134.4l-515.3 100.8z" />
			<path id="Animes" fill="#ffffff" aria-label="Animes"  d="m159.16 220.78l21.14-4.14l-45.7-76.18l-23.12 4.53l-13.63 87.78l20.91-4.09l2.07-15.44l30.6-5.98zm-15.9-27.94l-20.2 3.96l4.17-31.98zm90.99 13.24l19.85-3.88l-7.45-38.08c-3.42-17.51-15.48-25.83-30.54-22.88c-8.76 1.71-15.02 6.94-17.91 13.2l-1.69-8.64l-19.97 3.91l12.74 65.17l19.97-3.91l-6.92-35.39c-1.73-8.87 2.21-14.74 9.8-16.22c7.59-1.49 13.46 2.46 15.19 11.33zm33.76-6.6l19.97-3.91l-12.75-65.16l-19.97 3.9zm-4.03-73.9c7-1.37 10.85-7.1 9.69-13.05c-1.19-6.08-6.91-9.93-13.92-8.56c-7.12 1.4-10.98 7.12-9.79 13.19c1.17 5.96 6.89 9.81 14.02 8.42zm128.29 49.59l19.85-3.88l-7.45-38.07c-3.42-17.52-15.83-25.76-31.95-22.61c-9.46 1.85-16.6 8.7-19.58 16.44c-5.96-6.96-14.75-9.72-24.56-7.8c-8.53 1.66-14.48 6.59-17.3 12.6l-1.6-8.18l-19.97 3.91l12.75 65.16l19.97-3.9l-6.92-35.39c-1.67-8.52 2.32-14.16 9.91-15.64c7.59-1.49 13.41 2.23 15.08 10.75l6.92 35.39l19.85-3.89l-6.92-35.38c-1.67-8.53 2.33-14.16 9.92-15.64c7.59-1.49 13.41 2.22 15.07 10.75zm52.8-62.35c6.66-1.3 13.06 1.69 14.46 8.81l-25 4.89c-0.25-7.47 4-12.42 10.54-13.7zm36.76 22.4l-21.26 4.15c-0.95 3.83-3.55 7.25-9.16 8.34c-6.42 1.26-12.45-1.68-14.82-10.07l45.19-8.84c-0.15-2.03-0.42-4.04-0.79-5.91c-3.88-19.85-19.78-29.84-38.82-26.11c-19.38 3.79-30.42 19.28-26.37 39.96c4.04 20.67 20.33 30.82 39.49 27.07c16.23-3.18 25.87-15.25 26.54-28.59zm65.46-10.02c-5.11-24.22-38.94-9.97-40.97-20.36c-0.62-3.15 1.59-5.52 6.26-6.44c5.6-1.1 9.56 1.16 11.01 5.49l18.46-3.61c-3.8-12.6-14.97-20.12-31.79-16.82c-17.05 3.33-24.73 14.29-22.56 25.39c4.69 23.94 38.7 9.4 40.76 19.91c0.57 2.92-1.66 5.78-6.8 6.79c-5.49 1.07-10.17-1.17-11.53-5.63l-19.73 3.86c3.4 12.43 16.97 19.84 34.38 16.44c16.35-3.2 24.72-13.69 22.51-25.02z" />
		</g>
	</g>
</svg>