<svg width="45" height="44" viewBox="0 0 45 44" fill="none" xmlns="http://www.w3.org/2000/svg">
<g clip-path="url(#clip0_62_739)">
<path d="M14.1031 4.51644C20.0313 -1.05259 25.8505 -0.94098 31.5607 4.85126L40.3856 13.8029C46.0959 19.5951 45.9869 25.2758 40.0588 30.8448L30.8971 39.4515C24.9689 45.0205 19.1498 44.9089 13.4395 39.1167L4.6146 30.165C-1.09564 24.3728 -0.986689 18.6921 4.94145 13.1231L14.1031 4.51644Z" fill="#474F58" stroke="black" stroke-width="0.0417848" stroke-linecap="round"/>
<path d="M14.2291 4.94793C20.0741 -0.484503 25.8129 -0.374437 31.4454 5.27812L40.15 14.0139C45.7825 19.6664 45.6762 25.2089 39.8311 30.6414L30.7979 39.0369C24.9528 44.4693 19.2141 44.3593 13.5816 38.7067L4.8769 29.971C-0.755559 24.3184 -0.649258 18.7759 5.1958 13.3435L14.2291 4.94793Z" stroke="#C9D8D5" stroke-width="1.35943" stroke-linecap="round" stroke-linejoin="round"/>
<path d="M29.5611 24.4026L22.9698 27.0699L18.3963 21.6254L22.161 15.5933L29.0612 17.3097L29.5611 24.4026ZM16.192 35.4505L15.3759 33.0648L21.3071 32.7476L25.2918 35.4096L23.1671 36.877L16.192 35.4505ZM8.28875 26.2496L11.0515 28.2417L12.3455 22.5569L10.0796 17.1269L7.66295 19.5583L8.28875 26.2496ZM14.1052 9.4476L13.629 11.8085L19.3614 10.6257L23.3996 7.90214L23.0178 6.8569L14.1052 9.4476ZM31.5531 9.67451L29.6167 9.52958L32.332 13.9986L36.3643 17.2001L36.4036 15.154L31.5531 9.67451ZM37.1642 26.0493L36.8845 23.7816L33.5836 27.3811L31.6516 32.6228L33.4824 32.6579" fill="#9B9D9D"/>
<path d="M21.5283 32.8125L21.4634 33.0343L21.0206 32.9037L21.0855 32.6827L22.9696 26.2824L23.0345 26.0607L23.4773 26.1912L23.4124 26.4129L21.5283 32.8125ZM16.3932 33.8566L16.5456 34.0304L16.198 34.3344L16.0457 34.1606L9.94418 27.191L9.79183 27.0172L10.1394 26.7132L10.2917 26.8869L16.3932 33.8566ZM18.3612 21.3976L18.5894 21.3624L18.6598 21.8182L18.4316 21.8534L12.3804 22.7849L12.1528 22.8202L12.0824 22.3636L12.3107 22.3284L18.3612 21.3976ZM33.7223 27.306L33.905 27.446L33.6242 27.8127L33.4409 27.672L29.4207 24.5855L29.2374 24.4454L29.5188 24.0787L29.7015 24.2194L33.7223 27.306ZM32.4946 32.0578L32.708 31.9702L32.8826 32.3977L32.6691 32.4846L25.0196 35.6164L24.8055 35.704L24.631 35.2765L24.8444 35.1889L32.4946 32.0578ZM30.7461 9.72151L30.9686 9.78185L30.8472 10.2274L30.6247 10.1671L22.2524 7.88635L22.03 7.82601L22.1513 7.38042L22.3738 7.44142L30.7461 9.72151ZM22.3621 15.4799L22.4756 15.6813L22.0735 15.9078L21.96 15.7064L19.1606 10.7388L19.047 10.5381L19.4492 10.311L19.5627 10.5124L22.3621 15.4799ZM32.1679 13.8361L32.33 13.6723L32.6583 13.9965L32.4961 14.161L29.2253 17.4718L29.0632 17.6363L28.735 17.312L28.8971 17.1476L32.1679 13.8361ZM9.94085 18.009L9.81575 18.2032L9.42736 17.9543L9.55248 17.7594L14.0628 10.7354L14.1879 10.5405L14.5763 10.7901L14.4512 10.9843L9.94085 18.009Z" fill="#9B9D9D"/>
<path fill-rule="evenodd" clip-rule="evenodd" d="M7.13358 21.5609C7.15381 20.5065 7.28015 19.4567 7.51098 18.4274C7.73597 17.4277 8.05944 16.453 8.47647 15.5177C9.2967 13.6811 10.4638 12.02 11.9135 10.6256C13.3625 9.23044 15.0671 8.12785 16.9338 7.37864C17.8845 6.99778 18.8709 6.71193 19.8778 6.52543C20.9152 6.33423 21.9697 6.24825 23.0241 6.26847C24.0785 6.28869 25.1289 6.41504 26.1582 6.64588C27.1572 6.87086 28.1319 7.19432 29.0673 7.61135C30.9039 8.43158 32.565 9.59873 33.9594 11.0484C35.3545 12.4974 36.4571 14.202 37.2063 16.0687C37.5872 17.0193 37.873 18.0058 38.0595 19.0127C38.2507 20.0501 38.3367 21.1045 38.3165 22.159C38.2963 23.2134 38.1699 24.2638 37.9391 25.2931C37.7141 26.2921 37.3906 27.2668 36.9736 28.2021C36.1534 30.0388 34.9862 31.6998 33.5366 33.0943C32.0876 34.4894 30.383 35.592 28.5162 36.3412C27.5656 36.7221 26.5792 37.0079 25.5723 37.1944C24.5349 37.3856 23.4804 37.4716 22.426 37.4514C21.3716 37.4311 20.3212 37.3048 19.2919 37.074C18.2929 36.849 17.3181 36.5255 16.3828 36.1085C14.5462 35.2883 12.8851 34.1211 11.4907 32.6715C10.0956 31.2225 8.99297 29.5178 8.24376 27.6511C7.8629 26.7005 7.57705 25.7141 7.39054 24.7072C7.19934 23.6698 7.11336 22.6153 7.13358 21.5609ZM8.45244 21.5862C8.47096 20.6201 8.58638 19.6586 8.79774 18.716C9.00327 17.8023 9.2994 16.9109 9.68127 16.0553C10.4319 14.3737 11.5007 12.8526 12.8287 11.5765C14.1547 10.2985 15.7157 9.28877 17.4249 8.60317C18.2944 8.25439 19.1966 7.99265 20.1175 7.82231C21.0674 7.64725 22.0327 7.56879 22.9988 7.58732C23.9648 7.60585 24.9264 7.72126 25.869 7.93262C26.7826 8.13815 27.6741 8.43429 28.5296 8.81615C30.2112 9.56678 31.7324 10.6356 33.0084 11.9636C34.2865 13.2896 35.2962 14.8506 35.9818 16.5598C36.3306 17.4293 36.5923 18.3315 36.7626 19.2523C36.9377 20.2023 37.0162 21.1676 36.9976 22.1337C36.9791 23.0997 36.8637 24.0613 36.6523 25.0038C36.4468 25.9175 36.1507 26.809 35.7688 27.6645C35.0182 29.3461 33.9494 30.8672 32.6214 32.1433C31.2953 33.4214 29.7343 34.4311 28.0252 35.1167C27.1557 35.4654 26.2535 35.7272 25.3326 35.8975C24.3826 36.0726 23.4174 36.151 22.4513 36.1325C21.4852 36.114 20.5237 35.9986 19.5811 35.7872C18.6674 35.5817 17.776 35.2856 16.9205 34.9037C15.2389 34.1531 13.7177 33.0842 12.4417 31.7563C11.1636 30.4302 10.1539 28.8692 9.46829 27.1601C9.11951 26.2905 8.85777 25.3884 8.68743 24.4675C8.51237 23.5175 8.43391 22.5522 8.45244 21.5862Z" fill="#9B9D9D"/>
<g style="mix-blend-mode:color-burn">
<path d="M14.055 8.47682L15.1048 12.0948L18.7593 13.2599L15.0628 14.2841L13.8751 17.8591L12.8253 14.2412L9.17077 13.076L12.8673 12.0519L14.055 8.47682Z" fill="#C6C6C6"/>
<path d="M14.055 8.47682L15.1048 12.0948L18.7593 13.2599L15.0628 14.2841L13.8751 17.8591L12.8253 14.2412L9.17077 13.076L12.8673 12.0519L14.055 8.47682Z" stroke="black"/>
</g>
<g style="mix-blend-mode:color-burn">
<path d="M22.766 16.792L23.8157 20.4099L27.4703 21.5751L23.7737 22.5992L22.586 26.1743L21.5363 22.5563L17.8817 21.3912L21.5783 20.367L22.766 16.792Z" fill="#C6C6C6"/>
<path d="M22.766 16.792L23.8157 20.4099L27.4703 21.5751L23.7737 22.5992L22.586 26.1743L21.5363 22.5563L17.8817 21.3912L21.5783 20.367L22.766 16.792Z" stroke="black"/>
</g>
<g style="mix-blend-mode:color-burn">
<path d="M32.1917 25.4303L33.2415 29.0483L36.896 30.2135L33.1995 31.2376L32.0118 34.8127L30.962 31.1947L27.3075 30.0296L31.004 29.0054L32.1917 25.4303Z" fill="#C6C6C6"/>
<path d="M32.1917 25.4303L33.2415 29.0483L36.896 30.2135L33.1995 31.2376L32.0118 34.8127L30.962 31.1947L27.3075 30.0296L31.004 29.0054L32.1917 25.4303Z" stroke="black"/>
</g>
</g>
<defs>
<clipPath id="clip0_62_739">
<rect width="45" height="43.9679" fill="white"/>
</clipPath>
</defs>
</svg>
