<?xml version="1.0" encoding="utf-8"?>
<svg viewBox="223.888 182 5.112 23" xmlns="http://www.w3.org/2000/svg">
  <path d="M 226.444 190.944 C 225.039 190.944 223.889 192.094 223.889 193.5 C 223.889 194.906 225.039 196.056 226.444 196.056 C 227.85 196.056 229 194.906 229 193.5 C 229 192.094 227.85 190.944 226.444 190.944 Z M 217.5 190.944 C 216.094 190.944 214.944 192.094 214.944 193.5 C 214.944 194.906 216.094 196.056 217.5 196.056 C 218.906 196.056 220.056 194.906 220.056 193.5 C 220.056 192.094 218.906 190.944 217.5 190.944 Z M 235.389 190.944 C 233.983 190.944 232.833 192.094 232.833 193.5 C 232.833 194.906 233.983 196.056 235.389 196.056 C 236.794 196.056 237.944 194.906 237.944 193.5 C 237.944 192.094 236.794 190.944 235.389 190.944 Z" transform="matrix(0, 1, -1, 0, 419.944, -32.944)"/>
</svg>