<svg width="57" height="39" viewBox="0 0 57 39" fill="none" xmlns="http://www.w3.org/2000/svg">
<path d="M32.1889 7.64736C30.5737 7.64736 28.9949 8.12641 27.6521 9.0239C26.3093 9.92139 25.2628 11.197 24.6451 12.6893C24.0274 14.1817 23.8662 15.8237 24.182 17.4077C24.4977 18.9916 25.2761 20.4464 26.4187 21.5879C27.5614 22.7293 29.0169 23.5063 30.6012 23.8203C32.1855 24.1344 33.8274 23.9715 35.3191 23.3523C36.8108 22.7331 38.0853 21.6853 38.9814 20.3416C39.8775 18.9978 40.3549 17.4185 40.3533 15.8034C40.3488 13.6402 39.487 11.567 37.9566 10.0381C36.4262 8.50932 34.3521 7.64958 32.1889 7.64736ZM32.1889 14.9652C32.7589 14.9663 33.3104 15.1677 33.747 15.5342C34.1836 15.9007 34.4775 16.409 34.5773 16.9702C34.6772 17.5314 34.5766 18.1098 34.2933 18.6044C34.0099 19.0991 33.5617 19.4783 33.0271 19.676V20.2377C33.0271 20.46 32.9388 20.6732 32.7816 20.8304C32.6244 20.9876 32.4112 21.0759 32.1889 21.0759C31.9666 21.0759 31.7533 20.9876 31.5961 20.8304C31.4389 20.6732 31.3506 20.46 31.3506 20.2377V19.676C30.8829 19.5049 30.4788 19.1947 30.1926 18.7871C29.9064 18.3795 29.7518 17.8941 29.7496 17.396C29.7496 17.1737 29.8379 16.9605 29.9951 16.8033C30.1523 16.6461 30.3655 16.5578 30.5878 16.5578C30.8102 16.5578 31.0234 16.6461 31.1806 16.8033C31.3378 16.9605 31.4261 17.1737 31.4261 17.396C31.4149 17.5024 31.4262 17.6098 31.4592 17.7115C31.4922 17.8132 31.5462 17.9068 31.6178 17.9863C31.6893 18.0657 31.7767 18.1292 31.8744 18.1727C31.9721 18.2162 32.0778 18.2387 32.1847 18.2387C32.2916 18.2387 32.3973 18.2162 32.495 18.1727C32.5926 18.1292 32.6801 18.0657 32.7516 17.9863C32.8231 17.9068 32.8771 17.8132 32.9102 17.7115C32.9432 17.6098 32.9545 17.5024 32.9433 17.396C32.9433 17.196 32.8638 17.0041 32.7223 16.8626C32.5808 16.7211 32.389 16.6416 32.1889 16.6416C31.6167 16.6463 31.0614 16.4483 30.6212 16.0828C30.1811 15.7172 29.8845 15.2076 29.7841 14.6443C29.6837 14.081 29.7859 13.5004 30.0726 13.0052C30.3594 12.5101 30.8121 12.1324 31.3506 11.9391V11.3775C31.3506 11.1552 31.4389 10.942 31.5961 10.7848C31.7533 10.6276 31.9666 10.5393 32.1889 10.5393C32.4112 10.5393 32.6244 10.6276 32.7816 10.7848C32.9388 10.942 33.0271 11.1552 33.0271 11.3775V11.9559C33.4926 12.1269 33.8946 12.4361 34.1793 12.8422C34.464 13.2482 34.6177 13.7316 34.6197 14.2275C34.6197 14.4498 34.5314 14.663 34.3742 14.8202C34.217 14.9774 34.0038 15.0657 33.7815 15.0657C33.5592 15.0657 33.346 14.9774 33.1888 14.8202C33.0316 14.663 32.9433 14.4498 32.9433 14.2275C32.9444 14.1281 32.9257 14.0295 32.8881 13.9375C32.8506 13.8454 32.7951 13.7618 32.7248 13.6916C32.6545 13.6213 32.5709 13.5658 32.4789 13.5282C32.3869 13.4907 32.2882 13.472 32.1889 13.4731C31.9888 13.4731 31.7969 13.5526 31.6554 13.6941C31.5139 13.8355 31.4345 14.0274 31.4345 14.2275C31.4345 14.4276 31.5139 14.6195 31.6554 14.761C31.7969 14.9024 31.9888 14.9819 32.1889 14.9819V14.9652ZM20.9565 14.9652H18.4418C18.2195 14.9652 18.0063 15.0535 17.8491 15.2107C17.6919 15.3679 17.6036 15.5811 17.6036 15.8034C17.6036 16.0257 17.6919 16.2389 17.8491 16.3961C18.0063 16.5533 18.2195 16.6416 18.4418 16.6416H20.9565C21.1788 16.6416 21.392 16.5533 21.5492 16.3961C21.7064 16.2389 21.7948 16.0257 21.7948 15.8034C21.7948 15.5811 21.7064 15.3679 21.5492 15.2107C21.392 15.0535 21.1788 14.9652 20.9565 14.9652ZM45.9192 14.9652H43.4045C43.1821 14.9652 42.9689 15.0535 42.8117 15.2107C42.6545 15.3679 42.5662 15.5811 42.5662 15.8034C42.5662 16.0257 42.6545 16.2389 42.8117 16.3961C42.9689 16.5533 43.1821 16.6416 43.4045 16.6416H45.9192C46.1415 16.6416 46.3547 16.5533 46.5119 16.3961C46.6691 16.2389 46.7574 16.0257 46.7574 15.8034C46.7574 15.5811 46.6691 15.3679 46.5119 15.2107C46.3547 15.0535 46.1415 14.9652 45.9192 14.9652Z" fill="white"/>
<path d="M52.4322 0.287659H11.9539C10.971 0.289801 10.0285 0.678896 9.33044 1.37073C8.63233 2.06257 8.23474 3.00149 8.22372 3.98428C7.24892 3.99517 6.31712 4.38725 5.62779 5.07658C4.93846 5.76591 4.54638 6.69771 4.53548 7.67251C3.5527 7.68353 2.61378 8.08112 1.92194 8.77923C1.2301 9.47734 0.841009 10.4198 0.838867 11.4027V34.9738C0.838865 35.9639 1.23159 36.9135 1.93089 37.6144C2.63019 38.3153 3.57895 38.7101 4.56901 38.7124H45.0558C46.0372 38.708 46.9775 38.318 47.6738 37.6264C48.3701 36.9348 48.7665 35.9971 48.7775 35.0157C49.7538 35.0048 50.6868 34.6116 51.3764 33.9204C52.0659 33.2293 52.4571 32.2954 52.4658 31.3191C53.4493 31.3103 54.3894 30.9134 55.0817 30.2148C55.774 29.5162 56.1624 28.5725 56.1624 27.589V4.01781C56.1602 3.02919 55.7665 2.0817 55.0674 1.38264C54.3684 0.68358 53.4209 0.289873 52.4322 0.287659ZM48.744 33.3393H8.25725C7.71258 33.3393 7.19022 33.1229 6.80508 32.7378C6.41994 32.3526 6.20357 31.8303 6.20357 31.2856V7.71442C6.2035 7.17551 6.41526 6.65817 6.79318 6.27398C7.1711 5.88979 7.68488 5.66955 8.22372 5.66075V27.589C8.22372 28.5783 8.61672 29.5271 9.31625 30.2266C9.66263 30.573 10.0738 30.8477 10.5264 31.0352C10.979 31.2226 11.464 31.3191 11.9539 31.3191H50.7893C50.7827 31.8572 50.5643 32.371 50.1814 32.7491C49.7986 33.1273 49.2821 33.3393 48.744 33.3393ZM52.5496 22.283C52.5496 22.5053 52.4613 22.7185 52.3041 22.8757C52.1469 23.0329 51.9337 23.1212 51.7114 23.1212C50.7176 23.1212 49.7646 23.516 49.0619 24.2186C48.3592 24.9213 47.9645 25.8744 47.9645 26.8681C47.9645 27.0904 47.8761 27.3036 47.7189 27.4608C47.5617 27.618 47.3485 27.7063 47.1262 27.7063H17.2599C17.0376 27.7063 16.8244 27.618 16.6672 27.4608C16.51 27.3036 16.4217 27.0904 16.4217 26.8681C16.4217 25.8744 16.0269 24.9213 15.3242 24.2186C14.6215 23.516 13.6685 23.1212 12.6747 23.1212C12.4524 23.1212 12.2392 23.0329 12.082 22.8757C11.9248 22.7185 11.8365 22.5053 11.8365 22.283V9.33222C11.8365 9.1099 11.9248 8.8967 12.082 8.7395C12.2392 8.5823 12.4524 8.49398 12.6747 8.49398C13.6685 8.49398 14.6215 8.09922 15.3242 7.39654C16.0269 6.69386 16.4217 5.74081 16.4217 4.74707C16.4217 4.52476 16.51 4.31155 16.6672 4.15435C16.8244 3.99715 17.0376 3.90883 17.2599 3.90883H47.1262C47.3485 3.90883 47.5617 3.99715 47.7189 4.15435C47.8761 4.31155 47.9645 4.52476 47.9645 4.74707C47.9645 5.74081 48.3592 6.69386 49.0619 7.39654C49.7646 8.09922 50.7176 8.49398 51.7114 8.49398C51.9337 8.49398 52.1469 8.5823 52.3041 8.7395C52.4613 8.8967 52.5496 9.1099 52.5496 9.33222V22.283Z" fill="white"/>
</svg>
