<?xml version="1.0" encoding="utf-8"?>
<svg width="45" height="45" viewBox="0 0 45 45" fill="none" xmlns="http://www.w3.org/2000/svg" xmlns:bx="https://boxy-svg.com">
  <g clip-path="url(#clip0_65_791)">
    <g>
      <path style="mix-blend-mode: overlay; isolation: isolate; stroke-width: 2px; stroke: rgb(172, 172, 172); clip-path: url(#clip-0); stroke-dasharray: 4px;" d="M 1.777 1.292 H 43.708 V 23.025 A 20.198 20.198 0 0 1 23.51 43.223 H 21.975 A 20.198 20.198 0 0 1 1.777 23.025 V 1.292 Z" bx:shape="rect 1.777 1.292 41.931 41.931 0 0 20.198 20.198 1@1bc94ad3"/>
    </g>
    <path d="M29.3824 24.8491L22.7498 27.5331L18.1476 22.0545L21.9359 15.9846L28.8794 17.7118L29.3824 24.8491ZM15.9295 35.9663L15.1083 33.5657L21.0767 33.2465L25.0864 35.9252L22.9483 37.4018L15.9295 35.9663ZM7.97666 26.7077L10.7567 28.7124L12.0589 22.9918L9.77878 17.5278L7.34694 19.9745L7.97666 26.7077ZM13.8296 9.80032L13.3504 12.1761L19.1187 10.9858L23.1823 8.24517L22.7981 7.19337L13.8296 9.80032ZM31.3869 10.0287L29.4384 9.88282L32.1707 14.3799L36.2283 17.6015L36.2678 15.5425L31.3869 10.0287ZM37.0332 26.5062L36.7517 24.2243L33.4301 27.8464L31.4861 33.1209L33.3283 33.1562" style="fill: rgb(165, 165, 165);"/>
    <path d="M21.2992 33.3118L21.2339 33.5349L20.7883 33.4036L20.8536 33.1811L22.7495 26.7407L22.8149 26.5176L23.2604 26.649L23.1951 26.8721L21.2992 33.3118ZM16.1319 34.3624L16.2852 34.5373L15.9355 34.8432L15.7822 34.6684L9.64241 27.655L9.48911 27.4801L9.83883 27.1742L9.99213 27.3491L16.1319 34.3624ZM18.1122 21.8253L18.3419 21.7898L18.4127 22.2486L18.183 22.284L12.0939 23.2213L11.8649 23.2568L11.794 22.7974L12.0237 22.762L18.1122 21.8253ZM33.5697 27.7707L33.7535 27.9117L33.471 28.2806L33.2865 28.139L29.2411 25.0331L29.0566 24.8922L29.3398 24.5232L29.5236 24.6648L33.5697 27.7707ZM32.3343 32.5523L32.549 32.4642L32.7247 32.8944L32.5099 32.9818L24.8124 36.1333L24.5969 36.2215L24.4213 35.7913L24.6361 35.7031L32.3343 32.5523ZM30.5748 10.076L30.7986 10.1367L30.6765 10.5851L30.4527 10.5243L22.0279 8.22928L21.804 8.16856L21.9261 7.72018L22.15 7.78156L30.5748 10.076ZM22.1382 15.8705L22.2525 16.0731L21.8478 16.301L21.7336 16.0984L18.9167 11.0997L18.8024 10.8977L19.207 10.6691L19.3213 10.8718L22.1382 15.8705ZM32.0055 14.2163L32.1687 14.0515L32.499 14.3778L32.3358 14.5433L29.0445 17.8749L28.8813 18.0403L28.551 17.7141L28.7142 17.5486L32.0055 14.2163ZM9.63906 18.4154L9.51317 18.6108L9.12235 18.3604L9.24825 18.1643L13.7868 11.0962L13.9127 10.9001L14.3035 11.1512L14.1777 11.3466L9.63906 18.4154Z" style="fill: rgb(162, 162, 162);"/>
    <path fill-rule="evenodd" clip-rule="evenodd" d="M6.81433 21.9896C6.83468 20.9286 6.96181 19.8722 7.19409 18.8365C7.42049 17.8305 7.74599 16.8497 8.16564 15.9085C8.99101 14.0604 10.1655 12.3889 11.6242 10.9857C13.0823 9.58181 14.7976 8.4723 16.6761 7.7184C17.6326 7.33514 18.6252 7.0475 19.6385 6.85983C20.6824 6.66743 21.7435 6.58091 22.8045 6.60126C23.8655 6.62161 24.9225 6.74875 25.9582 6.98104C26.9636 7.20742 27.9444 7.53291 28.8856 7.95257C30.7337 8.77794 32.4052 9.95241 33.8084 11.4111C35.2123 12.8692 36.3218 14.5846 37.0757 16.463C37.4589 17.4196 37.7466 18.4122 37.9343 19.4254C38.1267 20.4693 38.2132 21.5304 38.1928 22.5914C38.1725 23.6525 38.0453 24.7094 37.813 25.7452C37.5867 26.7505 37.2612 27.7313 36.8415 28.6725C36.0161 30.5207 34.8417 32.1922 33.3829 33.5953C31.9248 34.9992 30.2095 36.1087 28.3311 36.8626C27.3745 37.2459 26.3819 37.5335 25.3687 37.7212C24.3248 37.9136 23.2637 38.0001 22.2027 37.9798C21.1416 37.9594 20.0846 37.8323 19.0489 37.6C18.0436 37.3736 17.0628 37.0481 16.1216 36.6285C14.2734 35.8031 12.6019 34.6286 11.1987 33.1699C9.79489 31.7118 8.68537 29.9965 7.93147 28.118C7.54822 27.1615 7.26057 26.1689 7.0729 25.1556C6.8805 24.1117 6.79398 23.0506 6.81433 21.9896ZM8.14145 22.0151C8.1601 21.0429 8.27623 20.0754 8.48892 19.1269C8.69574 18.2075 8.99373 17.3104 9.37799 16.4495C10.1333 14.7574 11.2088 13.2267 12.5452 11.9426C13.8795 10.6565 15.4503 9.64051 17.1702 8.95061C18.0452 8.59964 18.953 8.33626 19.8796 8.16485C20.8356 7.98869 21.8069 7.90974 22.779 7.92838C23.7512 7.94703 24.7187 8.06316 25.6672 8.27585C26.5866 8.48267 27.4837 8.78066 28.3446 9.16492C30.0367 9.92026 31.5674 10.9958 32.8515 12.3321C34.1375 13.6664 35.1536 15.2372 35.8435 16.9571C36.1944 17.8321 36.4578 18.7399 36.6292 19.6666C36.8054 20.6225 36.8844 21.5938 36.8657 22.566C36.8471 23.5381 36.7309 24.5057 36.5182 25.4542C36.3114 26.3735 36.0134 27.2706 35.6292 28.1315C34.8738 29.8237 33.7983 31.3543 32.462 32.6384C31.1276 33.9245 29.5569 34.9405 27.837 35.6304C26.962 35.9814 26.0542 36.2448 25.1275 36.4162C24.1716 36.5923 23.2002 36.6713 22.2281 36.6526C21.256 36.634 20.2884 36.5179 19.3399 36.3052C18.4205 36.0984 17.5235 35.8004 16.6626 35.4161C14.9704 34.6608 13.4398 33.5853 12.1557 32.2489C10.8696 30.9146 9.85358 29.3438 9.16368 27.6239C8.81271 26.7489 8.54933 25.8411 8.37792 24.9145C8.20176 23.9585 8.12281 22.9872 8.14145 22.0151Z" style="fill: rgb(169, 169, 169);"/>
    <g style="mix-blend-mode: color-burn;">
      <path d="M7.36829 2.15355L8.42462 5.7942L12.1021 6.96666L8.38237 7.99725L7.18722 11.5947L6.13089 7.95407L2.45341 6.78161L6.17314 5.75102L7.36829 2.15355Z" fill="#C6C6C6" style="stroke-width: 0px;"/>
      <path d="M7.36829 2.15355L8.42462 5.7942L12.1021 6.96666L8.38237 7.99725L7.18722 11.5947L6.13089 7.95407L2.45341 6.78161L6.17314 5.75102L7.36829 2.15355Z" stroke="black" style="stroke-width: 0px;"/>
    </g>
    <g style="mix-blend-mode: color-burn;">
      <path d="M16.8927 11.5215L17.949 15.1621L21.6265 16.3346L17.9068 17.3652L16.7116 20.9626L15.6553 17.322L11.9778 16.1495L15.6976 15.1189L16.8927 11.5215Z" fill="#C6C6C6" style="stroke-width: 0px;"/>
      <path d="M16.8927 11.5215L17.949 15.1621L21.6265 16.3346L17.9068 17.3652L16.7116 20.9626L15.6553 17.322L11.9778 16.1495L15.6976 15.1189L16.8927 11.5215Z" stroke="black" style="stroke-width: 0px;"/>
    </g>
    <g style="mix-blend-mode: color-burn;">
      <path d="M25.6574 19.8887L26.7137 23.5294L30.3912 24.7019L26.6714 25.7324L25.4763 29.3299L24.42 25.6893L20.7425 24.5168L24.4622 23.4862L25.6574 19.8887Z" fill="#C6C6C6" style="stroke-width: 0px;"/>
      <path d="M25.6574 19.8887L26.7137 23.5294L30.3912 24.7019L26.6714 25.7324L25.4763 29.3299L24.42 25.6893L20.7425 24.5168L24.4622 23.4862L25.6574 19.8887Z" stroke="black" style="stroke-width: 0px;"/>
    </g>
    <g style="mix-blend-mode: color-burn;">
      <path d="M35.1427 28.5813L36.199 32.222L39.8765 33.3944L36.1568 34.425L34.9616 38.0225L33.9053 34.3818L30.2278 33.2094L33.9476 32.1788L35.1427 28.5813Z" fill="#C6C6C6" style="stroke-width: 0px;"/>
      <path d="M35.1427 28.5813L36.199 32.222L39.8765 33.3944L36.1568 34.425L34.9616 38.0225L33.9053 34.3818L30.2278 33.2094L33.9476 32.1788L35.1427 28.5813Z" stroke="black" style="stroke-width: 0px;"/>
    </g>
  </g>
  <defs>
    <clipPath id="clip0_65_791">
      <rect width="45" height="44.6995" fill="white"/>
    </clipPath>
    <clipPath id="clip-0">
      <path d="M 1.615 1.013 L 33.815 1.032 C 33.842 1.773 33.172 3.234 34.696 2.467 C 35.179 2.223 36.085 3.828 36.603 3.813 C 37.953 3.775 35.983 2.541 36.373 2.123 C 36.756 1.704 37.98 1.526 38.008 0.811 L 43.481 1.038 C 43.687 1.032 43.849 1.108 43.984 1.249 C 44.124 1.384 44.199 1.549 44.192 1.755 L 44.183 18.547 C 43.451 18.618 42.01 17.804 42.56 19.23 C 42.745 19.71 42.464 20.601 42.027 20.516 C 39.602 20.049 42.207 21.412 42.52 21.726 C 42.835 22.036 43.256 22.209 43.785 22.194 C 43.666 22.93 43.003 27.531 42.101 29.905 C 41.01 32.775 40.018 35.555 37.908 37.671 C 34.03 41.56 28.702 43.958 22.788 43.947 L 20.814 43.947 C 19.816 43.794 19.374 43.772 19.051 43.748 C 18.728 43.724 18.528 43.698 18.005 43.535 C 17.655 43.428 16.973 43.325 16.418 43.166 C 16.14 43.085 15.899 42.993 15.743 42.879 C 15.666 42.822 15.615 42.765 15.589 42.7 C 15.563 42.636 15.183 42.496 15.218 42.418 C 15.511 41.737 14.938 42.018 14.797 41.813 C 14.725 41.706 14.601 39.59 14.458 39.571 C 14.315 39.552 13.837 40.788 13.649 40.824 C 12.9 40.967 13.161 41.67 12.596 41.637 C 10.331 41.52 8.742 39.262 7.141 37.651 C 4.411 34.911 1.119 26.416 2.093 26.724 C 3.914 27.299 2.656 24.996 3.426 24.92 C 4.016 24.863 4.941 24.333 5.137 23.975 C 5.39 23.511 4.099 24.065 4.437 23.615 C 5.414 22.314 2.59 23.756 2.466 22.478 C 2.37 21.491 0.891 22.504 0.889 22.472 L 0.902 1.726 C 0.895 1.52 0.972 1.357 1.111 1.222 C 1.178 1.152 1.248 1.105 1.338 1.068 C 1.383 1.048 1.423 1.036 1.472 1.027 C 1.496 1.022 1.518 1.019 1.542 1.016 C 1.566 1.014 1.63 1.012 1.63 1.012" fill="#CF9C6D" style=""/>
    </clipPath>
  </defs>
</svg>