<svg width="310" height="111" viewBox="0 0 310 111" fill="none" xmlns="http://www.w3.org/2000/svg">
<path d="M127.213 102.866V40.2386C127.213 28.7157 136.554 19.3747 148.078 19.3747L166.568 19.4019C178.058 19.4249 187.361 28.7458 187.361 40.2358V53.5664C187.361 65.0894 178.019 74.4314 166.496 74.4314H140.367" stroke="#939598" stroke-width="6.26444" stroke-miterlimit="10" stroke-linecap="round" stroke-linejoin="round"/>
<path d="M192.528 19.3656H200.549C205.278 19.3656 209.112 23.1993 209.112 27.9284V74.7114" stroke="#939598" stroke-width="6.26444" stroke-miterlimit="10" stroke-linecap="round" stroke-linejoin="round"/>
<path d="M207.392 12.1178L203.754 8.47991C202.851 7.57773 202.851 6.11415 203.754 5.21149L207.39 1.57646C208.293 0.672369 209.759 0.672369 210.662 1.57646L214.298 5.21149C215.2 6.11415 215.2 7.57773 214.298 8.47991L210.66 12.1178C209.758 13.0205 208.294 13.0205 207.392 12.1178Z" fill="#32BCAD"/>
<path d="M224.5 19.3241H232.454C236.547 19.3241 240.471 20.9495 243.364 23.8431L261.97 42.4485C264.381 44.8593 268.288 44.8593 270.698 42.4485L289.236 23.9111C292.129 21.0179 296.054 19.3926 300.146 19.3926H306.613" stroke="#939598" stroke-width="6.26444" stroke-miterlimit="10" stroke-linecap="round" stroke-linejoin="round"/>
<path d="M224.5 74.3018H232.454C236.547 74.3018 240.471 72.6764 243.364 69.7827L261.97 51.1769C264.381 48.7666 268.288 48.7666 270.698 51.1769L289.236 69.7143C292.129 72.608 296.054 74.2333 300.146 74.2333H306.613" stroke="#939598" stroke-width="6.26444" stroke-miterlimit="10" stroke-linecap="round" stroke-linejoin="round"/>
<path d="M79.7874 86.188C75.7949 86.188 72.0402 84.6335 69.2174 81.8116L53.9546 66.5493C52.8834 65.4748 51.0154 65.4782 49.9443 66.5493L34.626 81.8676C31.8027 84.689 28.048 86.2436 24.0554 86.2436H21.0479L40.3779 105.574C46.415 111.611 56.2031 111.611 62.2402 105.574L81.6263 86.188H79.7874Z" fill="#32BCAD"/>
<path d="M24.0559 32.2015C28.0485 32.2015 31.8031 33.7565 34.626 36.5784L49.9443 51.8991C51.0475 53.0023 52.849 53.0071 53.955 51.8977L69.2174 36.6339C72.0407 33.8121 75.7954 32.2575 79.7879 32.2575H81.6262L62.2407 12.872C56.2035 6.83484 46.4155 6.83484 40.3784 12.872L21.0488 32.2015H24.0559Z" fill="#32BCAD"/>
<path d="M97.6606 48.2921L85.9458 36.5772C85.6878 36.6806 85.4088 36.7452 85.1139 36.7452H79.788C77.0341 36.7452 74.3385 37.8618 72.393 39.8088L57.1302 55.0716C55.7025 56.4997 53.8259 57.2148 51.9507 57.2148C50.0741 57.2148 48.1989 56.4997 46.7707 55.073L31.4509 39.7532C29.5049 37.8063 26.8099 36.6897 24.056 36.6897H17.5067C17.2277 36.6897 16.9663 36.6236 16.7199 36.5308L4.95854 48.2921C-1.07863 54.3288 -1.07863 64.1168 4.95854 70.1544L16.7194 81.9153C16.9659 81.8224 17.2277 81.7564 17.5067 81.7564H24.056C26.8099 81.7564 29.5049 80.6398 31.4509 78.6928L46.7693 63.3745C49.538 60.6081 54.3643 60.6067 57.1302 63.3759L72.393 78.6368C74.3385 80.5843 77.0341 81.7009 79.788 81.7009H85.1139C85.4092 81.7009 85.6878 81.765 85.9462 81.8684L97.6606 70.1544C103.698 64.1168 103.698 54.3288 97.6606 48.2921Z" fill="#32BCAD"/>
<path d="M143.114 97.5429C142.25 97.5429 141.243 97.7506 140.248 97.9799V101.797C140.938 102.049 141.725 102.169 142.48 102.169C144.393 102.169 145.301 101.524 145.301 99.8388C145.301 98.2531 144.558 97.5429 143.114 97.5429ZM139.603 104.63V97.0829H140.128L140.183 97.4117C141.069 97.2036 142.293 96.9303 143.168 96.9303C143.88 96.9303 144.558 97.0384 145.126 97.4984C145.783 98.0349 145.991 98.8983 145.991 99.8388C145.991 100.824 145.662 101.754 144.766 102.267C144.142 102.617 143.3 102.759 142.545 102.759C141.768 102.759 141.025 102.638 140.248 102.409V104.63H139.603Z" fill="#939598"/>
<path d="M150.795 97.52C148.881 97.52 148.028 98.1221 148.028 99.8063C148.028 101.436 148.87 102.169 150.795 102.169C152.698 102.169 153.552 101.578 153.552 99.8934C153.552 98.2642 152.71 97.52 150.795 97.52ZM153.256 102.169C152.622 102.628 151.769 102.759 150.795 102.759C149.8 102.759 148.947 102.617 148.323 102.169C147.623 101.677 147.339 100.867 147.339 99.8503C147.339 98.8438 147.623 98.0244 148.323 97.52C148.947 97.072 149.8 96.9303 150.795 96.9303C151.78 96.9303 152.622 97.072 153.256 97.52C153.968 98.0244 154.24 98.8438 154.24 99.8388C154.24 100.856 153.956 101.677 153.256 102.169" fill="#939598"/>
<path d="M162.316 102.606L160.183 98.0242H160.139L158.039 102.606H157.459L155.185 97.0828H155.895L157.787 101.72H157.831L159.887 97.0828H160.478L162.589 101.72H162.633L164.482 97.0828H165.17L162.895 102.606H162.316Z" fill="#939598"/>
<path d="M169.296 97.5092C167.524 97.5092 166.923 98.2965 166.813 99.4346H171.779C171.724 98.1773 171.079 97.5092 169.296 97.5092ZM169.274 102.76C168.213 102.76 167.524 102.606 166.977 102.146C166.332 101.588 166.113 100.78 166.113 99.8505C166.113 98.9642 166.409 98.0242 167.142 97.4877C167.754 97.0612 168.509 96.9301 169.296 96.9301C170.007 96.9301 170.828 97.0062 171.505 97.4661C172.304 98.0012 172.457 98.9426 172.457 100.014H166.791C166.813 101.151 167.185 102.158 169.329 102.158C170.346 102.158 171.298 101.993 172.184 101.841V102.42C171.265 102.585 170.248 102.76 169.274 102.76Z" fill="#939598"/>
<path d="M174.31 102.606V97.0829H174.835L174.89 97.4117C176.059 97.1159 176.607 96.9302 177.634 96.9302H177.711V97.5428H177.558C176.694 97.5428 176.169 97.662 174.955 97.9798V102.606H174.31Z" fill="#939598"/>
<path d="M181.459 97.5092C179.687 97.5092 179.086 98.2965 178.976 99.4346H183.942C183.888 98.1773 183.242 97.5092 181.459 97.5092ZM181.438 102.76C180.376 102.76 179.687 102.606 179.14 102.146C178.495 101.588 178.276 100.78 178.276 99.8505C178.276 98.9642 178.572 98.0242 179.305 97.4877C179.917 97.0612 180.672 96.9301 181.459 96.9301C182.17 96.9301 182.991 97.0062 183.668 97.4661C184.467 98.0012 184.62 98.9426 184.62 100.014H178.955C178.976 101.151 179.348 102.158 181.492 102.158C182.509 102.158 183.461 101.993 184.347 101.841V102.42C183.428 102.585 182.411 102.76 181.438 102.76Z" fill="#939598"/>
<path d="M191.69 97.8928C191.001 97.6406 190.213 97.52 189.459 97.52C187.544 97.52 186.636 98.1661 186.636 99.8503C186.636 101.446 187.38 102.146 188.824 102.146C189.688 102.146 190.695 101.938 191.69 101.72V97.8928ZM191.81 102.607L191.755 102.278C190.87 102.486 189.644 102.759 188.77 102.759C188.059 102.759 187.38 102.661 186.812 102.19C186.155 101.654 185.947 100.791 185.947 99.8503C185.947 98.8663 186.276 97.9354 187.172 97.4324C187.796 97.072 188.638 96.9298 189.404 96.9298C190.169 96.9298 190.913 97.0615 191.69 97.2797V94.7531H192.335V102.607H191.81Z" fill="#939598"/>
<path d="M201.798 97.5429C200.933 97.5429 199.927 97.7506 198.932 97.9799V101.786C199.632 102.049 200.408 102.169 201.164 102.169C203.077 102.169 203.985 101.524 203.985 99.8388C203.985 98.2532 203.241 97.5429 201.798 97.5429ZM203.449 102.267C202.825 102.617 201.983 102.759 201.229 102.759C200.408 102.759 199.588 102.617 198.757 102.343L198.724 102.607H198.286V94.7536H198.932V97.3888C199.818 97.1931 201.01 96.9303 201.852 96.9303C202.563 96.9303 203.241 97.0385 203.81 97.4984C204.466 98.0349 204.674 98.8983 204.674 99.8388C204.674 100.824 204.345 101.754 203.449 102.267Z" fill="#939598"/>
<path d="M205.53 104.728V104.127C205.847 104.16 206.143 104.182 206.351 104.182C207.149 104.182 207.63 103.951 208.079 103.043L208.286 102.606L205.399 97.0829H206.143L208.615 101.851H208.659L211.01 97.0829H211.743L208.637 103.285C208.068 104.411 207.455 104.783 206.328 104.783C206.077 104.783 205.804 104.761 205.53 104.728Z" fill="#939598"/>
<path d="M220.638 99.4563H218.494V101.393H220.648C222.125 101.393 222.682 101.228 222.682 100.419C222.682 99.5539 221.918 99.4563 220.638 99.4563ZM220.244 96.3166H218.494V98.2856H220.255C221.71 98.2856 222.289 98.1109 222.289 97.2906C222.289 96.4161 221.556 96.3166 220.244 96.3166V96.3166ZM223.569 102.082C222.781 102.585 221.83 102.606 220.09 102.606H216.82V95.1143H220.014C221.513 95.1143 222.431 95.1359 223.197 95.5958C223.744 95.9241 223.963 96.4272 223.963 97.0828C223.963 97.8702 223.635 98.3952 222.781 98.7455V98.7881C223.744 99.0083 224.368 99.5008 224.368 100.561C224.368 101.283 224.105 101.754 223.569 102.082Z" fill="#939598"/>
<path d="M230.91 100.288C230.264 100.233 229.608 100.2 228.919 100.2C227.793 100.2 227.399 100.43 227.399 100.943C227.399 101.425 227.727 101.688 228.59 101.688C229.313 101.688 230.177 101.524 230.91 101.359V100.288ZM231.238 102.607L231.194 102.278C230.254 102.508 229.16 102.759 228.197 102.759C227.606 102.759 226.972 102.683 226.523 102.354C226.108 102.059 225.911 101.578 225.911 101.02C225.911 100.396 226.185 99.8173 226.841 99.522C227.421 99.2482 228.197 99.2267 228.908 99.2267C229.488 99.2267 230.264 99.2592 230.91 99.3033V99.2042C230.91 98.3408 230.341 98.0565 228.788 98.0565C228.186 98.0565 227.453 98.0881 226.753 98.1541V97.0385C227.53 96.9739 228.405 96.9298 229.127 96.9298C230.089 96.9298 231.085 97.0064 231.697 97.4434C232.331 97.8928 232.452 98.5164 232.452 99.3358V102.607H231.238Z" fill="#939598"/>
<path d="M239.663 102.606V99.5539C239.663 98.5483 239.15 98.1879 238.23 98.1879C237.553 98.1879 236.7 98.3621 235.978 98.5378V102.606H234.436V97.0828H235.693L235.747 97.4322C236.721 97.1819 237.804 96.9301 238.701 96.9301C239.379 96.9301 240.068 97.0278 240.593 97.4983C241.03 97.8926 241.195 98.4382 241.195 99.2265V102.606H239.663Z" fill="#939598"/>
<path d="M245.552 102.759C244.841 102.759 244.064 102.661 243.495 102.18C242.817 101.633 242.62 100.769 242.62 99.8383C242.62 98.9639 242.904 98.012 243.747 97.4769C244.435 97.0275 245.289 96.9298 246.175 96.9298C246.809 96.9298 247.433 96.9739 248.122 97.0385V98.2202C247.564 98.1661 246.896 98.1221 246.361 98.1221C244.895 98.1221 244.206 98.5815 244.206 99.8503C244.206 101.043 244.72 101.556 245.923 101.556C246.623 101.556 247.443 101.425 248.242 101.272V102.409C247.378 102.585 246.437 102.759 245.552 102.759Z" fill="#939598"/>
<path d="M252.798 98.0883C251.332 98.0883 250.686 98.5487 250.686 99.8065C250.686 101.064 251.321 101.601 252.798 101.601C254.252 101.601 254.887 101.151 254.887 99.8931C254.887 98.6358 254.264 98.0883 252.798 98.0883ZM255.445 102.18C254.766 102.638 253.881 102.76 252.798 102.76C251.693 102.76 250.807 102.627 250.14 102.18C249.374 101.677 249.101 100.846 249.101 99.8505C249.101 98.8545 249.374 98.0122 250.14 97.5091C250.807 97.0612 251.693 96.93 252.798 96.93C253.891 96.93 254.766 97.0612 255.445 97.5091C256.21 98.0122 256.473 98.8545 256.473 99.8386C256.473 100.835 256.199 101.677 255.445 102.18" fill="#939598"/>
<path d="M265.376 102.759C264.447 102.759 263.441 102.607 262.685 101.982C261.789 101.238 261.516 100.091 261.516 98.8543C261.516 97.7501 261.865 96.4378 263.035 95.6715C263.943 95.0819 265.07 94.9613 266.207 94.9613C267.039 94.9613 267.892 95.0158 268.822 95.0924V96.4378C268.023 96.3718 267.039 96.3167 266.273 96.3167C264.14 96.3167 263.232 97.1265 263.232 98.8543C263.232 100.616 264.075 101.403 265.65 101.403C266.677 101.403 267.826 101.195 268.986 100.954V102.289C267.826 102.519 266.612 102.759 265.376 102.759Z" fill="#939598"/>
<path d="M273.518 97.9139C272.238 97.9139 271.746 98.3743 271.647 99.2162H275.366C275.322 98.3193 274.797 97.9139 273.518 97.9139ZM273.288 102.759C272.38 102.759 271.56 102.65 270.947 102.146C270.292 101.601 270.062 100.78 270.062 99.8384C270.062 98.9965 270.335 98.0565 271.101 97.509C271.779 97.0275 272.643 96.9299 273.518 96.9299C274.305 96.9299 275.235 97.017 275.913 97.4874C276.799 98.1111 276.876 99.074 276.887 100.211H271.637C271.67 101.054 272.118 101.601 273.671 101.601C274.634 101.601 275.705 101.458 276.613 101.316V102.398C275.552 102.574 274.393 102.759 273.288 102.759Z" fill="#939598"/>
<path d="M283.747 102.606V99.5539C283.747 98.5483 283.234 98.1879 282.314 98.1879C281.637 98.1879 280.784 98.3621 280.062 98.5378V102.606H278.52V97.0828H279.777L279.832 97.4322C280.805 97.1819 281.888 96.9301 282.785 96.9301C283.463 96.9301 284.152 97.0278 284.677 97.4983C285.115 97.8926 285.279 98.4382 285.279 99.2265V102.606H283.747Z" fill="#939598"/>
<path d="M289.669 102.759C288.925 102.759 288.246 102.551 287.875 101.971C287.602 101.578 287.47 101.043 287.47 100.298V98.2307H286.354V97.083H287.47L287.635 95.4093H289.002V97.083H291.178V98.2307H289.002V100.003C289.002 100.43 289.034 100.791 289.154 101.054C289.319 101.425 289.679 101.567 290.161 101.567C290.522 101.567 290.96 101.512 291.265 101.458V102.562C290.763 102.661 290.182 102.759 289.669 102.759Z" fill="#939598"/>
<path d="M292.683 102.606V97.0829H293.94L293.995 97.4322C295.013 97.1484 295.767 96.9302 296.73 96.9302C296.773 96.9302 296.839 96.9302 296.926 96.9402V98.253C296.751 98.2425 296.544 98.2425 296.391 98.2425C295.636 98.2425 295.067 98.3296 294.225 98.5273V102.606H292.683Z" fill="#939598"/>
<path d="M302.533 100.288C301.887 100.233 301.231 100.2 300.542 100.2C299.416 100.2 299.021 100.43 299.021 100.943C299.021 101.425 299.35 101.688 300.213 101.688C300.936 101.688 301.8 101.524 302.533 101.359V100.288ZM302.861 102.607L302.817 102.278C301.876 102.508 300.782 102.759 299.82 102.759C299.229 102.759 298.595 102.683 298.146 102.354C297.731 102.059 297.534 101.578 297.534 101.02C297.534 100.396 297.807 99.8173 298.464 99.522C299.043 99.2482 299.82 99.2267 300.531 99.2267C301.11 99.2267 301.887 99.2592 302.533 99.3033V99.2042C302.533 98.3408 301.964 98.0565 300.411 98.0565C299.809 98.0565 299.076 98.0881 298.376 98.1541V97.0385C299.153 96.9739 300.028 96.9298 300.75 96.9298C301.712 96.9298 302.708 97.0064 303.32 97.4434C303.954 97.8928 304.075 98.5164 304.075 99.3358V102.607H302.861Z" fill="#939598"/>
<path d="M306.059 94.7534H307.601V102.606H306.059V94.7534Z" fill="#939598"/>
</svg>
