<svg version="1.2" xmlns="http://www.w3.org/2000/svg" viewBox="0 0 166 169" width="166" height="169">
	<title>pix-banco-central-svg</title>
	<style>
		.s0 { fill: #32bcad } 
	</style>
	<g id="layer1">
		<path id="path2376" class="s0" d="m132.4 129.8l-31.6 31.6c-9.8 9.8-25.8 9.8-35.6 0l-31.5-31.5h4.9c6.5 0 12.6-2.5 17.2-7.1l24.9-24.9c1.7-1.7 4.8-1.7 6.5 0l24.8 24.8c4.6 4.6 10.7 7.1 17.2 7.1z"/>
		<path id="path2380" class="s0" d="m33.5 42l31.5-31.5c9.8-9.8 25.8-9.8 35.6 0l31.6 31.6h-3c-6.5 0-12.6 2.5-17.2 7.1l-24.9 24.8c-1.8 1.8-4.7 1.8-6.5 0l-24.9-24.9c-4.6-4.6-10.7-7.1-17.2-7.1z"/>
		<path id="path2384" class="s0" d="m158.3 103.7l-19.1 19.1c-0.5-0.2-0.9-0.3-1.4-0.3h-8.7c-4.4 0-8.8-1.8-12-5l-24.8-24.8c-4.5-4.5-12.4-4.5-16.9 0l-24.9 24.9c-3.1 3.2-7.5 5-12 5h-10.7c-0.5 0-0.9 0.1-1.3 0.3l-19.1-19.1c-9.8-9.8-9.8-25.8 0-35.6l19.2-19.2c0.4 0.2 0.8 0.3 1.3 0.3h10.7c4.4 0 8.8 1.8 12 5l24.9 24.9c2.3 2.3 5.3 3.5 8.4 3.5 3 0 6.1-1.2 8.4-3.5l24.8-24.8c3.1-3.2 7.5-5 12-5h8.7c0.5 0 1-0.1 1.4-0.3l19.1 19.1c9.8 9.8 9.8 25.7 0 35.5z"/>
	</g>
</svg>