<?xml version="1.0" encoding="utf-8"?>
<svg width="45" height="45" viewBox="0 0 45 45" fill="none" xmlns="http://www.w3.org/2000/svg">
  <g clip-path="url(#clip0_62_714)">
    <path d="M29.7011 41.4525C24.9003 45.0277 20.0994 45.0276 15.2986 41.4524L6.09041 34.595C1.28955 31.0198 -0.194019 26.3398 1.63972 20.555L5.15682 9.45969C6.99053 3.67493 10.8745 0.782579 16.8086 0.782622L28.1905 0.782703C34.1247 0.782746 38.0087 3.67515 39.8424 9.45994L43.3597 20.5553C45.1935 26.3401 43.71 31.0201 38.9092 34.5952L29.7011 41.4525Z" fill="#FFC900" stroke="black" stroke-width="0.0432973"/>
    <path d="M29.44 40.8899C24.776 44.3691 20.112 44.3691 15.4479 40.8898L6.50207 34.2164C1.838 30.7372 0.396701 26.1828 2.17817 20.5532L5.59507 9.75562C7.37654 4.12609 11.1498 1.31135 16.9149 1.31139L27.9725 1.31147C33.7376 1.31151 37.5109 4.12631 39.2925 9.75586L42.7095 20.5535C44.491 26.1831 43.0498 30.7375 38.3858 34.2167L29.44 40.8899Z" stroke="#EEE9B0" stroke-width="1.60987" stroke-linecap="round" stroke-linejoin="round"/>
    <path d="M29.9238 25.0652L22.7652 27.8007L17.7979 22.2171L21.8867 16.0307L29.3809 17.791L29.9238 25.0652ZM15.4039 36.3957L14.5176 33.949L20.9594 33.6237L25.2871 36.3537L22.9795 37.8587L15.4039 36.3957ZM6.82026 26.9595L9.82084 29.0026L11.2263 23.1724L8.76529 17.6036L6.14056 20.0972L6.82026 26.9595ZM13.1373 9.72788L12.6202 12.1492L18.846 10.9361L23.2319 8.14289L22.8172 7.07092L13.1373 9.72788ZM32.0873 9.96056L29.9842 9.81193L32.9333 14.3952L37.3128 17.6786L37.3554 15.5801L32.0873 9.96056ZM38.1815 26.7541L37.8777 24.4284L34.2926 28.1199L32.1944 33.4957L34.1827 33.5317" fill="#D28A1B"/>
    <path d="M21.1997 33.6902L21.1292 33.9176L20.6483 33.7838L20.7188 33.557L22.7651 26.9931L22.8356 26.7657L23.3165 26.8996L23.246 27.127L21.1997 33.6902ZM15.6226 34.761L15.7881 34.9392L15.4106 35.251L15.2451 35.0728L8.61834 27.925L8.45287 27.7467L8.83033 27.4349L8.99579 27.6132L15.6226 34.761ZM17.7599 21.9834L18.0078 21.9473L18.0843 22.4148L17.8364 22.4509L11.2643 23.4063L11.0171 23.4424L10.9406 22.9742L11.1885 22.9381L17.7599 21.9834ZM34.4435 28.0428L34.6419 28.1865L34.3369 28.5625L34.1378 28.4182L29.7715 25.2528L29.5724 25.1091L29.8781 24.7331L30.0765 24.8774L34.4435 28.0428ZM33.1101 32.9161L33.3419 32.8263L33.5314 33.2647L33.2996 33.3539L24.9916 36.5658L24.759 36.6557L24.5695 36.2172L24.8013 36.1274L33.1101 32.9161ZM31.211 10.0088L31.4526 10.0706L31.3208 10.5276L31.0792 10.4657L21.9861 8.12669L21.7445 8.06481L21.8763 7.60783L22.1179 7.67038L31.211 10.0088ZM22.1052 15.9144L22.2286 16.121L21.7918 16.3532L21.6685 16.1467L18.6281 11.0521L18.5048 10.8462L18.9415 10.6133L19.0649 10.8198L22.1052 15.9144ZM32.7552 14.2285L32.9313 14.0606L33.2878 14.3931L33.1117 14.5618L29.5593 17.9572L29.3832 18.1259L29.0267 17.7933L29.2028 17.6247L32.7552 14.2285ZM8.6147 18.5082L8.47882 18.7073L8.057 18.4521L8.19289 18.2523L13.0914 11.0486L13.2273 10.8488L13.6491 11.1047L13.5133 11.3038L8.6147 18.5082Z" fill="#D28A1B"/>
    <path fill-rule="evenodd" clip-rule="evenodd" d="M5.5659 22.1509C5.58786 21.0695 5.72507 19.993 5.97577 18.9374C6.22013 17.9121 6.57144 16.9125 7.02437 15.9532C7.91521 14.0696 9.18282 12.3661 10.7573 10.936C12.331 9.50517 14.1824 8.37438 16.2098 7.60601C17.2422 7.21541 18.3136 6.92225 19.4072 6.73097C20.5338 6.53488 21.6791 6.4467 22.8243 6.46744C23.9695 6.48817 25.1103 6.61775 26.2282 6.85449C27.3132 7.08522 28.3719 7.41694 29.3877 7.84464C31.3825 8.68584 33.1865 9.88283 34.701 11.3695C36.2162 12.8556 37.4138 14.6038 38.2275 16.5182C38.6411 17.4932 38.9516 18.5048 39.1541 19.5375C39.3618 20.6014 39.4552 21.6828 39.4332 22.7642C39.4113 23.8456 39.274 24.9229 39.0233 25.9784C38.779 27.003 38.4277 28.0027 37.9748 28.9619C37.0839 30.8455 35.8163 32.5491 34.2419 33.9792C32.6681 35.41 30.8168 36.5407 28.7894 37.3091C27.7569 37.6997 26.6856 37.9929 25.592 38.1842C24.4653 38.3802 23.32 38.4684 22.1748 38.4477C21.0296 38.427 19.8888 38.2974 18.7709 38.0606C17.6859 37.8299 16.6273 37.4982 15.6114 37.0705C13.6167 36.2293 11.8126 35.0323 10.2981 33.5456C8.78289 32.0595 7.58537 30.3113 6.77167 28.3969C6.35801 27.422 6.04755 26.4103 5.84499 25.3776C5.63733 24.3138 5.54394 23.2323 5.5659 22.1509ZM6.99828 22.1769C7.0184 21.1861 7.14375 20.2 7.3733 19.2333C7.59652 18.2963 7.91815 17.382 8.33289 16.5046C9.14813 14.78 10.3089 13.2199 11.7512 11.9113C13.1914 10.6005 14.8868 9.56499 16.7431 8.86185C17.6875 8.50415 18.6673 8.23572 19.6675 8.06102C20.6992 7.88147 21.7476 7.80101 22.7968 7.82001C23.8461 7.83901 24.8904 7.95737 25.9141 8.17413C26.9064 8.38491 27.8746 8.68862 28.8038 9.08025C30.6302 9.85007 32.2823 10.9462 33.6682 12.3081C35.0563 13.6681 36.1529 15.269 36.8975 17.0219C37.2763 17.9136 37.5606 18.8389 37.7456 19.7833C37.9357 20.7575 38.021 21.7475 38.0008 22.7383C37.9807 23.729 37.8554 24.7152 37.6258 25.6818C37.4026 26.6189 37.081 27.5331 36.6662 28.4105C35.851 30.1351 34.6902 31.6952 33.2479 33.0039C31.8077 34.3146 30.1123 35.3501 28.256 36.0533C27.3116 36.411 26.3318 36.6794 25.3317 36.8541C24.2999 37.0337 23.2515 37.1141 22.2023 37.0951C21.1531 37.0761 20.1087 36.9578 19.085 36.741C18.0927 36.5302 17.1245 36.2265 16.1953 35.8349C14.369 35.0651 12.7169 33.9689 11.331 32.607C9.94285 31.2471 8.84623 29.6461 8.10161 27.8933C7.7228 27.0015 7.43853 26.0763 7.25352 25.1319C7.06338 24.1576 6.97816 23.1676 6.99828 22.1769Z" fill="#D28A1B"/>
    <g style="mix-blend-mode:color-burn">
      <path d="M13.0831 8.73205L14.2232 12.4425L18.1924 13.6374L14.1776 14.6878L12.8876 18.3543L11.7475 14.6438L7.77823 13.4489L11.7931 12.3985L13.0831 8.73205Z" fill="#C6C6C6" style="stroke-width: 0px;"/>
      <path d="M13.0831 8.73205L14.2232 12.4425L18.1924 13.6374L14.1776 14.6878L12.8876 18.3543L11.7475 14.6438L7.77823 13.4489L11.7931 12.3985L13.0831 8.73205Z" stroke="black" style="stroke-width: 0px;"/>
    </g>
    <g style="mix-blend-mode:color-burn">
      <path d="M22.544 17.2597L23.6841 20.9702L27.6533 22.1651L23.6385 23.2155L22.3485 26.8819L21.2084 23.1715L17.2392 21.9766L21.254 20.9262L22.544 17.2597Z" fill="#C6C6C6" style="stroke-width: 0px;"/>
      <path d="M22.544 17.2597L23.6841 20.9702L27.6533 22.1651L23.6385 23.2155L22.3485 26.8819L21.2084 23.1715L17.2392 21.9766L21.254 20.9262L22.544 17.2597Z" stroke="black" style="stroke-width: 0px;"/>
    </g>
    <g style="mix-blend-mode:color-burn">
      <path d="M32.7813 26.1189L33.9214 29.8293L37.8906 31.0243L33.8758 32.0746L32.5858 35.7411L31.4457 32.0307L27.4765 30.8357L31.4913 29.7853L32.7813 26.1189Z" fill="#C6C6C6" style="stroke-width: 0px;"/>
      <path d="M32.7813 26.1189L33.9214 29.8293L37.8906 31.0243L33.8758 32.0746L32.5858 35.7411L31.4457 32.0307L27.4765 30.8357L31.4913 29.7853L32.7813 26.1189Z" stroke="black" style="stroke-width: 0px;"/>
    </g>
  </g>
  <defs>
    <clipPath id="clip0_62_714">
      <rect width="45" height="44.9172" fill="white"/>
    </clipPath>
  </defs>
</svg>