<?xml version="1.0" encoding="utf-8"?>
<svg viewBox="252.296 124.788 52 54.586" xmlns="http://www.w3.org/2000/svg">
  <path d="M 278.291 131.598 C 272.481 131.598 267.022 133.864 262.915 137.972 C 258.808 142.079 256.542 147.537 256.542 153.347 C 256.542 165.339 266.299 175.096 278.291 175.096 C 284.1 175.096 289.559 172.83 293.666 168.723 C 297.773 164.615 300.04 159.157 300.04 153.347 C 300.04 141.355 290.282 131.598 278.291 131.598 Z M 291.666 158.731 L 275.386 158.731 L 275.386 142.664 C 275.386 141.494 276.343 140.536 277.514 140.536 C 278.684 140.536 279.642 141.494 279.642 142.664 L 279.642 154.475 L 291.666 154.475 C 292.836 154.475 293.794 155.433 293.794 156.603 C 293.794 157.773 292.836 158.731 291.666 158.731 Z" fill="none"/>
  <path d="M 304.296 153.336 L 304.296 153.347 Z M 284.324 128.044 C 284.526 127.714 284.643 127.331 284.643 126.916 C 284.643 125.746 283.685 124.788 282.515 124.788 L 274.322 124.788 C 273.151 124.788 272.194 125.746 272.194 126.916 C 272.194 127.31 272.3 127.672 272.492 127.991 C 267.767 129.065 263.426 131.449 259.915 134.96 C 254.999 139.876 252.296 146.399 252.296 153.347 C 252.296 160.295 254.999 166.829 259.915 171.744 C 264.82 176.65 271.342 179.374 278.291 179.374 C 285.239 179.374 291.762 176.65 296.677 171.744 C 301.593 166.829 304.296 160.285 304.296 153.347 C 304.296 146.399 301.593 139.876 296.677 134.96 C 293.219 131.502 288.963 129.14 284.324 128.044 Z M 293.666 168.723 C 289.559 172.83 284.1 175.096 278.291 175.096 C 266.299 175.096 256.542 165.339 256.542 153.347 C 256.542 147.537 258.808 142.079 262.915 137.972 C 267.022 133.854 272.481 131.598 278.291 131.598 C 290.282 131.598 300.04 141.355 300.04 153.347 C 300.04 159.146 297.773 164.615 293.666 168.723 Z" style="fill: rgb(255, 255, 255);"/>
  <path d="M 291.719 154.688 L 279.748 154.688 L 279.748 142.93 C 279.748 141.77 278.844 140.781 277.695 140.749 C 276.482 140.706 275.492 141.674 275.492 142.877 L 275.492 157.135 C 275.492 158.135 276.301 158.944 277.301 158.944 L 291.772 158.944 C 292.975 158.944 293.943 157.954 293.9 156.741 C 293.858 155.592 292.868 154.688 291.719 154.688 Z" style="fill: rgb(255, 255, 255);"/>
</svg>