<svg version="1.2" xmlns="http://www.w3.org/2000/svg" viewBox="0 0 55 69" width="200" height="251">
	<title>soccer-shield</title>
	<style>
		.s0 { fill: #c4c4c4 } 
		.s1 { fill: #565656 } 
	</style>
	<path id="Layer" fill-rule="evenodd" class="s0" d="m7.6 52c-4.7-7.1-7.4-15.5-7.4-24.2v-27.3h54.6v27.3c0 8.7-2.7 17.1-7.4 24.2-4.8 7.4-11.8 12.9-19.9 16.4-8.1-3.5-15.1-9-19.9-16.4z"/>
	<path id="Layer" fill-rule="evenodd" class="s0" d="m25.5 23.2h-23.2v-20.7h23.2zm27.2-6.2h-25.2v-8.3h25.2zm-48 24.7h45.6q-1.6 4.4-4 8.3h-37.6q-2.4-3.9-4-8.3zm48-16.4v2.5q0 2.9-0.4 5.7h-49.6q-0.4-2.8-0.4-5.7v-2.5zm-37.4 32.9h24.2c-3.5 3.3-7.6 6.1-12.1 8-4.5-1.9-8.6-4.7-12.1-8z"/>
	<path id="Forma 2" class="s1" d="m6 51c0-0.6 0.3 0.8 0-1"/>
</svg>