<?xml version="1.0" encoding="utf-8"?>
<svg viewBox="290.401 99.893 49.359 51.56" xmlns="http://www.w3.org/2000/svg">
  <defs>
    <clipPath id="clip0_62_669">
      <rect width="50.989" height="52.979" fill="white"/>
    </clipPath>
  </defs>
  <g clip-path="url(#clip0_62_669)" transform="matrix(1, 0, 0, 1, 289.750732, 99.420387)">
    <path d="M12.2758 18.2531C9.90696 19.2215 8.76835 20.1612 8.33041 21.5099C8.26273 21.7251 8.24282 21.9009 8.22689 22.4461C8.20698 23.0809 8.21096 23.124 8.29058 23.2388C8.33437 23.3033 8.41798 23.3786 8.47371 23.4002C8.84794 23.5544 9.8074 23.3069 10.4643 22.8873C10.7669 22.6936 11.2526 22.2381 11.4715 21.9368C11.6785 21.6534 11.9891 21.0831 12.1364 20.7173C12.3315 20.2187 12.5226 19.4977 12.5345 19.1964C12.5425 19.035 12.5863 18.7373 12.6301 18.5293C12.7256 18.1025 12.7256 18.0989 12.6858 18.0989C12.6659 18.0989 12.4828 18.1706 12.2758 18.2531Z" fill="#78142A"/>
    <path d="M37.9775 18.1603C38.0532 18.4257 38.1726 19.1682 38.1407 19.1503C38.0412 19.0965 38.2442 19.9251 38.4951 20.6066C38.7817 21.3742 39.1639 21.9803 39.6655 22.4538C40.2746 23.0313 41.031 23.3864 41.7436 23.4331C42.3169 23.4725 42.4364 23.3542 42.4762 22.7229C42.5996 20.8003 41.3535 19.4301 38.4274 18.2608C38.2045 18.1711 38.0094 18.0993 37.9935 18.0993C37.9735 18.0993 37.9696 18.128 37.9775 18.1603Z" fill="#78142A"/>
    <path d="M6.11241 19.5048C5.47541 20.5773 5.11312 21.4489 4.96581 22.2595C4.87822 22.733 4.91404 23.8377 5.02949 24.2574C5.17679 24.8169 5.50722 25.3801 5.84561 25.6634C5.99291 25.7854 6.04865 25.8105 6.18799 25.8105C6.52241 25.8105 6.91256 25.4662 7.2231 24.8959C7.43808 24.5013 7.63316 23.8844 7.60132 23.7122C7.58141 23.6297 7.58539 23.6154 7.62122 23.6584C7.65307 23.7015 7.66103 23.6943 7.64113 23.6225C7.63317 23.5723 7.63715 23.3786 7.65308 23.1921C7.7128 22.5752 7.6093 21.9152 7.3346 21.1835C7.17138 20.7387 6.81308 20.007 6.53441 19.5407L6.31545 19.1676L6.11241 19.5048Z" fill="#78142A"/>
    <path d="M44.153 19.5378C43.6195 20.4381 43.2334 21.3706 43.0861 22.1023C42.9666 22.7049 42.9945 23.6483 43.1458 24.1791C43.3329 24.8355 43.7867 25.517 44.1808 25.7359C44.2605 25.7789 44.3799 25.8112 44.4794 25.8112C44.7541 25.8112 45.0288 25.5422 45.3593 24.9539C45.5424 24.6275 45.7335 24.0178 45.7017 23.8635C45.6857 23.7954 45.6937 23.7703 45.7255 23.7882C45.7534 23.8061 45.7574 23.799 45.7415 23.7703C45.7216 23.7452 45.7335 23.5658 45.7574 23.3721C45.8967 22.3858 45.5066 21.073 44.6268 19.5916L44.376 19.1683L44.153 19.5378Z" fill="#78142A"/>
    <path d="M11.1804 22.8837C10.3285 23.142 9.98609 23.2675 9.4964 23.497C8.12688 24.1498 7.29083 24.9784 6.9803 25.9899C6.88475 26.3127 6.79317 27.0588 6.84094 27.1592C6.88075 27.2453 6.88872 27.2668 6.89668 27.3349C6.90464 27.4497 7.11564 27.604 7.29877 27.6327C7.50181 27.6649 8.15074 27.6219 8.2861 27.5681C8.33387 27.5502 8.37368 27.5394 8.37368 27.5466C8.37368 27.5538 8.17064 27.6972 7.92779 27.8658C6.53438 28.8163 5.78592 29.6879 5.48334 30.7066C5.4276 30.9003 5.4077 31.0868 5.40769 31.5136C5.40769 31.8185 5.42361 32.1162 5.43953 32.1772C5.45944 32.2561 5.45944 32.2704 5.42759 32.231C5.39972 32.1915 5.39574 32.2382 5.41166 32.3924C5.49924 33.1277 5.93319 33.2066 6.98023 32.6722C7.37039 32.4749 7.70879 32.2274 7.94766 31.962C8.16264 31.7217 8.51299 31.1263 8.66427 30.7425C8.80362 30.391 8.98278 29.6557 8.95093 29.5481C8.935 29.4871 8.94297 29.4692 8.97482 29.4907C9.01065 29.5086 9.01463 29.4907 8.9987 29.4261C8.98278 29.3795 8.99871 29.1607 9.03056 28.9455C9.06241 28.7303 9.09824 28.2963 9.11019 27.9806C9.13806 27.3422 9.15797 27.17 9.20574 27.1843C9.27342 27.1987 9.76709 26.84 10.0577 26.5638C10.5434 26.1011 10.9057 25.5595 11.2799 24.7345C11.5626 24.1104 11.7219 23.5724 11.6024 23.6406C11.5626 23.6585 11.7059 23.1527 11.8174 22.8694C11.8851 22.6936 11.8851 22.69 11.8493 22.69C11.8294 22.69 11.5308 22.7761 11.1804 22.8837Z" fill="#78142A"/>
    <path d="M38.8302 22.7084C38.8302 22.7299 38.9655 23.1604 39.0969 23.5657C39.1128 23.6123 39.1049 23.6231 39.069 23.6051C39.0292 23.5836 39.0213 23.6195 39.0372 23.7701C39.085 24.1826 39.6781 25.4201 40.1001 25.994C40.2116 26.1447 40.4306 26.3922 40.5898 26.5464C40.8924 26.8405 41.4975 27.2781 41.4975 27.2064C41.4975 27.1813 41.5055 27.1705 41.5174 27.1813C41.5413 27.1992 41.6328 28.7559 41.6289 29.0393C41.6249 29.1756 41.6368 29.215 41.6567 29.1648C41.6806 29.1182 41.6846 29.1541 41.6687 29.2545C41.6448 29.4518 41.812 30.2158 41.9792 30.6677C42.1344 31.0874 42.4848 31.6972 42.7197 31.9626C42.9585 32.228 43.2969 32.4755 43.6871 32.6728C44.3241 32.9956 44.7062 33.0853 44.9571 32.9669C45.1282 32.888 45.2556 32.637 45.2278 32.4361C45.2158 32.3536 45.2198 32.3106 45.2357 32.3357C45.2557 32.3608 45.2676 32.307 45.2716 32.2065C45.2716 32.1133 45.2756 31.8156 45.2795 31.5501C45.2915 30.926 45.1721 30.4526 44.8735 29.9253C44.5311 29.3155 43.715 28.5156 42.8033 27.8951C42.3017 27.5543 42.1146 27.4144 42.3455 27.5472C42.453 27.6117 43.1298 27.6691 43.3686 27.6333C43.5518 27.6046 43.7628 27.4503 43.7707 27.3356C43.7827 27.2351 43.7867 27.2172 43.8185 27.1885C43.8663 27.1455 43.8504 26.6648 43.7867 26.3456C43.6354 25.5529 43.2811 24.9718 42.5884 24.3764C41.8678 23.7558 40.6177 23.1676 39.2323 22.7981C39.073 22.7551 38.9138 22.712 38.8859 22.7012C38.8541 22.6905 38.8302 22.6941 38.8302 22.7084Z" fill="#78142A"/>
    <path d="M3.4252 24.1067C3.18234 24.8385 3.11068 25.0716 3.02309 25.4339C2.84393 26.1871 2.78819 26.6964 2.82004 27.299C2.83596 27.5932 2.8479 27.8765 2.8479 27.9267C2.85188 28.3177 3.03102 28.9526 3.246 29.3435C3.4769 29.756 3.89492 30.2223 4.22933 30.4411C4.47218 30.599 4.66327 30.6241 4.87428 30.5272C5.0176 30.4591 5.21666 30.1829 5.35998 29.8601C5.59487 29.3292 5.64663 28.9957 5.64266 28.0703C5.64266 27.6183 5.62674 27.4605 5.55508 27.2202C5.31622 26.4203 4.83053 25.6204 3.98256 24.6448C3.41724 23.9955 3.45307 24.0278 3.4252 24.1067Z" fill="#78142A"/>
    <path d="M46.9916 24.3119C46.4184 24.9791 46.287 25.1369 46.0441 25.4705C45.2996 26.4963 44.9772 27.3822 45.009 28.3435C45.013 28.5838 45.0369 28.7739 45.0528 28.7632C45.0687 28.7524 45.0727 28.7883 45.0568 28.8385C44.997 29.0573 45.2558 29.8572 45.5066 30.2338C45.6738 30.4813 45.8331 30.5817 46.064 30.5817C46.2869 30.5817 46.6253 30.3486 46.9717 29.9648C47.2703 29.6241 47.4614 29.312 47.6087 28.9211C47.8077 28.3866 47.8476 28.0243 47.8436 26.959C47.8396 26.3278 47.8237 26.1556 47.7361 25.7431C47.6326 25.2625 47.2703 24.0537 47.2305 24.0573C47.2186 24.0573 47.1111 24.172 46.9916 24.3119Z" fill="#78142A"/>
    <path d="M1.35165 29.8529C1.37156 30.1255 1.38748 30.4554 1.38748 30.5882C1.38748 30.7173 1.39544 30.8141 1.40738 30.7962C1.41932 30.7819 1.43127 30.8751 1.43525 31.0042C1.44321 31.3271 1.61837 32.1198 1.78955 32.5861C2.21154 33.7554 2.94407 34.5588 4.00305 35.0108C4.73956 35.3265 5.08194 35.1579 5.14166 34.4441C5.15759 34.2827 5.16953 33.8738 5.16556 33.5402C5.16556 32.9484 5.16158 32.9197 5.03419 32.5897C4.67191 31.6356 3.9155 30.8465 2.59377 30.0502C2.25139 29.8421 1.37555 29.3615 1.3437 29.3615C1.32777 29.3615 1.33573 29.5838 1.35165 29.8529Z" fill="#78142A"/>
    <path d="M48.8858 29.5954C46.7918 30.7324 45.7766 31.7654 45.5337 33.0208C45.47 33.3615 45.474 34.165 45.5416 34.33C45.5615 34.373 45.5576 34.3874 45.5297 34.373C45.466 34.3372 45.5814 34.8286 45.665 34.9577C45.8362 35.2231 46.1667 35.2303 46.732 34.9792C47.6317 34.5775 48.2886 33.9211 48.7106 32.9921C48.9694 32.4218 49.2401 31.396 49.1964 31.1593C49.1844 31.0875 49.1884 31.0481 49.2083 31.0732C49.2282 31.0947 49.2402 31.0445 49.2402 30.9476C49.2441 30.8544 49.264 30.5531 49.2919 30.2769C49.3198 30.0007 49.3477 29.6815 49.3596 29.5667C49.3715 29.4555 49.3636 29.3623 49.3477 29.3623C49.3317 29.3623 49.1247 29.4663 48.8858 29.5954Z" fill="#78142A"/>
    <path d="M8.45013 31.7181C6.86562 33.221 6.15696 34.5302 6.24454 35.7999C6.25648 36.0151 6.27638 36.3236 6.28434 36.4814C6.3122 36.9728 6.51524 37.5037 6.73022 37.6292C7.00491 37.7942 7.31943 37.7081 7.82902 37.3351C8.31074 36.9764 8.6571 36.5711 8.88005 36.0941C9.04328 35.7426 9.17466 35.2942 9.19059 35.0108C9.19855 34.8925 9.22642 34.6019 9.25031 34.3652C9.29809 33.9312 9.28217 33.325 9.20654 32.8049C9.14682 32.3781 8.91991 31.3343 8.88806 31.3343C8.87213 31.3343 8.67706 31.5065 8.45013 31.7181Z" fill="#78142A"/>
    <path d="M41.7443 31.4963C41.4895 32.497 41.4099 33.157 41.4258 34.086C41.4338 34.5021 41.4457 34.8392 41.4577 34.832C41.4696 34.8249 41.4815 34.911 41.4815 35.0221C41.4895 35.2732 41.6487 35.8256 41.812 36.1484C42.1145 36.7546 42.7396 37.3644 43.3288 37.6334C43.6871 37.7948 43.9657 37.7087 44.1409 37.3859C44.3559 36.9878 44.4236 36.543 44.4196 35.5495C44.4196 35.0796 44.4037 34.9684 44.3121 34.6635C44.0335 33.7489 43.3567 32.7804 42.2977 31.794L41.7881 31.3205L41.7443 31.4963Z" fill="#78142A"/>
    <path d="M0.650521 34.444C0.650521 34.4512 0.722181 34.5875 0.813745 34.7453C1.00086 35.0861 1.06057 35.2188 1.0128 35.1937C0.953082 35.1578 0.941137 35.3336 0.988909 35.5057C1.11232 35.9397 2.0439 37.1844 2.62912 37.6866C3.12278 38.1134 3.74781 38.4829 4.15389 38.5869C4.29721 38.6228 4.34897 38.6443 4.27332 38.6335C4.19768 38.6228 3.96279 38.5905 3.75578 38.5618C3.28998 38.5008 2.35043 38.4362 1.85677 38.4362L1.48652 38.4362L1.69752 38.7303C1.98416 39.1321 1.98416 39.1321 1.93241 39.1034C1.86075 39.0639 1.82889 39.2504 1.88065 39.4047C1.98017 39.706 2.91971 40.7533 3.48901 41.2053C3.86722 41.503 4.37282 41.8079 4.69927 41.9406C5.08943 42.0949 5.47161 42.2025 5.66271 42.2061L5.84584 42.2096L5.66669 42.2383C5.56716 42.2563 5.17303 42.3137 4.79084 42.3675C4.40865 42.4212 4.08617 42.4715 4.07423 42.4786C4.06627 42.4858 4.07423 42.5037 4.09413 42.5181C4.20163 42.5862 4.64353 43.0346 4.58381 43.0167C4.51215 42.9951 4.47234 43.0525 4.47234 43.1853C4.47234 43.3216 4.68333 43.5726 5.03367 43.856C6.42308 44.9787 7.54576 45.4701 8.77195 45.4809C9.02276 45.4809 9.29348 45.4737 9.36912 45.4558C9.44477 45.4415 9.22978 45.5168 8.89139 45.6208C7.95183 45.9149 7.65723 46.0153 7.65723 46.0404C7.65723 46.0512 7.77268 46.1409 7.916 46.2341C8.13496 46.3776 8.32207 46.5354 8.18273 46.4565C8.13098 46.4278 8.05534 46.5426 8.05533 46.6502C8.05533 47.0053 9.99016 47.9451 11.2004 48.1783C11.6981 48.2751 12.5023 48.268 12.9681 48.164C13.4179 48.0635 14.0071 47.8125 14.1982 47.6439C14.3535 47.5004 14.4212 47.3139 14.3495 47.1991C14.3177 47.1381 14.3336 47.113 14.465 47.0234C14.5526 46.966 14.6242 46.9086 14.6242 46.8942C14.6242 46.8799 14.5207 46.7508 14.3933 46.6073C13.7484 45.8791 12.9283 45.4308 11.9728 45.2837C11.6185 45.2299 10.5077 45.2621 10.0857 45.3375C9.5642 45.4307 9.5005 45.4307 9.85084 45.3482C10.0539 45.3016 10.2569 45.2263 10.3365 45.1689C10.4878 45.0649 10.5794 44.8676 10.5396 44.7277C10.5197 44.6631 10.5436 44.6344 10.6391 44.5878C10.7068 44.5591 10.7625 44.5197 10.7625 44.5053C10.7625 44.491 10.6988 44.369 10.6232 44.2363C9.97428 43.0993 8.93521 42.4393 7.51394 42.2707C7.06407 42.2168 7.00834 42.2025 7.15166 42.163C7.3547 42.1128 7.48608 41.955 7.50598 41.7398C7.50997 41.6681 7.54181 41.6214 7.58561 41.6071C7.67717 41.582 7.67717 41.5856 7.53784 41.1982C7.10789 40.0181 6.32361 39.2828 4.98993 38.8236C4.8267 38.7698 4.75504 38.734 4.83068 38.7483C4.90632 38.7662 5.15714 38.777 5.38804 38.777C5.71052 38.777 5.83791 38.7627 5.95337 38.7125C6.10863 38.6407 6.24399 38.4399 6.21214 38.3287C6.2002 38.2856 6.22011 38.2569 6.26788 38.2462C6.35945 38.2247 6.35945 38.1709 6.28381 37.8014C6.04097 36.6536 5.29252 35.7641 4.11809 35.226C3.49305 34.9426 2.54953 34.6987 1.46666 34.5445C1.11631 34.4978 0.789861 34.4512 0.742088 34.4404C0.690333 34.4333 0.650522 34.4333 0.650521 34.444Z" fill="#78142A"/>
    <path d="M49.8179 34.4592C48.8943 34.5883 48.4882 34.6565 48.0463 34.7605C46.1194 35.198 45.0167 36.0015 44.5429 37.3143C44.4394 37.5976 44.316 38.1823 44.3518 38.2289C44.3597 38.2468 44.4075 38.2576 44.4553 38.2612C44.5031 38.2612 44.519 38.2719 44.4951 38.2827C44.4274 38.3042 44.4314 38.419 44.5031 38.541C44.6026 38.7167 44.8017 38.7777 45.2993 38.7777C45.5421 38.7777 45.793 38.7634 45.8567 38.749C45.9243 38.7311 45.8049 38.7813 45.5939 38.8602C45.0525 39.0575 44.5986 39.3121 44.2363 39.617C43.7267 40.0474 43.3724 40.5603 43.1534 41.1916C43.026 41.5539 43.026 41.5862 43.1415 41.6292C43.1893 41.6472 43.2092 41.6615 43.1853 41.6615C43.1534 41.6651 43.1494 41.7045 43.1654 41.7835C43.2251 42.0202 43.3286 42.1242 43.5396 42.1673C43.663 42.1924 43.663 42.1924 43.5675 42.2103C43.5117 42.2211 43.2808 42.2569 43.0499 42.2892C41.768 42.4721 40.8483 43.0281 40.2074 44.0073C40.1078 44.1579 40.0003 44.3372 39.9685 44.4054C39.9128 44.5238 39.9128 44.5238 40.0601 44.5991C40.1397 44.6421 40.1835 44.678 40.1636 44.678C40.1038 44.678 40.0959 44.8179 40.1476 44.9578C40.2034 45.1084 40.4502 45.2734 40.6652 45.3057C40.7528 45.3201 40.8204 45.338 40.8085 45.3452C40.8005 45.3523 40.5895 45.3344 40.3387 45.3021C39.7256 45.2232 38.7662 45.2483 38.372 45.3487C37.5121 45.5711 36.8154 46.0087 36.2023 46.7117L36.0391 46.8982L36.1983 47.013C36.3337 47.1098 36.3536 47.1385 36.3178 47.1959C36.2501 47.3143 36.3138 47.5008 36.469 47.6443C36.6601 47.8129 37.2493 48.0639 37.6992 48.1644C38.165 48.2684 38.9692 48.2756 39.4668 48.1788C40.6612 47.9492 42.6119 47.0023 42.6119 46.6544C42.6119 46.5504 42.5403 46.4284 42.4885 46.4535C42.4686 46.4679 42.4527 46.4679 42.4527 46.4607C42.4527 46.4499 42.5881 46.3567 42.7513 46.2491C42.9145 46.1451 43.0499 46.0482 43.0499 46.0375C43.0499 46.0267 42.9663 45.9908 42.8628 45.9586C41.4734 45.5281 41.1827 45.4348 41.3181 45.4564C41.553 45.4994 42.2775 45.4851 42.5522 45.4349C43.3803 45.2806 44.292 44.8682 45.0843 44.2799C46.0437 43.5662 46.3344 43.229 46.1393 43.0533C46.0875 43.0102 46.1154 42.9672 46.3423 42.7448C46.4856 42.6013 46.5971 42.483 46.5892 42.4758C46.5732 42.4686 46.1632 42.404 45.1599 42.2605C44.8812 42.2175 44.8534 42.2103 45.0047 42.2067C45.1958 42.2032 45.5779 42.0956 45.9641 41.9413C46.5175 41.7189 47.2301 41.2168 47.7596 40.6788C48.1737 40.2591 48.6554 39.6781 48.7509 39.4844C48.8345 39.3158 48.8345 39.1293 48.7509 39.1472C48.6872 39.158 48.7111 39.1149 48.9819 38.7311L49.1809 38.455L48.8943 38.4442C48.532 38.4298 47.4531 38.4944 46.9515 38.5625C46.2388 38.6558 46.2388 38.6558 46.4897 38.5948C46.8599 38.5015 47.4611 38.1644 47.9428 37.7698C48.7112 37.1457 49.802 35.5998 49.7065 35.2734C49.6985 35.2375 49.6746 35.2196 49.6547 35.2304C49.6069 35.2555 49.6666 35.1228 49.8577 34.7784C49.9493 34.617 50.017 34.4736 50.009 34.4592C50.0011 34.4449 49.9175 34.4449 49.8179 34.4592ZM46.1035 38.7096C46.0915 38.7203 46.0557 38.7239 46.0278 38.7132C45.996 38.7024 46.0079 38.6916 46.0517 38.6916C46.0955 38.688 46.1194 38.6988 46.1035 38.7096ZM40.9677 45.381C40.9558 45.3918 40.92 45.3954 40.8921 45.3846C40.8603 45.3739 40.8722 45.3631 40.916 45.3631C40.9598 45.3595 40.9837 45.3703 40.9677 45.381ZM41.127 45.4169C41.115 45.4277 41.0792 45.4313 41.0514 45.4205C41.0195 45.4097 41.0314 45.399 41.0752 45.399C41.119 45.3954 41.1429 45.4061 41.127 45.4169Z" fill="#78142A"/>
    <path d="M40.6296 36.1341C40.4465 36.6362 40.2633 37.2783 40.1598 37.7733C40.0881 38.1104 40.0483 39.6348 40.112 39.599C40.1279 39.5882 40.1319 39.6277 40.12 39.6886C40.0881 39.8321 40.2036 40.3307 40.3509 40.6714C40.6495 41.3709 41.5333 42.2389 41.9433 42.2389C42.1702 42.2389 42.437 41.9879 42.648 41.5754C42.859 41.1736 42.9147 40.7719 42.9068 39.7461C42.9028 39.3156 42.8869 39.1507 42.8152 38.9103C42.5525 38.0064 41.9951 37.0631 41.1312 36.0588C40.976 35.8758 40.8366 35.718 40.8247 35.7036C40.8088 35.6893 40.7212 35.883 40.6296 36.1341Z" fill="#78142A"/>
    <path d="M9.4374 36.2053C8.22313 37.6687 7.67372 38.9205 7.75732 40.0325C7.76926 40.2297 7.78916 40.5346 7.79712 40.714C7.81702 41.1193 7.91655 41.4457 8.12755 41.7649C8.30271 42.0304 8.47788 42.1882 8.63713 42.2241C9.0432 42.3173 9.98674 41.4421 10.3172 40.671C10.4525 40.3589 10.5839 39.8281 10.5481 39.7456C10.5362 39.7133 10.5441 39.6057 10.568 39.5017C10.5879 39.4012 10.6078 39.082 10.6078 38.795C10.6118 38.2391 10.5481 37.7764 10.3809 37.163C10.2495 36.6716 9.91514 35.7103 9.87931 35.7103C9.8594 35.7103 9.66034 35.9327 9.4374 36.2053Z" fill="#78142A"/>
    <path d="M11.6783 38.978C10.9259 40.3589 10.6671 41.2449 10.691 42.3532C10.6989 42.6617 10.7149 42.8948 10.7308 42.8733C10.7507 42.8482 10.7507 42.8805 10.7387 42.9414C10.6631 43.293 11.0453 44.2112 11.4593 44.6883C11.7619 45.0326 12.0207 45.1187 12.2954 44.9645C12.574 44.8102 13.0717 44.1036 13.2469 43.6194C13.3265 43.3934 13.43 42.9128 13.4061 42.8769C13.3942 42.8626 13.4061 42.6832 13.43 42.4788C13.5335 41.557 13.227 40.4952 12.4746 39.1717C12.3074 38.874 12.1282 38.5798 12.0844 38.5117L12.0008 38.3862L11.6783 38.978Z" fill="#78142A"/>
    <path d="M38.5153 38.6556C38.0216 39.4411 37.5996 40.3271 37.4165 40.9584C37.2612 41.5 37.2294 41.7977 37.2532 42.4864C37.2811 43.3364 37.4085 43.7669 37.7947 44.3408C38.3361 45.1478 38.7222 45.2411 39.208 44.6887C39.5822 44.2547 39.8887 43.566 39.9286 43.0639C39.9365 42.9348 39.9604 42.6657 39.9803 42.4649C40.0838 41.4319 39.7574 40.3128 38.9214 38.817L38.6825 38.3866L38.5153 38.6556Z" fill="#78142A"/>
    <path d="M14.3652 40.9902C14.3572 41.0153 14.3094 41.27 14.2577 41.557C14.182 41.9981 14.1701 42.2313 14.1661 43.0993C14.1581 44.2076 14.194 44.5376 14.3651 45.09C14.6279 45.9222 15.1773 46.6324 15.9098 47.07C16.3875 47.3569 16.6622 47.3211 16.8852 46.948C17.0285 46.7006 17.1798 46.2127 17.1957 45.933C17.1997 45.8254 17.2156 45.542 17.2316 45.3053C17.2674 44.821 17.2276 44.5413 17.0683 44.0893C16.8056 43.3433 16.2801 42.633 15.3605 41.7758C14.7752 41.2306 14.3891 40.9257 14.3652 40.9902Z" fill="#78142A"/>
    <path d="M35.6607 41.4748C34.5101 42.4935 33.9289 43.2395 33.6144 44.1004C33.487 44.459 33.3954 45.0365 33.4352 45.284C33.4472 45.3737 33.4671 45.6104 33.475 45.8077C33.5029 46.4103 33.7378 47.0523 33.9886 47.1958C34.2951 47.368 34.7689 47.1564 35.37 46.5861C35.7443 46.2346 35.9911 45.8723 36.1862 45.3988C36.3335 45.0437 36.4529 44.5595 36.4211 44.4591C36.4052 44.4196 36.4131 44.3909 36.441 44.3909C36.4728 44.3909 36.4808 44.3622 36.4689 44.3156C36.4569 44.2762 36.4728 44.0394 36.5087 43.7884C36.5485 43.4691 36.5604 43.1714 36.5445 42.7948C36.5166 42.1097 36.3534 40.9476 36.2858 40.9476C36.2738 40.9476 35.9911 41.1843 35.6607 41.4748Z" fill="#78142A"/>
    <path d="M17.7733 44.2902C17.9803 44.7529 18.048 44.9322 18.0082 44.9107C17.9843 44.8964 17.9684 44.9538 17.9684 45.0614C17.9684 45.3411 18.4262 46.1841 18.9716 46.905C19.8275 48.0421 21.0776 48.7308 22.2839 48.7308C22.7776 48.7308 22.9448 48.634 23.0005 48.3291C23.0045 48.2896 23.0324 48.2466 23.0602 48.2322C23.1 48.2071 23.104 48.1354 23.0682 47.8807C22.8055 45.9259 21.4718 44.8821 18.4342 44.2507C18.048 44.1682 17.7215 44.1037 17.7096 44.1037C17.6977 44.1037 17.7295 44.1897 17.7733 44.2902Z" fill="#78142A"/>
    <path d="M32.3361 44.2295C29.9115 44.7244 28.5938 45.4633 27.9727 46.6792C27.7378 47.1347 27.5348 48.0315 27.6224 48.218C27.6423 48.2538 27.6622 48.322 27.6701 48.3686C27.7219 48.6376 27.905 48.7309 28.3827 48.7309C29.6408 48.7309 30.871 48.0279 31.7827 46.7833C32.2206 46.1915 32.6665 45.3665 32.6904 45.1154C32.7023 44.972 32.6983 44.9253 32.6625 44.9433C32.6187 44.9684 32.6506 44.8895 32.8735 44.3945C32.985 44.1506 32.9969 44.1039 32.9492 44.1075C32.9293 44.1075 32.6546 44.1649 32.3361 44.2295Z" fill="#78142A"/>
    <path d="M15.9066 47.443C15.1382 47.5327 14.1748 47.8878 13.2511 48.4258C12.8212 48.6733 12.0011 49.2077 11.9971 49.2364C11.9971 49.2508 12.1086 49.2938 12.2479 49.3404C12.5106 49.4265 12.6142 49.4839 12.5067 49.4839C12.4669 49.4839 12.431 49.527 12.4151 49.5915C12.3594 49.8247 12.5942 49.9681 13.3148 50.1439C15.592 50.6999 17.2243 50.4776 18.3709 49.4481C18.6695 49.1827 18.773 48.9783 18.6934 48.824C18.6575 48.7487 18.6695 48.7128 18.8088 48.5479C18.8924 48.4438 18.9641 48.3506 18.9641 48.3398C18.9641 48.3291 18.8646 48.2537 18.7451 48.1748C17.8335 47.5758 16.878 47.3283 15.9066 47.443Z" fill="#78142A"/>
    <path d="M33.7455 47.4541C33.1284 47.5617 32.4835 47.8163 31.9699 48.1571L31.7031 48.3364L31.8624 48.5301C32.0097 48.7059 32.0216 48.731 31.9778 48.8171C31.8942 48.9821 31.9938 49.1793 32.2963 49.4484C33.4429 50.4778 35.0752 50.7002 37.3524 50.1443C38.069 49.9685 38.3078 49.8251 38.2521 49.5955C38.2402 49.5381 38.1964 49.4843 38.1606 49.4771C38.1247 49.47 38.2322 49.4126 38.4034 49.3516L38.7179 49.244L38.2163 48.914C37.006 48.1141 36.0267 47.6693 35.111 47.4971C34.6611 47.4146 34.0879 47.3967 33.7455 47.4541Z" fill="#78142A"/>
    <path d="M25.0311 48.2681C24.84 48.3183 24.5534 48.5658 24.4777 48.7488C24.426 48.8707 24.414 48.964 24.4339 49.1505C24.4498 49.2832 24.4578 49.4518 24.4578 49.5199C24.4498 49.8607 24.7046 50.2122 25.0351 50.3091C25.5845 50.4741 26.1697 50.1226 26.1976 49.6096C26.2015 49.5092 26.2294 49.355 26.2533 49.2617C26.2931 49.129 26.2931 49.0465 26.2533 48.8994C26.1299 48.4009 25.5885 48.1211 25.0311 48.2681Z" fill="#78142A"/>
    <path d="M20.7753 48.9675C19.6765 49.1325 18.4383 49.7817 17.0529 50.9079L16.8379 51.0873L17.1325 51.1698C17.2957 51.2164 17.3992 51.2595 17.3634 51.2666C17.2718 51.2882 17.228 51.4388 17.2838 51.5464C17.3475 51.6719 17.5824 51.7652 18.0322 51.8477C20.2935 52.2602 21.886 51.9805 23.0087 50.9762C23.2834 50.7287 23.4466 50.5099 23.4625 50.3628C23.4824 50.2122 23.4625 50.1261 23.4148 50.1512C23.367 50.1799 23.367 50.1763 23.57 49.8894C23.6417 49.7854 23.7014 49.6885 23.7014 49.667C23.7014 49.6132 23.5063 49.502 23.1162 49.3262C22.2921 48.9532 21.5795 48.842 20.7753 48.9675Z" fill="#78142A"/>
    <path d="M28.7137 48.9677C28.5465 48.9928 28.2798 49.0573 28.1165 49.1111C27.814 49.208 27.2168 49.4734 27.0536 49.5882L26.958 49.6527L27.1213 49.8895C27.2088 50.0222 27.2646 50.1298 27.2447 50.1298C27.173 50.1298 27.2009 50.4167 27.2885 50.5638C27.3322 50.6427 27.4995 50.8256 27.6547 50.9691C28.7654 51.9806 30.3698 52.264 32.6351 51.848C33.085 51.7655 33.3199 51.6722 33.3836 51.5467C33.4393 51.4391 33.3955 51.2884 33.304 51.2705C33.2681 51.2598 33.3756 51.2167 33.5468 51.1665L33.8573 51.0804L33.4871 50.7899C32.0459 49.6672 31.0108 49.1399 29.8961 48.9641C29.4741 48.8995 29.1238 48.8995 28.7137 48.9677Z" fill="#78142A"/>
    <path d="M24.335 10.8447C25.0309 10.4803 25.7268 10.4803 26.4228 10.8447L39.2479 17.5605C39.9438 17.9249 40.3777 18.5165 40.5496 19.3353L43.717 34.4252C43.8889 35.2441 43.734 35.9818 43.2524 36.6384L34.377 48.7395C33.8954 49.3961 33.2683 49.7244 32.4959 49.7244L18.261 49.7243C17.4886 49.7243 16.8615 49.3959 16.3799 48.7393L7.50476 36.638C7.02316 35.9814 6.86831 35.2436 7.04021 34.4248L10.2079 19.335C10.3798 18.5162 10.8138 17.9246 11.5097 17.5602L24.335 10.8447Z" fill="#A72A46" stroke="#D1B2DF" stroke-width="1.2844" stroke-linecap="round" stroke-linejoin="round"/>
    <path d="M31.774 33.5212L25.6073 36.0166L21.3283 30.9228L24.8506 25.2793L31.3064 26.8852L31.774 33.5212ZM19.2659 43.8575L18.5024 41.6254L24.0516 41.3287L27.7796 43.8192L25.7918 45.1922L19.2659 43.8575ZM11.8718 35.2491L14.4565 37.1129L15.6673 31.7942L13.5474 26.714L11.2863 28.9888L11.8718 35.2491ZM17.3137 19.5293L16.8682 21.7382L22.2314 20.6316L26.0095 18.0835L25.6523 17.1055L17.3137 19.5293ZM33.6379 19.7417L31.8262 19.6061L34.3665 23.7873L38.1392 26.7827L38.1759 24.8683L33.6379 19.7417ZM38.8874 35.062L38.6257 32.9403L35.5374 36.308L33.7298 41.212L35.4427 41.2449" fill="#50004B"/>
    <path d="M24.2592 41.3894L24.1984 41.5968L23.7841 41.4747L23.8449 41.2679L25.6077 35.2799L25.6684 35.0724L26.0827 35.1946L26.0219 35.402L24.2592 41.3894ZM19.4548 42.3662L19.5973 42.5288L19.2722 42.8132L19.1296 42.6506L13.4212 36.1298L13.2786 35.9672L13.6038 35.6828L13.7463 35.8454L19.4548 42.3662ZM21.2961 30.7096L21.5096 30.6767L21.5755 31.1032L21.362 31.1361L15.7005 32.0076L15.4876 32.0405L15.4217 31.6134L15.6353 31.5805L21.2961 30.7096ZM35.6679 36.2376L35.8388 36.3686L35.5761 36.7117L35.4045 36.58L31.6433 33.6923L31.4718 33.5612L31.7351 33.2182L31.906 33.3498L35.6679 36.2376ZM34.5191 40.6833L34.7188 40.6014L34.8821 41.0014L34.6824 41.0827L27.5256 44.0128L27.3253 44.0947L27.162 43.6947L27.3617 43.6128L34.5191 40.6833ZM32.8834 19.7857L33.0916 19.8421L32.978 20.259L32.7699 20.2026L24.9368 18.0686L24.7287 18.0122L24.8422 17.5953L25.0504 17.6524L32.8834 19.7857ZM25.0394 25.1731L25.1456 25.3616L24.7694 25.5734L24.6631 25.385L22.0441 20.7374L21.9379 20.5496L22.3141 20.3371L22.4204 20.5255L25.0394 25.1731ZM34.2136 23.6352L34.3653 23.482L34.6724 23.7854L34.5207 23.9392L31.4606 27.0368L31.3089 27.1906L31.0018 26.8873L31.1535 26.7334L34.2136 23.6352ZM13.4181 27.5392L13.3011 27.7209L12.9377 27.488L13.0548 27.3057L17.2746 20.7341L17.3917 20.5518L17.755 20.7853L17.638 20.967L13.4181 27.5392Z" fill="#50004B"/>
    <path fill-rule="evenodd" clip-rule="evenodd" d="M10.7914 30.8623C10.8103 29.8758 10.9285 28.8937 11.1445 27.9307C11.355 26.9954 11.6577 26.0835 12.0478 25.2084C12.8153 23.4901 13.9072 21.936 15.2635 20.6314C16.6192 19.3261 18.2141 18.2945 19.9606 17.5936C20.85 17.2373 21.7728 16.9698 22.7149 16.7954C23.6855 16.6165 24.672 16.5361 25.6585 16.555C26.6451 16.5739 27.6278 16.6921 28.5908 16.9081C29.5255 17.1186 30.4374 17.4212 31.3125 17.8114C33.0308 18.5788 34.5849 19.6708 35.8895 21.0271C37.1948 22.3828 38.2263 23.9776 38.9273 25.7241C39.2836 26.6135 39.551 27.5364 39.7255 28.4785C39.9044 29.4491 39.9848 30.4356 39.9659 31.4221C39.947 32.4086 39.8288 33.3914 39.6128 34.3544C39.4023 35.2891 39.0997 36.201 38.7095 37.0761C37.9421 38.7944 36.8501 40.3485 35.4938 41.6531C34.1381 42.9584 32.5432 43.9899 30.7968 44.6909C29.9073 45.0472 28.9845 45.3146 28.0424 45.4891C27.0718 45.668 26.0853 45.7484 25.0988 45.7295C24.1123 45.7106 23.1295 45.5923 22.1665 45.3764C21.2318 45.1659 20.3199 44.8632 19.4448 44.473C17.7265 43.7056 16.1724 42.6136 14.8678 41.2574C13.5625 39.9017 12.531 38.3068 11.83 36.5603C11.4737 35.6709 11.2063 34.748 11.0318 33.806C10.8529 32.8354 10.7725 31.8488 10.7914 30.8623ZM12.0253 30.886C12.0426 29.9822 12.1506 29.0826 12.3484 28.2007C12.5407 27.3459 12.8178 26.5118 13.175 25.7114C13.8773 24.1381 14.8773 22.715 16.1198 21.5211C17.3604 20.3253 18.8209 19.3807 20.42 18.7393C21.2335 18.413 22.0776 18.1681 22.9391 18.0087C23.8279 17.8449 24.731 17.7715 25.6349 17.7889C26.5387 17.8062 27.4383 17.9142 28.3202 18.112C29.175 18.3043 30.0091 18.5813 30.8095 18.9386C32.3828 19.6409 33.8059 20.6409 34.9998 21.8834C36.1955 23.124 37.1402 24.5845 37.7816 26.1836C38.1079 26.9971 38.3528 27.8412 38.5122 28.7027C38.6759 29.5915 38.7493 30.4946 38.732 31.3985C38.7147 32.3023 38.6067 33.2019 38.4089 34.0838C38.2166 34.9386 37.9395 35.7726 37.5823 36.5731C36.88 38.1464 35.88 39.5695 34.6375 40.7634C33.3969 41.9591 31.9364 42.9038 30.3373 43.5452C29.5238 43.8715 28.6797 44.1164 27.8182 44.2758C26.9294 44.4395 26.0263 44.5129 25.1224 44.4956C24.2186 44.4782 23.319 44.3703 22.4371 44.1725C21.5823 43.9802 20.7482 43.7031 19.9478 43.3459C18.3745 42.6436 16.9514 41.6436 15.7575 40.4011C14.5618 39.1605 13.6171 37.7 12.9757 36.1009C12.6494 35.2874 12.4045 34.4433 12.2451 33.5818C12.0814 32.693 12.008 31.7899 12.0253 30.886Z" fill="#50004B"/>
    <g style="mix-blend-mode:color-burn" opacity="0.38">
      <path d="M16.4855 18.6271L17.4676 22.0121L20.8868 23.1022L17.4283 24.0604L16.3171 27.4052L15.335 24.0202L11.9158 22.9301L15.3743 21.9719L16.4855 18.6271Z" fill="#C6C6C6"/>
      <path d="M16.4855 18.6271L17.4676 22.0121L20.8868 23.1022L17.4283 24.0604L16.3171 27.4052L15.335 24.0202L11.9158 22.9301L15.3743 21.9719L16.4855 18.6271Z" stroke="black"/>
    </g>
    <g style="mix-blend-mode:color-burn" opacity="0.38">
      <path d="M34.0451 36.2831L35.0272 39.6681L38.4463 40.7582L34.9879 41.7164L33.8766 45.0612L32.8945 41.6762L29.4754 40.5861L32.9338 39.6279L34.0451 36.2831Z" fill="#C6C6C6"/>
      <path d="M34.0451 36.2831L35.0272 39.6681L38.4463 40.7582L34.9879 41.7164L33.8766 45.0612L32.8945 41.6762L29.4754 40.5861L32.9338 39.6279L34.0451 36.2831Z" stroke="black"/>
    </g>
    <g style="mix-blend-mode:color-burn" opacity="0.38">
      <path d="M29.4735 32.3625L26.0886 33.3446L24.9984 36.7638L24.0402 33.3053L20.6955 32.1941L24.0804 31.212L25.1706 27.7928L26.1287 31.2513L29.4735 32.3625Z" fill="#C6C6C6"/>
      <path d="M29.4735 32.3625L26.0886 33.3446L24.9984 36.7638L24.0402 33.3053L20.6955 32.1941L24.0804 31.212L25.1706 27.7928L26.1287 31.2513L29.4735 32.3625Z" stroke="black"/>
    </g>
    <path d="M39.7374 7.13019L40.7195 10.5151L44.1387 11.6053L40.6802 12.5635L39.569 15.9082L38.5869 12.5233L35.1677 11.4331L38.6262 10.475L39.7374 7.13019Z" style="fill: rgb(118, 118, 118);"/>
    <path d="M10.3107 7.90168L11.2928 11.2866L14.712 12.3768L11.2535 13.3349L10.1423 16.6797L9.16015 13.2948L5.74098 12.2046L9.19945 11.2465L10.3107 7.90168Z" style="fill: rgb(118, 118, 118);"/>
    <path d="M25.6515 0.472907L26.6336 3.85785L30.0528 4.94799L26.5943 5.90617L25.4831 9.25094L24.501 5.866L21.0818 4.77586L24.5403 3.81768L25.6515 0.472907Z" style="fill: rgb(118, 118, 118);"/>
  </g>
</svg>