<?xml version="1.0" encoding="utf-8"?>
<svg width="45" height="45" viewBox="0 0 45 45" fill="none" xmlns="http://www.w3.org/2000/svg">
  <g clip-path="url(#clip0_67_829)">
    <path d="M1.54124 1.02877L9.03961 1.03314C8.13935 2.33707 7.63718 2.81618 7.87335 3.78458C7.96652 4.16669 9.16031 4.97463 9.20365 5.53166C9.23693 5.95913 8.1287 6.10627 8.13898 6.60354L7.2381 8.53514L8.3279 11.6553L8.60078 7.46025L10.0286 7.06855L10.6734 8.26544L11.3889 13.1683L14.6396 10.1536C13.8783 10.7739 12.1475 9.80088 11.6152 8.75467C11.4252 8.38131 12.5253 7.91963 12.2886 7.62797C11.6392 6.82747 10.915 7.25235 13.0089 6.31929C12.697 5.76506 12.2069 5.37126 11.5377 6.17228C11.3806 6.36036 11.1195 6.49432 10.9542 6.35422C10.8222 6.24238 10.7264 6.66327 10.5999 5.3717C10.5312 4.67024 10.3796 3.73852 10.2151 3.67704C9.44177 3.3881 10.8595 1.7519 10.5711 1.07623L33.8032 1.0475C33.83 1.78773 33.1586 3.24629 34.6858 2.47976C35.1699 2.23682 36.0767 3.83926 36.5957 3.82447C37.949 3.78589 35.9754 2.55436 36.3655 2.13756C36.7499 1.71934 37.9755 1.54125 38.0035 0.827699L43.4875 1.05506C43.6942 1.04843 43.8564 1.12495 43.9916 1.26514C44.1315 1.40043 44.207 1.56355 44.2001 1.7703L44.1906 18.529C43.4578 18.6004 42.0138 17.788 42.5653 19.2124C42.7504 19.6908 42.469 20.5792 42.0313 20.4952C39.6008 20.0291 42.2109 21.3892 42.5248 21.7022C42.8402 22.0124 43.262 22.1835 43.7921 22.1691C43.6725 22.9041 43.1152 28.0134 41.272 29.7536C36.5227 34.2377 41.863 33.6221 37.5161 33.4433C37.0047 33.4222 36.1232 32.6282 36.0143 32.9571C35.9438 33.1701 34.1347 31.6142 33.2175 32.2041C32.1748 32.8747 35.0789 33.425 35.2995 33.7402C36.0933 34.8747 38.591 36.9304 37.9042 37.6164C34.0175 41.4982 28.6799 43.8906 22.7546 43.8804L20.7765 43.88C19.7766 43.7282 19.3339 43.7065 19.0103 43.6822C18.6874 43.6579 18.4857 43.6317 17.9617 43.4695C17.6115 43.3616 16.9284 43.26 16.372 43.1006C16.0941 43.021 15.8519 42.9287 15.6959 42.8142C15.619 42.7577 15.5681 42.7012 15.5418 42.636C15.5159 42.5715 15.1348 42.4325 15.1704 42.3541C15.4639 41.6752 14.8891 41.9564 14.7481 41.7501C14.6755 41.6441 14.5519 39.5318 14.4075 39.5129C14.2648 39.4942 13.7862 40.7267 13.5978 40.7629C12.8471 40.9074 13.1085 41.6081 12.5428 41.5752C10.2738 41.4588 8.68057 39.2041 7.07696 37.5971C4.34154 34.8616 1.0441 26.3843 2.01978 26.691C3.84384 27.2645 2.58411 24.9657 3.35479 24.891C3.94631 24.8336 4.87284 24.3049 5.0692 23.9469C5.32321 23.4837 4.02907 24.0365 4.36759 23.5878C5.34666 22.2901 2.51793 23.7284 2.39327 22.453C2.29699 21.4681 0.814973 22.4794 0.813024 22.4466L0.825999 1.74145C0.819367 1.53472 0.895671 1.37271 1.03586 1.23756C1.10345 1.16875 1.17299 1.12154 1.26322 1.08463C1.30804 1.06541 1.34844 1.0528 1.39719 1.04317C1.42149 1.03814 1.44274 1.03495 1.46805 1.03244C1.49205 1.02989 1.55633 1.02804 1.55633 1.02804" fill="#D7C4C4" style=""/>
    <g style="mix-blend-mode: overlay;">
      <path d="M 1.96 2.349 L 43.445 2.43 C 42.714 2.978 42.936 4.938 42.971 4.912 L 42.588 22.5 C 42.588 25.898 41.124 30.22 39.688 33.053 C 36.268 39.795 30.194 42.328 22.234 42.732 C 10.829 43.311 3.979 33.259 1.717 22.904 L 1.96 2.349 Z" fill="#D7C4C4" style="clip-path: url(#clip-1);"/>
    </g>
    <path d="M29.3824 24.8491L22.7498 27.5331L18.1476 22.0546L21.9359 15.9846L28.8794 17.7118L29.3824 24.8491ZM15.9295 35.9663L15.1083 33.5657L21.0767 33.2465L25.0864 35.9252L22.9483 37.4018L15.9295 35.9663ZM7.97666 26.7077L10.7567 28.7124L12.0589 22.9918L9.77878 17.5278L7.34694 19.9745L7.97666 26.7077ZM13.8296 9.80034L13.3504 12.1761L19.1187 10.9858L23.1823 8.24519L22.7981 7.19339L13.8296 9.80034ZM31.387 10.0287L29.4384 9.88283L32.1707 14.3799L36.2284 17.6015L36.2678 15.5425L31.387 10.0287ZM37.0332 26.5062L36.7517 24.2243L33.4302 27.8464L31.4861 33.1209L33.3283 33.1562" fill="#A48989"/>
    <path d="M21.2992 33.3118L21.2339 33.5349L20.7883 33.4036L20.8536 33.1811L22.7495 26.7407L22.8149 26.5176L23.2604 26.649L23.1951 26.8721L21.2992 33.3118ZM16.1319 34.3624L16.2852 34.5373L15.9355 34.8432L15.7822 34.6684L9.64241 27.655L9.48911 27.4801L9.83883 27.1742L9.99213 27.3491L16.1319 34.3624ZM18.1122 21.8253L18.3419 21.7898L18.4128 22.2486L18.1831 22.284L12.0939 23.2213L11.8649 23.2568L11.794 22.7974L12.0237 22.762L18.1122 21.8253ZM33.5697 27.7707L33.7535 27.9116L33.471 28.2806L33.2865 28.139L29.2411 25.0331L29.0566 24.8922L29.3398 24.5232L29.5236 24.6648L33.5697 27.7707ZM32.3343 32.5523L32.549 32.4642L32.7247 32.8944L32.5099 32.9818L24.8124 36.1333L24.5969 36.2215L24.4213 35.7913L24.6361 35.7031L32.3343 32.5523ZM30.5748 10.076L30.7987 10.1367L30.6765 10.5851L30.4527 10.5243L22.0279 8.22929L21.804 8.16857L21.9261 7.72019L22.15 7.78157L30.5748 10.076ZM22.1382 15.8705L22.2525 16.0731L21.8478 16.301L21.7336 16.0984L18.9167 11.0997L18.8024 10.8977L19.207 10.6691L19.3213 10.8718L22.1382 15.8705ZM32.0055 14.2163L32.1687 14.0515L32.499 14.3778L32.3358 14.5433L29.0445 17.8749L28.8814 18.0403L28.5511 17.7141L28.7142 17.5486L32.0055 14.2163ZM9.63906 18.4154L9.51317 18.6108L9.12235 18.3604L9.24825 18.1643L13.7868 11.0962L13.9127 10.9001L14.3035 11.1512L14.1777 11.3466L9.63906 18.4154Z" fill="#A48989"/>
    <path fill-rule="evenodd" clip-rule="evenodd" d="M6.81433 21.9896C6.83468 20.9286 6.96181 19.8722 7.19409 18.8365C7.42049 17.8305 7.74599 16.8497 8.16564 15.9085C8.99101 14.0604 10.1655 12.3889 11.6242 10.9857C13.0823 9.58182 14.7976 8.47231 16.676 7.7184C17.6326 7.33515 18.6252 7.04751 19.6385 6.85983C20.6823 6.66744 21.7435 6.58092 22.8045 6.60127C23.8655 6.62161 24.9225 6.74876 25.9582 6.98104C26.9636 7.20743 27.9444 7.53292 28.8856 7.95257C30.7337 8.77795 32.4052 9.95241 33.8084 11.4112C35.2123 12.8692 36.3218 14.5846 37.0757 16.463C37.4589 17.4196 37.7466 18.4122 37.9342 19.4254C38.1266 20.4693 38.2132 21.5304 38.1928 22.5914C38.1725 23.6525 38.0453 24.7094 37.813 25.7452C37.5867 26.7505 37.2612 27.7313 36.8415 28.6725C36.0161 30.5206 34.8417 32.1922 33.3829 33.5953C31.9248 34.9992 30.2095 36.1087 28.3311 36.8626C27.3745 37.2459 26.3819 37.5335 25.3687 37.7212C24.3248 37.9136 23.2637 38.0001 22.2027 37.9798C21.1416 37.9594 20.0846 37.8323 19.0489 37.6C18.0436 37.3736 17.0628 37.0481 16.1216 36.6285C14.2734 35.8031 12.6019 34.6286 11.1987 33.1699C9.79488 31.7118 8.68537 29.9965 7.93147 28.118C7.54822 27.1615 7.26057 26.1689 7.0729 25.1556C6.8805 24.1117 6.79398 23.0506 6.81433 21.9896ZM8.14145 22.0151C8.1601 21.0429 8.27623 20.0754 8.48892 19.1269C8.69574 18.2075 8.99373 17.3104 9.37799 16.4495C10.1333 14.7574 11.2088 13.2267 12.5451 11.9426C13.8795 10.6565 15.4503 9.64051 17.1702 8.95061C18.0452 8.59965 18.953 8.33626 19.8796 8.16485C20.8356 7.98869 21.8069 7.90974 22.779 7.92839C23.7511 7.94703 24.7187 8.06317 25.6672 8.27585C26.5866 8.48267 27.4837 8.78067 28.3446 9.16493C30.0367 9.92027 31.5674 10.9958 32.8515 12.3321C34.1375 13.6664 35.1536 15.2372 35.8435 16.9571C36.1944 17.8321 36.4578 18.7399 36.6292 19.6666C36.8054 20.6225 36.8843 21.5938 36.8657 22.566C36.8471 23.5381 36.7309 24.5057 36.5182 25.4542C36.3114 26.3735 36.0134 27.2706 35.6292 28.1315C34.8738 29.8237 33.7983 31.3543 32.462 32.6384C31.1276 33.9245 29.5568 34.9405 27.837 35.6304C26.962 35.9814 26.0542 36.2448 25.1275 36.4162C24.1716 36.5923 23.2002 36.6713 22.2281 36.6526C21.256 36.634 20.2884 36.5179 19.3399 36.3052C18.4205 36.0984 17.5235 35.8004 16.6626 35.4161C14.9704 34.6608 13.4398 33.5852 12.1557 32.2489C10.8696 30.9146 9.85358 29.3438 9.16368 27.6239C8.81271 26.7489 8.54933 25.8411 8.37792 24.9145C8.20176 23.9585 8.12281 22.9872 8.14145 22.0151Z" fill="#A48989"/>
    <g style="mix-blend-mode:color-burn">
      <path d="M7.36829 2.15355L8.42462 5.7942L12.1021 6.96666L8.38237 7.99725L7.18722 11.5947L6.13089 7.95407L2.45341 6.78161L6.17314 5.75102L7.36829 2.15355Z" fill="#C6C6C6" style="stroke-width: 0px; clip-path: url(#clip-2);"/>
    </g>
    <g style="mix-blend-mode:color-burn">
      <path d="M16.8927 11.5215L17.949 15.1621L21.6265 16.3346L17.9068 17.3652L16.7116 20.9626L15.6553 17.322L11.9778 16.1495L15.6976 15.1189L16.8927 11.5215Z" fill="#C6C6C6" style="stroke-width: 0px;"/>
      <path d="M16.8927 11.5215L17.949 15.1621L21.6265 16.3346L17.9068 17.3652L16.7116 20.9626L15.6553 17.322L11.9778 16.1495L15.6976 15.1189L16.8927 11.5215Z" stroke="black" style="stroke-width: 0px;"/>
    </g>
    <g style="mix-blend-mode:color-burn">
      <path d="M25.6574 19.8888L26.7137 23.5294L30.3912 24.7019L26.6714 25.7325L25.4763 29.3299L24.42 25.6893L20.7425 24.5168L24.4622 23.4862L25.6574 19.8888Z" fill="#C6C6C6" style="stroke-width: 0px;"/>
      <path d="M25.6574 19.8888L26.7137 23.5294L30.3912 24.7019L26.6714 25.7325L25.4763 29.3299L24.42 25.6893L20.7425 24.5168L24.4622 23.4862L25.6574 19.8888Z" stroke="black" style="stroke-width: 0px;"/>
    </g>
    <g style="mix-blend-mode:color-burn">
      <path d="M35.1427 28.5813L36.199 32.222L39.8765 33.3944L36.1568 34.425L34.9616 38.0225L33.9053 34.3818L30.2278 33.2094L33.9476 32.1788L35.1427 28.5813Z" fill="#C6C6C6" style="stroke-width: 0px; clip-path: url(#clip-0);"/>
      <path d="M35.1427 28.5813L36.199 32.222L39.8765 33.3944L36.1568 34.425L34.9616 38.0225L33.9053 34.3818L30.2278 33.2094L33.9476 32.1788L35.1427 28.5813Z" stroke="black" style="stroke-width: 0px;"/>
    </g>
  </g>
  <defs>
    <clipPath id="clip0_67_829">
      <rect width="45" height="44.6995" fill="white"/>
    </clipPath>
    <clipPath id="clip-1">
      <path d="M 1.424 1.175 L 8.88 1.179 C 7.985 2.483 7.486 2.962 7.721 3.931 C 7.813 4.313 9 5.121 9.043 5.678 C 9.076 6.105 7.974 6.252 7.984 6.749 L 7.089 8.681 L 8.172 11.801 L 8.443 7.606 L 9.863 7.214 L 10.504 8.411 L 11.216 13.314 L 14.448 10.3 C 13.691 10.92 11.97 9.947 11.44 8.901 C 11.252 8.527 12.346 8.066 12.11 7.774 C 11.464 6.973 10.745 7.398 12.827 6.465 C 12.516 5.911 12.029 5.517 11.364 6.318 C 11.208 6.506 10.948 6.64 10.783 6.5 C 10.652 6.388 10.557 6.809 10.431 5.518 C 10.363 4.816 10.213 3.884 10.048 3.823 C 9.28 3.534 10.69 1.898 10.402 1.222 L 33.5 1.193 C 33.527 1.934 32.86 3.392 34.379 2.626 C 34.86 2.383 35.762 3.985 36.278 3.97 C 37.622 3.932 35.661 2.7 36.049 2.283 C 36.431 1.865 37.648 1.687 37.676 0.974 L 43.129 1.201 C 43.334 1.194 43.495 1.271 43.63 1.411 C 43.769 1.546 43.844 1.709 43.837 1.916 L 43.828 18.675 C 43.099 18.746 41.663 17.934 42.212 19.358 C 42.396 19.837 42.116 20.725 41.681 20.641 C 39.264 20.175 41.859 21.535 42.172 21.848 C 42.484 22.158 42.904 22.329 43.431 22.315 C 43.313 23.05 42.758 28.159 40.925 29.9 C 36.205 34.384 41.514 33.768 37.191 33.589 C 36.683 33.568 35.808 32.774 35.699 33.103 C 35.629 33.316 33.831 31.76 32.919 32.35 C 31.882 33.021 34.77 33.571 34.989 33.886 C 35.779 35.021 38.26 37.076 37.577 37.762 C 33.715 41.644 28.408 44.037 22.516 44.026 L 20.55 44.026 C 19.556 43.874 19.115 43.852 18.794 43.828 C 18.473 43.804 18.272 43.778 17.751 43.615 C 17.402 43.508 16.724 43.406 16.17 43.247 C 15.894 43.167 15.653 43.075 15.498 42.96 C 15.422 42.904 15.371 42.847 15.345 42.782 C 15.318 42.717 14.94 42.578 14.976 42.5 C 15.267 41.821 14.695 42.102 14.555 41.896 C 14.484 41.79 14.361 39.678 14.217 39.659 C 14.075 39.64 13.599 40.873 13.412 40.909 C 12.665 41.053 12.926 41.754 12.363 41.721 C 10.108 41.605 8.523 39.35 6.928 37.743 C 4.209 35.008 0.93 26.53 1.901 26.837 C 3.714 27.41 2.461 25.112 3.227 25.037 C 3.816 24.98 4.737 24.451 4.932 24.093 C 5.184 23.63 3.898 24.182 4.235 23.734 C 5.208 22.436 2.396 23.874 2.272 22.599 C 2.176 21.614 0.703 22.625 0.701 22.593 L 0.714 1.887 C 0.708 1.681 0.783 1.519 0.922 1.383 C 0.99 1.315 1.058 1.267 1.148 1.231 C 1.192 1.211 1.234 1.199 1.281 1.189 C 1.306 1.184 1.327 1.181 1.352 1.178 C 1.376 1.176 1.44 1.174 1.44 1.174" fill="#D7C4C4" style=""/>
    </clipPath>
    <clipPath id="clip-0">
      <path d="M 1.534 1.174 L 9.032 1.179 C 8.132 2.483 7.63 2.962 7.866 3.93 C 7.959 4.312 9.153 5.12 9.196 5.677 C 9.229 6.105 8.121 6.252 8.132 6.749 L 7.231 8.681 L 8.32 11.801 L 8.593 7.606 L 10.021 7.214 L 10.666 8.411 L 11.381 13.314 L 14.632 10.299 C 13.871 10.92 12.14 9.946 11.608 8.9 C 11.418 8.527 12.518 8.065 12.281 7.774 C 11.632 6.973 10.908 7.398 13.001 6.465 C 12.69 5.911 12.199 5.517 11.53 6.318 C 11.373 6.506 11.112 6.64 10.947 6.5 C 10.815 6.388 10.719 6.809 10.592 5.517 C 10.524 4.816 10.372 3.884 10.208 3.823 C 9.434 3.534 10.852 1.898 10.564 1.222 L 33.796 1.193 C 33.823 1.933 33.151 3.392 34.678 2.625 C 35.162 2.382 36.069 3.985 36.588 3.97 C 37.942 3.931 35.968 2.7 36.358 2.283 C 36.742 1.865 37.968 1.687 37.996 0.973 L 43.48 1.201 C 43.687 1.194 43.849 1.271 43.984 1.411 C 44.124 1.546 44.2 1.709 44.193 1.916 L 44.183 18.675 C 43.45 18.746 42.006 17.934 42.558 19.358 C 42.743 19.836 42.462 20.725 42.024 20.641 C 39.593 20.175 42.203 21.535 42.517 21.848 C 42.833 22.158 43.255 22.329 43.785 22.315 C 43.665 23.05 43.108 28.159 41.265 29.899 C 36.515 34.383 41.856 33.768 37.509 33.589 C 36.997 33.568 36.116 32.774 36.007 33.103 C 35.936 33.316 34.127 31.76 33.21 32.35 C 32.167 33.02 35.071 33.571 35.292 33.886 C 36.086 35.02 38.584 37.076 37.897 37.762 C 34.01 41.644 28.672 44.036 22.747 44.026 L 20.769 44.026 C 19.769 43.874 19.326 43.852 19.003 43.828 C 18.68 43.804 18.478 43.777 17.954 43.615 C 17.604 43.507 16.921 43.406 16.365 43.246 C 16.087 43.167 15.844 43.074 15.688 42.96 C 15.612 42.903 15.561 42.847 15.534 42.782 C 15.508 42.717 15.127 42.578 15.163 42.5 C 15.456 41.821 14.882 42.102 14.741 41.896 C 14.668 41.79 14.544 39.677 14.4 39.659 C 14.257 39.64 13.779 40.872 13.59 40.909 C 12.84 41.053 13.101 41.754 12.535 41.721 C 10.266 41.604 8.673 39.35 7.07 37.743 C 4.334 35.007 1.037 26.53 2.012 26.837 C 3.836 27.41 2.577 25.111 3.347 25.037 C 3.939 24.979 4.865 24.451 5.062 24.093 C 5.316 23.629 4.022 24.182 4.36 23.733 C 5.339 22.436 2.51 23.874 2.386 22.599 C 2.29 21.614 0.808 22.625 0.806 22.592 L 0.819 1.887 C 0.812 1.68 0.888 1.518 1.028 1.383 C 1.096 1.314 1.166 1.267 1.256 1.23 C 1.301 1.211 1.341 1.198 1.39 1.189 C 1.414 1.184 1.435 1.181 1.461 1.178 C 1.485 1.175 1.549 1.174 1.549 1.174" fill="#D7C4C4" style=""/>
    </clipPath>
    <clipPath id="clip-2">
      <path d="M 1.534 1.174 L 9.032 1.179 C 8.132 2.483 7.63 2.962 7.866 3.93 C 7.959 4.312 9.153 5.12 9.196 5.677 C 9.229 6.105 8.121 6.252 8.132 6.749 L 7.231 8.681 L 8.32 11.801 L 8.593 7.606 L 10.021 7.214 L 10.666 8.411 L 11.381 13.314 L 14.632 10.299 C 13.871 10.92 12.14 9.946 11.608 8.9 C 11.418 8.527 12.518 8.065 12.281 7.774 C 11.632 6.973 10.908 7.398 13.001 6.465 C 12.69 5.911 12.199 5.517 11.53 6.318 C 11.373 6.506 11.112 6.64 10.947 6.5 C 10.815 6.388 10.719 6.809 10.592 5.517 C 10.524 4.816 10.372 3.884 10.208 3.823 C 9.434 3.534 10.852 1.898 10.564 1.222 L 33.796 1.193 C 33.823 1.933 33.151 3.392 34.678 2.625 C 35.162 2.382 36.069 3.985 36.588 3.97 C 37.942 3.931 35.968 2.7 36.358 2.283 C 36.742 1.865 37.968 1.687 37.996 0.973 L 43.48 1.201 C 43.687 1.194 43.849 1.271 43.984 1.411 C 44.124 1.546 44.2 1.709 44.193 1.916 L 44.183 18.675 C 43.45 18.746 42.006 17.934 42.558 19.358 C 42.743 19.836 42.462 20.725 42.024 20.641 C 39.593 20.175 42.203 21.535 42.517 21.848 C 42.833 22.158 43.255 22.329 43.785 22.315 C 43.665 23.05 43.108 28.159 41.265 29.899 C 36.515 34.383 41.856 33.768 37.509 33.589 C 36.997 33.568 36.116 32.774 36.007 33.103 C 35.936 33.316 34.127 31.76 33.21 32.35 C 32.167 33.02 35.071 33.571 35.292 33.886 C 36.086 35.02 38.584 37.076 37.897 37.762 C 34.01 41.644 28.672 44.036 22.747 44.026 L 20.769 44.026 C 19.769 43.874 19.326 43.852 19.003 43.828 C 18.68 43.804 18.478 43.777 17.954 43.615 C 17.604 43.507 16.921 43.406 16.365 43.246 C 16.087 43.167 15.844 43.074 15.688 42.96 C 15.612 42.903 15.561 42.847 15.534 42.782 C 15.508 42.717 15.127 42.578 15.163 42.5 C 15.456 41.821 14.882 42.102 14.741 41.896 C 14.668 41.79 14.544 39.677 14.4 39.659 C 14.257 39.64 13.779 40.872 13.59 40.909 C 12.84 41.053 13.101 41.754 12.535 41.721 C 10.266 41.604 8.673 39.35 7.07 37.743 C 4.334 35.007 1.037 26.53 2.012 26.837 C 3.836 27.41 2.577 25.111 3.347 25.037 C 3.939 24.979 4.865 24.451 5.062 24.093 C 5.316 23.629 4.022 24.182 4.36 23.733 C 5.339 22.436 2.51 23.874 2.386 22.599 C 2.29 21.614 0.808 22.625 0.806 22.592 L 0.819 1.887 C 0.812 1.68 0.888 1.518 1.028 1.383 C 1.096 1.314 1.166 1.267 1.256 1.23 C 1.301 1.211 1.341 1.198 1.39 1.189 C 1.414 1.184 1.435 1.181 1.461 1.178 C 1.485 1.175 1.549 1.174 1.549 1.174" fill="#D7C4C4" style=""/>
    </clipPath>
  </defs>
</svg>