<svg version="1.2" xmlns="http://www.w3.org/2000/svg" viewBox="0 0 1461 222" width="1461" height="222">
	<title>LogoMinified</title>
	<style>
		.s0 { fill: #262626 } 
		.s1 { fill: #0e83bc } 
		.s2 { fill: #ffffff } 
	</style>
	<rect id="Forma 1 copy 2" class="s0" x="1" y="23" width="145" height="144" rx="8"></rect>
	<path id="Forma 2" class="s1" d="m146 156v3c0 0-0.3 3.7-2.3 5.7-2.3 2.3-6.7 2.3-6.7 2.3h-123c0 0-8.1 0.8-11.3-3-2.5-3-1.7-9-1.7-9v-30z"/>
	<path id="Forma 1" class="s1" d="m1 29c0 0 0.1-2.5 1.3-3.9 1.5-1.8 4.7-2.1 4.7-2.1h107l22 36 7 68-22-15-93-65z"/>
	<path id="Animesports" class="s2" aria-label="Animesports"  d="m154.9 167h43.8l-54.1-144.2h-47.8l-54.4 144.2h43.6l8-23.5h52.9zm-18.4-54.2h-31.9l15.8-46.7zm156.6 54.2h41.4v-66.8c0-30.1-17.1-48.9-44.6-48.9-16.7 0-29.2 7.5-36.2 17.4v-16.4h-41.4v114.7h41.4v-61.5c0-13.3 7.6-21.1 19.9-21.1 11.8 0 19.5 7.8 19.5 21.1zm64.3 0h41.4v-114.8h-41.4zm20.9-125.4c14.6 0 24.1-9 24.1-20.4 0-11.7-9.5-20.9-24.1-20.9-14.8 0-24.3 9.2-24.3 20.9 0 11.4 9.5 20.4 24.3 20.4zm205.8 125.4h41.5v-66.9c0-30-18-48.8-48.1-48.8-17.5 0-31.5 9.4-39.5 21-7.8-13.3-21.8-21-39.6-21-16 0-27.7 6.9-34.4 16.1v-15.1h-41.5v114.7h41.5v-61.5c0-12.5 7.6-19.5 19.8-19.5 11.9 0 19.5 7 19.5 19.5v61.5h41.5v-61.5c0-12.5 7.6-19.5 19.6-19.5 11.9 0 19.7 7 19.7 19.5zm117.4-84.5c9.5 0 17.8 5.5 17.8 15.7h-36.6c1.9-10.4 8.9-15.7 18.8-15.7zm57.5 44.8h-44.2c-2.3 4.7-6.7 9-14.8 9-9.3 0-16.7-5.3-17.5-18.6h78.4c0.5-3.1 0.7-6.4 0.7-9.4 0-35.6-24.8-57.5-59.9-57.5-35.5 0-60.3 22.3-60.3 58.7 0 36.6 25.2 58.9 60.3 58.9 29.6 0 51.8-17.6 57.3-41.1zm119.3 5.9c-0.2-43.6-63.4-30.5-63.4-46.8 0-4.3 3.6-7 10.3-7 8.9 0 14.2 4.3 15.5 11.5h37.4c-2.7-22.7-19.7-40.1-52-40.1-32.2 0-49.3 16.6-49.3 36.6 0 42.1 63 28.4 63 45.2 0 4.1-4 7.4-11 7.4-8.6 0-15.2-4.1-16.3-11.7h-40.1c1.7 22.9 23.6 40.1 56.6 40.1 30.7 0 49.3-15.1 49.3-35.2zm61.8-65v-16h-41.5v169.6h41.5v-70.8c6.3 10 18 17.4 34.7 17.4 28.3 0 50.5-22.3 50.5-58.9 0-36.6-22.2-58.7-50.5-58.7-16.5 0-28.6 7.1-34.7 17.4zm43.1 41.3c0 15.3-9.9 23.9-21.5 23.9-11.7 0-21.6-8.4-21.6-23.9 0-15.4 9.9-23.7 21.6-23.7 11.6 0 21.5 8.1 21.5 23.7zm176.9 0c0-36.4-26.9-58.7-62.2-58.7-35.3 0-62.2 22.3-62.2 58.7 0 36.6 26.7 58.9 62 58.9 35.3 0 62.4-22.3 62.4-58.9zm-82.1 0c0-16.4 9.3-23.9 19.9-23.9 10.6 0 20.1 7.5 20.1 23.9 0 16.6-9.7 24.1-20.3 24.1-10.8 0-19.7-7.5-19.7-24.1zm140.5 7.4c0-17.6 9.5-23 26.6-23h11.6v-42.7c-15.8 0-29.4 8.8-38.2 21.3v-20.3h-41.5v114.8h41.5zm59.6 6.5c0 32.9 19.3 43.6 45.5 43.6h18v-34.2h-12.1c-7 0-9.7-2.6-9.7-8.8v-38.4h21.5v-33.4h-21.5v-27.8h-41.7v27.8h-14.6v33.4h14.6zm182.3 9.8c-0.2-43.6-63.4-30.5-63.4-46.9 0-4.2 3.6-6.9 10.3-6.9 8.9 0 14.2 4.3 15.5 11.4h37.4c-2.7-22.7-19.7-40-52-40-32.2 0-49.3 16.5-49.3 36.6 0 42.1 63 28.4 63 45.2 0 4.1-4 7.3-11 7.3-8.6 0-15.2-4.1-16.3-11.6h-40.1c1.7 22.9 23.7 40.1 56.6 40.1 30.7 0 49.3-15.2 49.3-35.2z"/>
	<path id="animesports" class="s2" aria-label="animesports"  d="m27.3 157.5c3.5 1.4 6.5 0.2 7.5-2.4 0.6-1.5 0.4-2.9-0.4-3.8l1.6 0.6 1.5-3.8-10.9-4.5-1.6 3.9 1.6 0.6c-1.2 0.1-2.4 1-3 2.5-1 2.6 0.2 5.5 3.7 6.9zm3.2-7.8c1.5 0.6 1.9 1.8 1.5 2.9-0.5 1.1-1.7 1.6-3.1 1-1.5-0.6-1.9-1.8-1.5-2.9 0.5-1 1.6-1.6 3.1-1zm10.9-11.3l1.5-3.8-6.3-2.6c-2.9-1.1-5.3-0.3-6.4 2.3-0.6 1.5-0.3 3 0.4 4l-1.6-0.7-1.5 3.9 10.9 4.4 1.5-3.8-5.8-2.4c-1.3-0.5-1.8-1.5-1.3-2.7 0.4-1 1.5-1.4 2.7-0.9zm2.4-6l1.6-3.8-11-4.4-1.5 3.8zm-11.2-6.7c0.6-1.4 0.1-2.6-1-3-1.1-0.5-2.4 0.1-2.9 1.4-0.6 1.4 0 2.6 1.1 3 1.1 0.5 2.3 0 2.8-1.4zm19.6-14.1l1.6-3.9-6.4-2.5c-2.9-1.2-5.3-0.3-6.4 2.5-0.7 1.6-0.3 3.3 0.5 4.5-1.6 0.2-2.8 1.2-3.5 2.8-0.6 1.5-0.4 2.8 0.3 3.8l-1.5-0.6-1.5 3.8 10.9 4.4 1.6-3.8-5.9-2.3c-1.2-0.5-1.6-1.5-1.1-2.6 0.4-1.1 1.4-1.5 2.6-1.1l5.8 2.4 1.6-3.8-5.9-2.4c-1.2-0.5-1.6-1.4-1.1-2.5 0.4-1.1 1.4-1.6 2.6-1.1zm-3.7-14.1c0.3-0.8 1.2-1.4 2.1-1l-1.3 3.4c-0.9-0.6-1.2-1.4-0.8-2.4zm6.4-3.5l-1.7 4c0.4 0.4 0.6 1 0.3 1.7-0.3 0.9-1.1 1.4-2.4 0.9l2.9-7.2c-0.2-0.1-0.5-0.3-0.8-0.4-3.4-1.4-6.4 0.1-7.7 3.3-1.4 3.3-0.2 6.4 3.3 7.8 3.5 1.4 6.6 0 7.9-3.3 1.1-2.7 0.2-5.4-1.8-6.8zm5-10.8c-4.2-1.6-5.3 4.7-6.8 4.1-0.4-0.2-0.6-0.6-0.3-1.3 0.3-0.8 0.9-1.1 1.7-1l1.3-3.4c-2.2-0.6-4.5 0.3-5.7 3.3-1.2 2.9-0.3 5.1 1.6 5.9 4.1 1.6 5.1-4.7 6.7-4.1 0.4 0.2 0.5 0.7 0.3 1.3-0.3 0.8-1 1.3-1.7 1.1l-1.5 3.7c2.2 0.7 4.7-0.7 5.9-3.7 1.1-2.8 0.4-5.1-1.5-5.9zm-3.9-8.2l-1.5-0.6-1.6 3.8 16.2 6.5 1.5-3.8-6.7-2.7c1.2-0.2 2.3-1 2.9-2.5 1.1-2.6-0.2-5.5-3.7-6.9-3.5-1.4-6.4-0.2-7.5 2.4-0.6 1.5-0.4 2.9 0.4 3.8zm5.5-2.4c1.5 0.6 1.9 1.9 1.5 2.9-0.4 1.1-1.6 1.7-3.1 1.1-1.4-0.6-1.9-1.8-1.4-2.9 0.4-1.1 1.5-1.7 3-1.1zm6.6-16.2c-3.5-1.4-6.6 0.2-7.9 3.4-1.3 3.3-0.2 6.6 3.3 8 3.5 1.4 6.6-0.2 7.9-3.4 1.3-3.3 0.2-6.6-3.3-8zm-3.1 7.5c-1.5-0.6-1.9-1.8-1.5-2.7 0.4-1 1.5-1.6 3-1 1.6 0.7 2 1.9 1.6 2.8-0.4 1-1.5 1.6-3.1 0.9zm6-12.6c-1.7-0.7-1.9-1.8-1.2-3.4l0.4-1-4.1-1.7c-0.6 1.5-0.2 3.1 0.6 4.4l-1.9-0.8-1.5 3.8 10.9 4.4 1.5-3.8zm2.9-5.2c3.1 1.2 4.8-0.1 5.8-2.6l0.7-1.6-3.3-1.3-0.4 1.1c-0.3 0.6-0.6 0.8-1.2 0.5l-3.7-1.4 0.8-2-3.1-1.3-0.9 2-2.6-1.1-1.5 3.9 2.6 1-0.5 1.4 3.1 1.2 0.6-1.3zm7.7-16.4c-4.2-1.7-5.3 4.7-6.8 4-0.4-0.1-0.6-0.6-0.3-1.2 0.3-0.8 0.9-1.1 1.7-1l1.3-3.4c-2.2-0.6-4.5 0.3-5.7 3.2-1.2 3-0.3 5.2 1.7 6 4 1.6 5-4.7 6.6-4.1 0.4 0.2 0.5 0.7 0.3 1.3-0.3 0.8-1 1.3-1.7 1.1l-1.5 3.7c2.2 0.7 4.7-0.7 5.9-3.7 1.1-2.8 0.4-5.1-1.5-5.9z"/>
</svg>