<svg width="55" height="69" viewBox="0 0 55 69" fill="none" xmlns="http://www.w3.org/2000/svg">
<path fill-rule="evenodd" clip-rule="evenodd" d="M27.4998 68.3827C35.6284 64.9494 42.5764 59.372 47.4481 51.9898C52.1299 44.9061 54.8439 36.4926 54.8439 27.8483V0.531372H0.155762V27.8483C0.155762 36.4926 2.86982 44.9061 7.55156 51.9898C12.4233 59.372 19.3713 64.9494 27.4998 68.3827Z" fill="#070308"/>
<path fill-rule="evenodd" clip-rule="evenodd" d="M25.5457 2.53977H2.25918V23.248H25.5457V2.53977ZM52.7405 8.75496H27.4998V16.9785H52.7405V8.75496ZM8.71861 49.8865H46.281C47.8959 47.2946 49.2394 44.5398 50.2707 41.6629H4.72895C5.7603 44.5398 7.10375 47.2946 8.71861 49.8865ZM2.25918 25.2157V27.7805C2.25918 29.6803 2.39488 31.5802 2.66628 33.4393H52.3334C52.6048 31.5666 52.7405 29.6803 52.7405 27.7805V25.2157H2.25918ZM27.4998 66.1301C32.0051 64.2031 36.1034 61.4483 39.618 58.1236H15.3816C18.8963 61.4619 22.9945 64.2031 27.4998 66.1301Z" fill="#C3281E"/>
<path fill-rule="evenodd" clip-rule="evenodd" d="M14.1739 18.6477V17.2228C13.2647 17.6435 12.1519 17.7792 11.1613 17.657C8.39293 17.3042 6.61522 15.0787 6.61522 12.3239C6.61522 9.79986 8.24366 7.42507 10.8084 7.42507C11.8398 7.42507 12.8168 7.91359 13.2511 9.10778C13.6582 8.21214 13.7125 6.28517 13.3732 5.44381C13.1425 5.41664 12.8983 5.41664 12.654 5.41664C11.6498 5.41664 10.6727 5.60662 9.85852 5.8916C7.95868 6.54297 6.34382 7.99499 5.38032 9.75912C4.72895 10.9533 4.44398 12.0254 3.69761 12.0254C4.55254 15.7572 7.23946 18.8648 11.2291 19.0819C12.2062 19.109 13.1832 18.9733 14.1739 18.6477ZM12.654 4.99599C15.8159 4.99599 17.9735 6.73298 17.9735 9.90842C17.9735 11.089 17.6072 12.2561 16.7929 13.0974H18.2857C19.9548 11.4011 19.6563 9.28419 20.7826 9.28419C19.222 5.38953 17.0508 3.50326 12.1926 3.62539C10.727 3.63895 10.0214 3.65256 8.8136 3.21829L9.69567 5.51166C10.5235 5.21311 11.5819 4.99599 12.654 4.99599ZM11.6091 19.4754C10.9984 19.4754 10.3742 19.4076 9.77709 19.2583C9.77709 20.5746 9.47855 21.1717 8.92216 21.5788C9.61425 22.2981 11.4055 22.6102 12.8847 22.1895C11.9212 21.5924 11.6091 20.6425 11.6091 19.4754ZM21.5561 12.731C21.2304 13.1381 20.7826 13.491 19.697 13.491H16.413V8.46998H17.4036C17.2679 7.92716 17.0236 7.43863 16.7387 7.00438H16.3044C15.463 7.00438 14.676 6.88225 13.8482 6.57014L14.5674 8.4564V13.4638C15.4495 13.7488 16.0466 14.2645 16.6844 14.9294H18.6792C19.8055 14.9294 20.2533 15.6893 20.1584 16.7343C22.1532 15.6893 21.8139 13.3824 21.5561 12.731ZM16.413 19.5026V18.3084C15.9109 17.5349 15.3002 16.6528 14.581 16.0693V19.2855C14.581 20.4525 14.2689 21.1717 13.7125 21.5517C14.4046 22.2709 16.1958 22.583 17.675 22.1624C16.7115 21.5924 16.413 20.4932 16.413 19.5026ZM23.5102 6.01375C23.171 6.62442 22.5467 7.00438 21.4068 7.00438H20.0634C20.3483 7.45221 20.6062 7.94073 20.864 8.46998C21.9361 8.46998 22.2482 9.60987 22.0989 10.2748C24.148 9.22991 23.7681 6.66513 23.5102 6.01375ZM19.2899 18.8512C18.3264 17.7927 17.39 15.9608 15.6802 14.5494C14.4996 13.5724 12.9118 13.3688 11.5955 13.3688V7.94073C10.9713 7.76432 10.3742 7.80503 9.76352 7.96784V16.8835C10.3471 17.1278 10.9713 17.277 11.5955 17.3042V14.8751C13.7668 14.8751 14.7574 15.4451 15.8566 16.8564C17.0236 18.3491 18.5299 21.2667 19.9548 22.2573C20.7962 22.0945 22.6417 20.7782 22.791 19.0819C21.6647 19.8961 20.3483 20.0047 19.2899 18.8512Z" fill="white"/>
</svg>
